<?xml version="1.0" encoding="utf-8"?>
<!-- Generator: Adobe Illustrator 16.0.0, SVG Export Plug-In . SVG Version: 6.00 Build 0)  -->
<!DOCTYPE svg PUBLIC "-//W3C//DTD SVG 1.1//EN" "http://www.w3.org/Graphics/SVG/1.1/DTD/svg11.dtd">
<svg version="1.1" id="Capa_1" xmlns="http://www.w3.org/2000/svg" xmlns:xlink="http://www.w3.org/1999/xlink" x="0px" y="0px"
	 width="1200px" height="1200px" viewBox="0 0 1200 1200" enable-background="new 0 0 1200 1200" xml:space="preserve">
<g>
	<g opacity="0.3">
		<path fill-rule="evenodd" clip-rule="evenodd" fill="#C1272D" d="M461.689,757.514c-4.848-5.889-11.809-14.549-15.473-19.232
			c-3.668-4.701-29.82-23.23-53.902-32.012c0,0,0,0-12.359-9.506c-4.145-3.186-8.43-6.49-11.289-8.006
			c-9.84-5.287-17.148-12.209-22.488-17.271c-0.695-0.688-0.695-0.688-0.695-0.688c-0.93-0.861-22.949-11.469-48.941-23.557
			c0,0,0,0-14.629-13.07c-5.059-4.545-5.059-4.545-5.059-4.545c-5.383-4.357-18.902-14.619-30.047-22.799
			c-11.156-8.18,16.344-40.879,61.094-72.684c0,0,9.922-7.041,23.938-16.978c5.191-3.667,10.441-7.301,15.688-10.935
			c9.664-6.697,18.797-13.018,27.602-19.612c25.707-19.269,54.605-19.476,73.723-19.612c3.391-0.035,6.77-0.035,10.125-0.173
			c3.586-0.172,3.586-0.172,3.586-0.172c2.379-0.173,4.813-1.12,5.41-2.083c0.594-0.982,4.945-8.766,7.621-13.587
			c2.664-4.821,9.648-9.401,15.516-10.142c5.879-0.775,16.602-2.136,23.832-3.031c0,0,0,0,7.004,0c21.758,0,21.758,0,21.758,0
			c18.156,12.708,35.531,24.142,38.617,25.416c0,0,0,0,2.574,0.965c8.211,3.099,18.421,6.956,28.156,13.706
			c5.758,3.995,5.758,3.995,5.758,3.995c2.117,0.74,4.379,1.084,5.035,0.791c0,0,0,0,1.629-0.946
			c8.074-4.684,17.457-7.06,27.852-7.06c11.555,0,22.203,2.979,29.098,5.492c11.211,4.064,21.762,8.645,31.965,13.087
			c4.688,2.032,9.367,4.081,14.09,6.044c2.613,1.068,5.246,2.273,7.875,3.496c0.207,0.086,0.207,0.086,0.207,0.086
			c0.238,0.12,6.664-1.705,14.277-4.012c0,0,0,0,7.227,0c11.137,0,11.137,0,11.137,0c10.082,5.561,18.648,10.107,19.027,10.107
			c0,0,0,0,0.457,0c3.086,0,6.203-0.259,9.324-0.465c5.273-0.396,10.555-0.724,15.758-0.724c5.695,0,10.91,0.362,15.941,1.136
			c10.488,1.585,19.582,4.685,26.895,7.182c2.758,0.93,5.508,1.894,8.297,2.686c3.492,0.982,7.051,1.826,10.613,2.687
			c5.07,1.223,5.07,1.223,5.07,1.223c5.535,1.498,10.762,2.894,11.621,3.099c0.867,0.242,9.855,2.617,19.988,5.27
			c0,0,0,0,10.363,7.576c5.422,3.961,9.473,4.787,13.891,4.787c5.027,0,11.422-1.17,19.535-3.547
			c20.691-6.078,39.738-9.057,58.25-9.057c38.129,0,38.129,0,38.129,0c35.625,21.023,75.773,47.49,89.23,58.803
			c13.449,11.33,10.445,25.434-6.684,31.357c-17.121,5.939-34.309,12.07-38.191,13.637c0,0,0,0-3.996,1.844
			c-11.23,5.131-26.625,12.156-45.797,12.156c-7.582,0-7.582,0-7.582,0c-8.098-1.773-27.703,0.482-43.555,5.027
			c0,0,0,0-12.273,2.137c-12.34,2.117-22.992,3.959-28.598,8.213c-11.855,9.006-29.273,14.826-44.371,14.826
			c-8.898,0-17.117-1.877-24.426-5.58c-2.563-1.291-5.922-2.496-13.164-2.496c-5.832,0-12.773,0.775-20.117,1.602
			c-9.039,1.033-19.281,2.17-30.152,2.17c-4.723,0-9.152-0.207-13.551-0.621c-2.914-0.309-6.027-0.447-9.23-0.447
			c-8.938,0-18.668,1.137-28.129,3.271c-8.688,1.963-17.68,5.941-24.035,10.643c-18.41,13.654-32.969,24.451-54.301,24.469
			c-0.008,0-0.008,0-0.008,0c-0.004,0-6.703-1.619-14.891-3.582c-8.191-1.963-38.84-10.383-56.035-7.473c0,0,0,0-13.945,3.855
			c-10.082,2.807-21.519,8.387-32.207,15.688c-22.602,15.48-22.602,15.48-22.602,15.48c-30.391,13.344-61.559,26.104-69.254,28.342
			C476.794,766.4,466.533,763.404,461.689,757.514z"/>
	</g>
	<g opacity="0.3">
		<path fill-rule="evenodd" clip-rule="evenodd" fill="#C1272D" d="M337.224,1075.229c-13.262,2.17-40.219-0.26-59.906-5.441
			c0,0,0,0-10.934-16.377c-3.289-4.941-3.289-4.941-3.289-4.941c-2.879-5.389-8.922-10.176-13.418-10.658
			c-4.508-0.465-10.254-3.307-12.781-6.303c-2.523-2.961-10.906-11.744-18.625-19.475c0,0,0,0,0.203-16.738
			c0.016-2.1,0.016-2.1,0.016-2.1c-5.855-6.285-11.473-12.346-12.488-13.449c-1.012-1.102-5.262-5.51-9.438-9.814
			c0,0,0,0-3.922-3.805c-6.656-6.475-14.191-13.828-21.09-22.334c-8.676-10.762-21.746-26.949-25.023-48.025
			c-1.852-11.863-8.992-20.559-28.297-34.42c-1.82-1.293-3.672-2.584-5.508-3.84c-14.313-9.92-14.313-9.92-14.313-9.92
			c-16.305-24.83-38.09-73.371-48.41-107.895c0,0,0,0,2.949-20.957c0.77-5.492,1.496-10.658,1.75-15.135
			c2.883-51.539,2.883-51.539,2.883-51.539c28.906-15.188,52.801-27.809,53.098-28.066c0,0,0,0,0.277-0.225
			c2.441-1.98,2.441-1.98,2.441-1.98c2.805-2.066,8.367-5.992,12.359-8.729c3.996-2.738,11.074-3.893,15.734-2.584
			c4.66,1.326,13.176,3.875,18.922,5.648c0,0,0,0,4.762,1.652c3.953,1.377,3.953,1.377,3.953,1.377
			c4.004,1.121,7.414,2.051,7.594,2.033c0.172,0,3.527,0.412,7.457,0.895c3.934,0.5,13.598,2.67,14.797,1.568
			c1.203-1.104,7.633,1.48,14.285,5.717c6.648,4.252,14.758,9.367,18.008,11.363c0,0,0,0,2.973,1.791
			c8.172,4.941,17.434,10.539,26.293,17.686c15.461,12.482,24.852,26.379,27.941,41.291c3.828,18.459,8.223,42.877,8.129,67.775
			c-0.078,19.439-0.078,19.439-0.078,19.439c8.688,22.301,16.316,41.879,16.941,43.48c0.633,1.602,6.879,17.287,13.879,34.852
			c0,0,0,0,0.98,19.51c1.457,28.842,1.457,28.842,1.457,28.842c9.52,8.352,24.359,19.406,32.977,24.52
			c8.621,5.115,11.699,16.479,6.848,25.244c-4.863,8.781-9.152,16.564-9.547,17.34c-0.387,0.775,6.047,14.205,14.715,28.791
			c0,0,0,0-1.516,14.877c-1.637,16.084-10.723,30.822-25.586,41.533C337.224,1075.229,337.224,1075.229,337.224,1075.229z"/>
	</g>
	<g opacity="0.3">
		<path fill-rule="evenodd" clip-rule="evenodd" fill="#C1272D" d="M180.74,560.318c-9.559,0.311-25.047,0.328-34.418,0.053
			c0,0,0,0-8.066-0.5c-7.52-0.465-7.52-0.465-7.52-0.465c-7.719-0.225-19.684-0.43-26.59-0.43s-14.879-5.219-17.719-11.607
			c-2.828-6.371-5.828-13.189-6.652-15.135c0,0,0,0-0.797-1.842c-2.469-5.701-5.273-12.158-7.652-19.441
			c-1.625-4.977-1.625-4.977-1.625-4.977c-0.363-4.546-1.121-8.988-1.688-9.867c0,0,0,0-0.52-0.826
			c-6.117-9.539-14.496-22.626-15.418-39.896c-0.934-17.479,2.012-33.939,4.605-48.438c0.93-5.2,0.93-5.2,0.93-5.2
			c0.914-5.717,2.238-14.585,2.949-19.664c0.703-5.098,4.949-11.33,9.43-13.845c4.488-2.497,10.809-6.01,14.047-7.8
			c0,0,0,0,2.891-1.551c5.391-2.927,10.488-5.664,14.809-8.438c1.961-1.273,1.961-1.273,1.961-1.273
			c3.926-3.014,9.547-10.9,12.488-17.479c2.941-6.611,2.008-36.384-13.664-55.222c-15.672-18.821-2.973-31.425,28.223-28.033
			c31.191,3.409,58.012,4.821,59.594,3.134c0,0,0,0,1.41-1.498c12.762-13.638,25.965-27.74,43.27-38.192
			c17.93-10.831,17.93-10.831,17.93-10.831c16.398-18.424,30.211-33.939,30.707-34.49c0.496-0.568,5.109-4.977,10.258-9.797
			c0,0,0,0,3.789-2.859c0.996-0.74,0.996-0.74,0.996-0.74c1.145-0.896,13.863-11.244,28.285-22.988
			c14.418-11.76,28.145-6.302,30.508,12.157c2.363,18.46,4.879,37.813,5.582,43.048c0,0,0,0,0.633,4.461
			c1.453,10.245,2.832,19.939,3.563,30.254c2.961,41.447-7.801,76.316-32.898,106.604c-5.113,6.183-9.152,18.442-13.059,30.289
			c-2.195,6.663-4.465,13.569-7.23,20.56c-11.168,28.291-19.438,49.988-26.813,70.41c-0.566,1.566-1.309,4.701-1.684,10.865
			c-0.363,5.958-0.277,12.432-0.184,19.32c0.047,3.306,0.047,3.306,0.047,3.306c0.02,3.651,0.039,9.315,0.039,12.64
			c0,3.322-1.574,8.213-3.5,10.916c-1.926,2.704-9.082,9.351-15.906,14.809c-6.828,5.459-23.527,14.104-23.578,16.359
			c-0.059,2.289-5.027,6.303-11.059,8.936C225.412,547.766,190.294,560.01,180.74,560.318z"/>
	</g>
	<g opacity="0.8">
		<path fill-rule="evenodd" clip-rule="evenodd" fill="#C1272D" d="M475.251,489.892c4.785-7.267,19.758-14.671,33.27-16.462
			c0,0,0,0,10.691,13.018c8.555,10.418,8.555,10.418,8.555,10.418c16.152,6.01,44.711,19.252,63.465,29.41c0,0,0,0,20.164-12.828
			c4.012-2.548,4.012-2.548,4.012-2.548c7.523,2.29,19.715,6.939,27.094,10.297c7.383,3.375,37.672,19.011,50.898,27.224
			c0,0,0,0,14.172-10.727c1.461-1.086,1.461-1.086,1.461-1.086c2.5,0.156,13.164,1.637,23.699,3.254
			c10.527,1.619,42.25,7.457,47.211,9.076c4.961,1.635,25.086,7.609,33.633,9.865c0,0,0,0,7.652,2.428
			c5.77,1.826,12.32,3.084,16.824,6.717c20.473,16.443,20.473,16.443,20.473,16.443c24.789-4.82,61.934-11.209,82.551-14.24
			c20.609-3.029,56.945,36.334,38.402,48.318c0,0,0,0-20.398-12.055c-2.543-1.498-2.543-1.498-2.543-1.498
			c-3.629,0.053-19.828,2.326-35.996,5.08c-16.164,2.756-57.09,26.914-61.422,29.049c-4.324,2.152-25.078,1.172-40.574,0.93
			c-15.492-0.24-63.332-3.443-72.109-3.461c-8.781,0-42.891,8.059-57.328,13.311c0,0,0,0-10.328,8.42
			c-26.621,21.697-26.621,21.697-26.621,21.697c-10.965-14.051-30.207-23.797-42.766-21.68
			c-12.558,2.102-57.449,16.031-73.238,22.85c0,0,0,0-12.223,9.195c-18.703,14.051-18.703,14.051-18.703,14.051
			c-22.551,10.986-43.789,16.221-47.18,11.693c-3.398-4.529-21.879-41.965-35.332-43.721c-13.449-1.756-50.383-20.801-55.535-26.707
			c-5.148-5.906-28.527-17.752-38.938-24.4c-10.418-6.662-30.73-35.746-19.836-44.27c10.891-8.49,44.73-34.697,52.191-40.328
			c7.461-5.613,34.691-23.332,44.512-26.19C414.935,507.576,470.458,497.176,475.251,489.892z"/>
	</g>
	<g opacity="0.8">
		<path fill-rule="evenodd" clip-rule="evenodd" fill="#C1272D" d="M129.447,658.176c5.664-5.027,21.961-4.631,36.211,0.861
			c0,0,0,0,11.184-0.275c11.707-0.275,11.707-0.275,11.707-0.275c9.145,5.664,26.512,16.049,38.605,23.074c0,0,0,0,9.789,7.887
			c6.27,5.063,13.219,12.328,14.734,19.664c4.09,19.699,7.426,39.982,7.355,60.043c-0.105,26.588,9.016,49.971,18.324,73.906
			c5.734,14.723,12.668,30.029,13.438,45.389c1.531,30.238,1.531,30.238,1.531,30.238c19.57,24.33,30.953,58.787,25.297,76.592
			c0,0,0,0,13.371,14.533c9.762,10.605,3.543,21.041-5.277,27.395c-9.328,6.717-20.813,6.234-28.07-4.648
			c-5.605-8.42-5.605-8.42-5.605-8.42c-5.371-11.383-12.949-21.025-16.844-21.455c-3.887-0.396-16.742-3.256-19.172-5.391
			c0,0,0,0,0.023-1.549c0.164-19.08-12.773-30.857-24.117-43.307c-10.082-11.055-10.082-11.055-10.082-11.055
			c-11.59-11.658-28.023-29.963-36.516-40.639c0,0,0,0-1.676-10.744c-4.363-28.016-4.363-28.016-4.363-28.016
			c-21.531-17.15-47.02-35.988-56.648-41.895s-24.531-58.219-31.961-86.992c0,0,0,0,1.535-27.396
			c1.207-21.645,7.109-39.775,31.492-46.045C129.447,658.176,129.447,658.176,129.447,658.176z"/>
	</g>
	<g opacity="0.8">
		<path fill-rule="evenodd" clip-rule="evenodd" fill="#C1272D" d="M247.443,467.008c0.254,11.588-8.957,20.938-20.477,20.818
			c-11.523-0.156-34.742,28.979-50.82,30.58c-16.082,1.585-63.02-3.408-66.531-11.261c0,0,0,0-2.563-7.835
			c-1.246-3.822,0.648-8.834-0.977-12.328c-5.297-11.435-15.867-22.18-16.473-33.596c-1.004-18.7-1.004-18.7-1.004-18.7
			c4.344-21.007,15.777-42.376,25.402-47.474c0,0,0,0,8.043-5.148c10.77-6.922,20.945-14.12,24.82-27.947
			c1.891-6.75,6.781-13.879,12.367-18.132c16.379-12.449,16.379-12.449,16.379-12.449c-7.25-18.614-6.129-33.062,2.488-32.114
			c8.609,0.947,31.086-6.096,40.441-16.703c9.348-10.59,54.164-45.872,76.473-64.417c0,0,0,0,17.602-19.769
			c3.219-3.615,3.219-3.615,3.219-3.615c4.777-3.443,10.629,6.698,13.004,22.557c0,0,0,0,0.953,13.311
			c2.113,29.617,2.113,29.617,2.113,29.617c-14.559,27.689-30.551,59.407-35.531,70.479c-4.988,11.09-25.59,62.248-35.789,88.354
			c0,0,0,0-8.66,23.969c-2.426,6.715-3.414,14.172-3.848,21.352C247.443,467.008,247.443,467.008,247.443,467.008z"/>
	</g>
	<g>
		<path fill-rule="evenodd" clip-rule="evenodd" fill="#F15A24" d="M430.853,620.621c-19.414-20.836-26.859-43.893-16.539-51.211
			c10.316-7.301,53.168-24.777,71.082-26.965c17.918-2.17,68.91,14.602,75.301,17.305c6.383,2.688,26.914,9.281,31.012,9.816
			c4.102,0.533,20.378,9.367,27.808,16.529c0,0,0,0-1.02,10.504c-1.078,11.107-1.078,11.107-1.078,11.107
			c-9.555,3.994-30.863,10.193-47.355,13.775C553.572,625.08,450.279,641.49,430.853,620.621z"/>
	</g>
	<g>
		<path fill-rule="evenodd" clip-rule="evenodd" fill="#F15A24" d="M134.525,723.369c16.617-5.424,48.113-3.668,69.98,3.959
			c0,0,0,0,1.496,15.619c2.438,25.52,15.219,46.164,25.379,68.291c4.309,9.385,4.309,9.385,4.309,9.385
			c-2.074,10.865-12.977,21.369-24.227,23.35c0,0,0,0-10.504-7.732c-32.773-24.158-47.965-59.164-60.465-95.516
			C134.525,723.369,134.525,723.369,134.525,723.369z"/>
	</g>
	<g>
		<path fill-rule="evenodd" clip-rule="evenodd" fill="#F15A24" d="M141.669,403.777c33.262-21.094,61.969-12.139,63.77,19.906
			c0,0,0,0-9.668,27.465c-4,11.33-17.863,18.7-32.223,14.653c-14.406-4.099-18.57-15.876-19.555-29.601
			C141.669,403.777,141.669,403.777,141.669,403.777z"/>
	</g>
	<g>
		<path fill-rule="evenodd" clip-rule="evenodd" fill="#FBB03B" d="M464.849,566.174c12.199-3.807,37.402-2.084,55.996,3.805
			c0,0,0,0,15.16,8.73c14.828,8.541,14.063,23.951-1.531,28.67c-23.082,6.992-23.082,6.992-23.082,6.992
			c-26.645,3.186-56.457-1.361-66.238-10.109c0,0,0,0-3.055-12.242c-2.785-11.176,2.734-18.545,12.996-22.299
			C464.849,566.174,464.849,566.174,464.849,566.174z"/>
	</g>
</g>
</svg>
