<?xml version="1.0" encoding="utf-8"?>
<!-- Generator: Adobe Illustrator 16.0.0, SVG Export Plug-In . SVG Version: 6.00 Build 0)  -->
<!DOCTYPE svg PUBLIC "-//W3C//DTD SVG 1.1//EN" "http://www.w3.org/Graphics/SVG/1.1/DTD/svg11.dtd">
<svg version="1.1" id="Capa_1" xmlns="http://www.w3.org/2000/svg" xmlns:xlink="http://www.w3.org/1999/xlink" x="0px" y="0px"
	 width="1200px" height="1200px" viewBox="0 0 1200 1200" enable-background="new 0 0 1200 1200" xml:space="preserve">
<g>
	<g opacity="0.8">
		<path fill-rule="evenodd" clip-rule="evenodd" fill="#C1272D" d="M1058.979,611.346c0.006,0,1.244-10.213,2.754-22.691
			c0,0,0,0,12.842,0.283c6.658,0.142,6.658,0.142,6.658,0.142c7.83,0.818,10.949,4.621,6.939,8.443
			c-4.02,3.832-18.748,13.823-23.963,13.823C1064.209,611.346,1064.209,611.346,1058.979,611.346L1058.979,611.346z"/>
	</g>
	<g>
		<g opacity="0.3">
			<path fill-rule="evenodd" clip-rule="evenodd" fill="#C1272D" d="M1106.91,670.491c-6.939-33.674,91.729-65.931,11.459-72.332
				c-8.248-0.657-16.537-1.709-24.824-1.779c-14.219-0.243-11.979-25.938-24.41-11.215c-6.611,7.827-23.244,20.882-33.484,10.082
				c-4.748-5.016-19.238-34.27-25.973-25.836c-1.973,2.478-1.973,2.478-1.973,2.478c-15.697,0.253-38.859-2.963-51.473-7.159
				c0,0,0,0-10.85-2.053c-12.512-2.377-25.172-1.214-37.508,1.294c-24.734,5.006-31.604-40.63-62.322-40.397
				c-11.809,0.081-19.963,16.351-26.529-0.182c-14.729-37.071-24.33,4.408-37.395-5.451c-6.174-4.661-26.986-2.518-27.297-3.519
				c-2.021-6.674,0.172-18.091-5.406-23.237c-10.051-9.293-28.596,7.493-35.633,12.579c-26.828,19.354-8.721-1.517-34.572-0.546
				c-14.732,0.557-6.35,28.647-20.719,28.647c-4.02,0-9.451-21.326-13.371-23.764c-24.299-15.138-24.299-15.138-24.299-15.138
				c-19.744,3.348-44.064,9.364-54.041,13.349c-9.979,3.983-34.162,3.842-52.309,0.424c0,0,0,0-9.324-2.184
				c-25.801-6.058-50.832-12.853-77.15-17.181c-25.176-4.146-42.523-8.757-66.125-18.899c-23.109-9.94-16.895-20.184-34.885-34.836
				c-16.369-13.348-39.613-10.254-54.943,2.983c-3,2.508-26.727,18.637-27.691,14.773c-4.482-17.817-19.695-10.092-27.244-26.514
				c-6.07-13.217,21.141-50.146,6.158-57.699c-19.014-9.566-76.137,39.255-89.449,47.719c-9.045,5.754-39.451,14.845-43.213,26.18
				c-3.912,11.801-3.912,11.801-3.912,11.801c-0.063,16.271-7.029,53.433-15.479,82.575c0,0-1.926,6.653-7.326,36.838
				c-3.711,20.76,5.092,17.13-7.311,32.793c-14.902,18.849,1.961,27.839,4.234,45.029c2.49,18.96,2.49,18.96,2.49,18.96
				c12.309,15.128,22.072,38.962,21.699,52.957c0,0,0,0-1.094,9.171c-2.096,17.636,2.252,13.075,9.424,29.021
				c9.617,21.397-37.018,25.048-29.91,44.584c7.348,20.204,72.715-2.376,82.771,10.456c20.424,26.181,75.797,25.806,90.031-6.188
				c7.801-17.524-0.189-13.984,21.777-10.607c16.686,2.559,30.811-7.008,37.738-21.336c3.766-7.776,3.766-7.776,3.766-7.776
				c5.754-3.61,29.395-8.12,52.545-10.041c0,0,0,0,25.531-6.007c16.566-3.883,28.781-6.978,44.424-14.076
				c11.887-5.35,23.275,2.7,34.875,2.689c22.035,0,44.723-16.462,66.375-20.932c18.877-3.893,34.5-2.134,53.777-0.455
				c29.566,2.579,54.984-17.524,84.303-14.218c12.406,1.396,24.271,5.946,36.732,6.815c7.477,0.517,18.35-10,22.602-7.958
				c7.67,3.65,18.182-5.188,23.773-9.06c6.125-4.228,26.566,2.962,32.951,2.962c14.74,0,20.521-12.154,34.002-11.346
				c16.76,1.032,31.584-9.98,48.459-9.596c5.324,0.121,6.844,0.697,11.723,0.697c12.904,0-0.969,9.697,5.395,12.104
				c19.633,7.422,42.619-24.593,60.885-19.223c19.613,5.804,15.133,29.648,43.189,21.053c20.893-6.4,25.455-14.764,48.025-16.554
				c15.51-1.224,19.668,18.616,35.326,9.647C1070.523,682.069,1107.02,671.026,1106.91,670.491z"/>
		</g>
		<g opacity="0.8">
			<path fill-rule="evenodd" clip-rule="evenodd" fill="#C1272D" d="M1037.977,640.862c-0.006,0-1.121,3.257-2.482,7.261
				c-1.357,3.994-16.967,13.429-18.432,11.285s-10.02-6.492-14.949-3.752c-4.93,2.73-14.014-9.616-18.869-9.061
				c-4.848,0.566-18.703,3.186-18.775,4.46c-0.068,1.264-4.346,7.766-9.313,10.9c-4.973,3.146-22.057,9.566-24.742,5.905
				c-2.688-3.66-13.51-15.057-17.391-16.25c-3.871-1.183-17.832-2.993-21.748-1.193c-3.918,1.811-16.689,5.502-15.898,2.458
				s0.285-10.193-2.494-10.598c0,0,0,0-1.051,0.839c-12.543,10.062-12.543,10.062-12.543,10.062
				c-16.592,1.274-39.102,3.954-50.006,5.937c0,0,0,0-9.957,2.366c-5.477,1.304-10.957,4.55-16.27,4.227
				c-11.072-0.688-11.072-0.688-11.072-0.688c-9.455,5.692-20.92,11.224-25.477,12.275c0,0,0,0-3.68-1.183
				c-7.086-2.275-7.086-2.275-7.086-2.275c-8.141-4.126-18.109-5.116-22.152-2.215c-4.039,2.902-20.086,7.867-26.119,4.177
				c0,0,0,0-6.551-1.699c-11.879-3.094-11.879-3.094-11.879-3.094c-0.285,10.628-8.75,17.149-18.813,14.5
				c-10.064-2.649-36.6-9.212-36.814-8.767c-0.215,0.444,0.215,2.659,1.434,3.954c1.225,1.284,2.543,7.311-1.158,9.101
				c0,0,0,0-2.1-0.779c-9.768-3.681-9.768-3.681-9.768-3.681c-9.145,4.247-30.313,9.606-47.045,11.902c0,0,0,0-15.398-0.617
				c-6.805-0.272-6.805-0.272-6.805-0.272c-7.385-2.094-16.729-4.672-20.758-5.733c-4.023-1.052-13.965,7.645-15.596,9.333
				c0,0,0,0-1.557,0.04c-18.297,0.485-18.297,0.485-18.297,0.485c-16.373,9.98-31.215,18.556-32.971,19.052
				c-1.768,0.505-12.564-0.769-23.139-1.648c0,0,0,0-9.592-2.842c-5.916-1.749-5.916-1.749-5.916-1.749
				c-8.717,6.037-21.145,13.984-27.615,17.655c0,0,0,0-8.551-0.627c-8.572-0.627-17.617,4.49-26.361,7.352
				c-4.168,1.365-4.168,1.365-4.168,1.365c-4.396,2.053-11.766,4.601-16.375,5.643c-4.605,1.041-16.828-5.269-21.861-4.349
				c-5.037,0.91-23.688,7.2-25.816,11.124c-2.135,3.934-11.021,20.82-14.514,26.25c0,0,0,0-6.477-1.031
				c-8.254-1.314-8.254-1.314-8.254-1.314c-9.568-2.538-18.553-3.296-19.967-1.688c-1.416,1.598-18.666,5.066-18.877,5.764
				c-0.203,0.688,2.77,11.042,6.213,21.73c0,0,0,0-12.402,6.401c-17.408,8.989-17.408,8.989-17.408,8.989
				c-12.066-7.493-24.006-16.301-26.521-19.576c0,0,0,0-2.02-3.155c-4.396-6.876-10.545-8.171-17.865-5.926
				c-3.578,1.092-7.055,3.165-10.652,3.388c-6.061,0.344-6.061,0.344-6.061,0.344c-8.498-0.688-11.127-5.289-5.84-10.224
				c5.285-4.925,3.586-27.11-3.432-35.099c0,0,0,0-5.756-7.129c-0.807-1.012,0.143-3.418,0.229-5.178
				c0.662-12.832,2.348-25.734,1.508-38.476c-0.404-6.188-3.99-14.45-8.848-17.596c-11.766-7.634-13.709-18.464-15.24-30.568
				c-0.658-5.178-0.658-5.178-0.658-5.178c-2.764-5.318-6.469-12.286-8.23-15.491c-1.764-3.205,5.871-13.449,8.453-15.785
				c0,0,0,0,1.578-2.608c4.633-7.655,4.633-7.655,4.633-7.655c-1.029-9.272-2.775-19.931-3.867-23.672
				c-1.1-3.752,9.201-16.331,12.865-21.205c0,0,0,0-1.053-3.186c-2.973-8.959-0.02-13.965,6.697-19.344
				c4.758-3.803,4.758-3.803,4.758-3.803c4.338-6.38,6.59-16.896,5.006-23.379c-1.59-6.472-3.152-24.977-0.939-26.281
				c2.221-1.314,7.549-8.281,6.25-12.194c-1.291-3.914,5.182-23.875,18.07-33.188c12.889-9.303,51.984-29.749,50.783-26.463
				c-1.195,3.276,2.037,23.652,9.658,38.486c0,0,0,0-3.102,17.009c-1.531,8.353,4.865,12.245,13.309,9.04
				c3.42-1.294,3.42-1.294,3.42-1.294c4.336-2.649,12.531-2.286,18.209,0.818c5.674,3.104,19.314,13.126,20.086,12.924
				c0.775-0.213,2.93-3.884,4.52-7.676c1.59-3.802,10.469-13.731,13.916-15.744c3.459-2.022,17.596-9.98,24.926-11.871
				c7.334-1.881,17.91,15.269,18.529,18.242c0.623,2.962,10.93,11.841,22.314,16.866c11.391,5.025,44.57,20.093,50.471,22.297
				c0,0,0,0,6.688,0.102c13.393,0.182,13.393,0.182,13.393,0.182c14.643,3.337,27.922,7.604,29.508,9.485
				c1.582,1.871,13.807,6.573,23.197,5.35c9.387-1.214,37.039,6.744,40.973,6.36c0,0,0,0,3.578,0.293
				c5.445,0.444,5.445,0.444,5.445,0.444c5.852,1.234,15.313,4.177,21.023,6.533c5.709,2.355,23.904-8.96,28.963-11.174
				c5.059-2.204,24.01-0.778,28.951-3.62s21.756,5.864,24.912,11.295c3.158,5.42,8.998,27.252,17.271,25.179
				c8.277-2.063,31.826-3.246,32.727-6.967c0.904-3.731,7.725-10.558,13.15-6.866c5.424,3.681,14.738-0.223,15.531-2.649
				c0.791-2.438,5.289-13.561,7.207-14.996c1.91-1.416,9.273-3.873,9.063,0c-0.217,3.893,6.822,13.186,12.219,16.21
				c0,0,0,0,5.043-0.203c5.996-0.252,5.996-0.252,5.996-0.252c7.16-3.135,17.396-3.944,22.74-1.801
				c5.34,2.145,21.986,0.152,23.98,6.25c0,0,0,0,2.457,4.105c1.396,2.336,1.396,2.336,1.396,2.336
				c3.148,1.375,9.326,2.729,13.717,3.013c4.396,0.283,17.104,4.935,19.156,2.438c2.059-2.487,9.568-7.321,12.338-5.431
				c2.77,1.871,10.754,7.291,11.496,7.726c0.748,0.425,7.27,7.221,14.428,14.025c7.16,6.815,21.609,30.013,21.766,27.182
				c0.158-2.821,17.105-13.611,37.449-20.002c0,0,0,0,17.574,10.274c10.074,5.905,10.074,5.905,10.074,5.905
				c9.1-2.559,19.174-2.124,22.395,0.971c3.213,3.084,12.092,10.203,12.855,9.212c0.762-0.991,6.182-1.133,8.836,3.862
				c2.65,4.996,11.551,14.461,14.568,11.235c3.021-3.236,15.037,3.185,13.209,3.974c-1.826,0.778-7.02,5.824-5.053,8.413
				s8.895,7.523,10.904,5.046c2.016-2.478,8.227-7.746,8.227-4.833c0,2.901,4.982,8.241,11.07,6.613
				C1032.842,642.238,1032.842,642.238,1037.977,640.862L1037.977,640.862z"/>
		</g>
		<g>
			<path fill-rule="evenodd" clip-rule="evenodd" fill="#F15A24" d="M392.441,663.604c-1.666,0.931-17.607-3.276-35.422-9.333
				c0,0,0,0-17.031-1.365c-9.779-0.789-9.779-0.789-9.779-0.789c-4.934,6.502-10.645,14.885-12.697,18.616
				c-2.049,3.741-14.504,10.294-16.895,11.629c-2.393,1.325-17.543,10.911-29.492,17.1s-53.588-4.409-63.563-9.101
				c0,0,0,0-9.168-4.065c-2.225-0.98-5.582-2.427-7.117-1.496c-11.902,7.189-11.902,7.189-11.902,7.189
				c-13.754-2.235-30.443-4.723-37.092-5.512c0,0,0,0-4.412-4.984c-5.383-6.078-5.383-6.078-5.383-6.078
				c-6.057-6.542-13.803-16.017-17.217-21.043c-3.418-5.035-4.096-23.672-3.51-26.776c0.594-3.104,2.635-35.928,5.033-66.173
				c0,0,0.381-4.834,12.828-32.824c1.732-3.903,1.732-3.903,1.732-3.903c0.588-4.884,1.51-12.286,2.053-16.452c0,0,0,0,1.73-3.104
				c3.98-7.169,8.4-14.662,18.166-14.389c10.064,0.283,10.064,0.283,10.064,0.283c5.324,8.221,13.076,21.366,17.234,29.203
				c4.154,7.837,19.049,28.202,23.068,27.535c4.01-0.668,15.408,7.594,18.395,8.827c2.986,1.214,14.566-4.884,20.451-8.019
				c5.883-3.145,25.213,0.061,27.197,0.121c1.977,0.051,8.426-1.567,5.945-3.6c-2.473-2.043,8.281-10.213,28.297-14.562
				c0,0,0,0,15.494,13.398c8.857,7.655,8.857,7.655,8.857,7.655c8.221,7.766,23.172,14.864,33.223,15.805c0,0,0,0,7.844,0.415
				c3.709,0.202,3.709,0.202,3.709,0.202c4.025-0.557,13.01-1.669,19.967-2.498c6.955-0.818,31.779,3.782,39.695,5.359
				c0,0,0,0,7.273,1.012c4.33,0.616,9.002-0.283,13.094,0.94c18.756,5.581,18.756,5.581,18.756,5.581
				c20.203-3.983,43.814-7.018,52.469-6.754c8.654,0.282,34.373,0.293,37.895,3.114c3.529,2.831,19.531,7.392,28.609,3.428
				c0,0,0,0,8.184-1.042c21.469-2.75,21.469-2.75,21.469-2.75c18.613,12.418,36.283,23.086,39.264,23.713
				c2.986,0.637,16.637,5.318,19.385,8.483c2.754,3.165,18.037,0.8,18.824-1.476c0.785-2.266,10.803-10.537,19.695-10.982
				c8.9-0.424,40.322,0.213,48.035,2.488c7.715,2.275,30.387,11.063,32.592,12.842c2.201,1.77,3.91,8.808,2.783,10.699
				c-1.125,1.891-5.635,7.26-6.869,7.897c0,0,0,0-1.211,0.161c-21,2.791-41.953,6.624-63.057,7.816
				c-11.469,0.658-23.148-3.711-34.83-4.854c-11.184-1.102-22.525-1.577-33.742-1.092c-5.268,0.223-11.982,1.87-15.305,5.44
				c-7.361,7.897-16.008,8.625-25.646,9.121c-21.705,1.112-21.705,1.112-21.705,1.112c-23.818,2.275-45.654,4.308-48.52,4.5
				c-2.867,0.202-23.992-3.59-41.635-6.158c0,0,0,0-15.445,6.674c-9.611,4.146-9.611,4.146-9.611,4.146
				c-10.803-0.718-29.602-2.295-41.781-3.499C429.541,650.216,394.1,662.664,392.441,663.604z"/>
		</g>
		<g>
			<path fill-rule="evenodd" clip-rule="evenodd" fill="#FBB03B" d="M244.457,559.188c3.318-4.914,9.691-7.18,14.16-5.046
				c4.463,2.144,19.625,6.685,22.291,4.611c2.662-2.063,16.432-10.881,23.178-14.764c0,0,0,0,4.854,5.724
				c3.561,4.206,3.561,4.206,3.561,4.206c0.959,7.038,1.391,14.097,0.959,15.694c-0.43,1.588,2.236,8.717,7.98,9.242
				c0,0,0,0,2.43-1.921c7.396-5.865,15.037-4.672,23.295-3.691c9.875,1.173,20.049,0.344,29.766,2.134
				c6.967,1.274,14.59,4.055,19.809,8.596c9.73,8.463,9.73,8.463,9.73,8.463c12.693,1.699,30.898,2.802,40.457,2.468
				c9.555-0.334,54.164-8.171,77.654-14.399c0,0,0,0,22.014,7.382c2.945,0.98,6.195,1.071,9.18,1.981
				c13.664,4.207,13.664,4.207,13.664,4.207c7.912-2.144,27.541,3.377,43.615,12.286c0,0,0,0,18.043-1.233
				c5.609-0.385,11.459-0.607,16.859,0.616c2.602,0.587,2.602,0.587,2.602,0.587c2.123,3.569,3.211,7.331,2.414,8.353
				c-0.799,1.031-9.213,3.671-17.975,6.026c-8.76,2.356-38.523,12.529-47.031,16.563c-8.514,4.035-34.512-2.204-36.301-2.315
				c-1.783-0.121-10.785,2.022-16.896,3.125c-6.104,1.092-26.301-4.035-32.152-5.087c-5.85-1.052-24.148,6.785-29.727,9.273
				c-5.594,2.487-35.795,0.516-54.842-0.577c0,0,0,0-17.223-0.07c-18.104-0.071-18.104-0.071-18.104-0.071
				c-19.918,1.79-41.213,4.541-47.328,6.139c-6.115,1.587-33.914,22.418-50.24,35.675c0,0,0,0-15.514,11.174
				c-8.486,6.107-8.486,6.107-8.486,6.107c-15.318-7.32-48.326-25.3-73.355-39.942c0,0,0,0-25.086,10.567
				c-2.881,1.203-5.816,2.487-8.855,3.084c-3.648,0.718-3.648,0.718-3.648,0.718c-3.83,0.172-12.736-9.646-19.789-21.821
				c0,0,0,0-5.521-11.043c-2.461-4.914-2.461-4.914-2.461-4.914c-1.035-6.098-0.178-24.795,1.9-41.551
				c2.076-16.755,21.18-63.695,25.133-70.127c0,0,0,0,7.711-1.253c10.037-1.628,10.037-1.628,10.037-1.628
				c5.234,7.887,12.299,17.878,15.693,22.195s19.371,12.802,24.609,14.207C212.764,560.543,241.137,564.092,244.457,559.188z"/>
		</g>
		<path fill-rule="evenodd" clip-rule="evenodd" fill="#FFF6A1" d="M205.65,567.621c1.621,5.218,12.492,6.745,24.156,3.418
			c0,0,0,0,10.826-1.365c15.508-1.941,31.23-3.246,46.838-3.014c10.898,0.162,10.898,0.162,10.898,0.162
			c-1.094,9.465,8.668,16.078,21.689,14.692c0,0,0,0,11.508,0.566c14.123,0.678,14.123,0.678,14.123,0.678
			c-2.9,9.465-8.25,20.922-11.885,25.492c-3.643,4.561-9.611,19.759-10.072,20.71c-0.457,0.95-14.496,16.624-29.668,33.178
			c0,0,0,0-14.195,14.652c-7.115,7.341-20.543,7.766-29.492,1.122c-4.471-3.327-4.471-3.327-4.471-3.327
			c-3.992-4.863-11.637-13.227-16.992-18.575c0,0,0,0-7.58,0.081c-9.494,0.091-16.248-3.944-22.543-11.326
			c-10.445-12.256-10.445-12.256-10.445-12.256c-10.797,5.825-22.225,13.045-25.393,16.048c-3.166,3.004-21.205-3.286-29.867-9.202
			c0,0,0,0-1.254-10.324c-0.594-4.904-0.594-4.904-0.594-4.904c0.727-5.531,2.51-14.692,3.961-20.355
			c1.447-5.673,5.684-34.623,12.379-51.025c0,0,0,0,14.693,0.698c13.984,0.646,27.727,8.181,41.314,13.388
			C205.65,567.621,205.65,567.621,205.65,567.621z"/>
		<path fill-rule="evenodd" clip-rule="evenodd" fill="#FFF6A1" d="M500.994,613.52c-2.646-1.588,1.131-8.039,8.389-14.329
			c7.262-6.3,36.289,2.366,45.668,6.887c0,0,0,0,10.873-1.042c9.168-0.89,9.168-0.89,9.168-0.89
			c10.426,5.198,11.807,14.491,3.068,20.669c0,0,0,0-9.313-0.769c-19.385-1.598-19.385-1.598-19.385-1.598
			C528.244,619.536,503.639,615.097,500.994,613.52z"/>
	</g>
</g>
</svg>
