<?xml version="1.0" encoding="utf-8"?>
<!-- Generator: Adobe Illustrator 16.0.0, SVG Export Plug-In . SVG Version: 6.00 Build 0)  -->
<!DOCTYPE svg PUBLIC "-//W3C//DTD SVG 1.1//EN" "http://www.w3.org/Graphics/SVG/1.1/DTD/svg11.dtd">
<svg version="1.1" id="Capa_1" xmlns="http://www.w3.org/2000/svg" xmlns:xlink="http://www.w3.org/1999/xlink" x="0px" y="0px"
	 width="1200px" height="1200px" viewBox="0 0 1200 1200" enable-background="new 0 0 1200 1200" xml:space="preserve">
<g>
	<g opacity="0.3">
		<path fill-rule="evenodd" clip-rule="evenodd" fill="#C1272D" d="M228.84,827.066c-9.398-5.141-18.934-10.27-21.191-11.392
			c0,0,0,0-1.945-0.892c-7.258-3.346-16.289-7.508-23.676-15.975c-2.023-2.318-2.023-2.318-2.023-2.318
			c-6.824-2.438-12.707-4.528-13.074-4.659c-0.363-0.128-4.688-2.256-9.609-4.735c-4.922-2.478-15.852-9.422-16.691-10.005
			c-0.836-0.594-11.953-8.443-24.695-17.442c0,0,0,0-13.457-9.767c-0.473-0.349-0.973-0.663-1.469-0.992
			c-4.711-3.093-13.477-8.858-18.09-19.437c-2.496-5.721-6.23-11.891-10.188-18.42c-10.93-18.035-24.531-40.478-20.758-69.386
			c0.438-3.354-0.113-8.262-0.699-13.464C50,616.836,50,616.836,50,616.836c2.563-16.866,4.313-31.958,3.891-33.544
			c0,0,0,0-0.258-1.357c-2.488-12.836-10.043-51.87,26.5-83.485c12.242-10.585,14.609-15.743,14.465-20.633
			c-0.375-12.643,6.457-29.351,22.336-36.151c2.953-1.27,4.609-1.984,6.648-20.086c1.074-9.528,6.129-16.205,8.848-19.791
			c0.391-0.523,0.391-0.523,0.391-0.523c0.473-0.65,3.824-5.892,7.453-11.65c3.629-5.755,13.254-8.211,21.395-5.47
			c8.137,2.742,24.207-3.727,35.719-14.385c0,0,0,0,17.707,0c17.984,0,32.191,10.065,44.102,19.5
			c2.633,2.091,5.406,4.036,8.168,5.986c3.602,2.551,7.195,5.108,10.637,7.83c4.199,3.322,8.168,6.848,12.355,10.598
			c1.633,1.464,1.633,1.464,1.633,1.464c1.895,1.672,6.488,5.708,10.219,8.973c3.727,3.257,5.703,9.82,4.387,14.583
			c-1.316,4.76,3.824,9.479,11.426,10.487c7.605,1.006,25.656-4.806,40.109-12.92c0,0,0,0,18.18,0c17.109,0,17.109,0,17.109,0
			c17.293,7.957,37.711,12.776,45.379,10.722c0,0,0,0,7.48,0c11.941,0,22.438,3.164,30.871,5.704
			c4.344,1.308,9.746,2.937,12.125,2.95c16.391,0.124,25.84,11.017,28.945,14.593c11.523,12.723,25.219,18.179,44.84,18.179
			c3.434,0,3.434,0,3.434,0c4.113-0.278,10.91-0.814,15.105-1.187c4.191-0.378,9.18,0.858,11.086,2.745
			c1.906,1.877,4.602,1.891,6,0.021c1.395-1.871,7.934-0.999,14.531,1.937c6.598,2.926,20.977,10.34,31.953,16.477
			c0,0,0,0,8.074,5.607c6.648,4.615,6.648,4.615,6.648,4.615c5.656,3.315,14.438,1.086,19.512-4.957c0,0,0,0,6.223-5.122
			c8.848-7.286,18.434-11.878,27.703-16.322c3.473-1.663,3.473-1.663,3.473-1.663c4.094-2.064,11.531-5.922,16.531-8.567
			c4.996-2.654,13.656-1.511,19.23,2.531c5.578,4.042,13.035,6.965,16.566,6.485c0,0,0,0,2.742,0
			c10.035,0,20.105,3.006,30.785,9.177c1.758,0.928,8.449,2.145,13.34,3.023c5.195,0.942,5.195,0.942,5.195,0.942
			c6.395,1.344,14.141,3.036,17.219,3.764c3.078,0.73,6.895,3.037,8.488,5.135c1.602,2.102,8.32,9.274,14.934,15.943
			c0,0,0,0,3.617,11.895c2.609,8.563,2.609,8.563,2.609,8.563c13.836,6.733,26.332,12.793,27.773,13.457
			c1.438,0.664,3.641,1.692,4.891,2.286c1.25,0.583,8.699,4.129,16.539,7.87c0,0,0,0,4.184,0c0.547,0,1.43-0.05,2.777-0.479
			c3.723-1.19,7.609-1.783,11.586-1.783c8.895,0,8.895,0,8.895,0c6.086,2.607,11.363,4.863,11.727,5.021
			c0.367,0.151,4.219,1.656,8.566,3.342c0,0,0,0,3.414,1.565c0.352,0.157,0.352,0.157,0.352,0.157
			c0.438,0.201,4.848-0.188,9.797-0.858c0,0,0,0,4.539,0c15.098,0,27.457,4.421,37.383,7.98c3.719,1.334,7.234,2.591,10.219,3.362
			c10.125,2.608,17.797,3.774,24.875,3.774c4.625,0,8.992-0.516,13.359-1.579c4.43-1.079,9.137-1.622,13.996-1.622
			c12.699,0,12.699,0,12.699,0c11.504,3.62,21.574,6.793,22.379,7.048c0.805,0.251,15.203,13.937,31.992,30.406c0,0,0,0-4.23,16.993
			c-4.367,17.552-21.516,25-28.836,28.18c-5.441,2.363-11.387,3.513-18.16,3.513c-1.25,0-1.25,0-1.25,0
			c-1.395-0.05-2.805-0.101-3.133-0.106c-0.32-0.014-1.75,0-3.172,0.029c0,0,0,0-1.379,0c-4.719,0-9.449-0.201-14.176-0.408
			c-3.738-0.164-7.469-0.336-11.191-0.336c-10.203,0-14.344,1.509-18.039,4.105c-9.344,6.58-21.008,10.203-32.848,10.203
			c-10.012,0-10.012,0-10.012,0c-10.102-4.136-24.367-6.485-31.699-5.222c0,0,0,0-6.16,0c-9.895,0-9.895,0-9.895,0
			c-9.977-3.171-27.59-4.229-39.141-2.343s-52,8.563-63.129,10.4c-11.133,1.836-21.488,1.642-23.027-0.443
			c-1.539-2.088-11.883-2.449-22.992-0.814c-11.113,1.643-34.113,15.787-51.121,31.441c0,0,0,0-9.398,3.999
			c-16.594,7.065-33.25,10.646-49.492,10.646c-12.094,0.006-23.785-2.008-34.762-5.973c-3.145-1.137-5.141-1.264-6.363-1.264
			c-3.949,0-9.266,1.592-16.563,4.156c-10.031,3.542-21.434,5.342-33.863,5.342c-7.813,0.007-15.758-0.707-23.625-2.111
			c-15.313-2.738-29.152-7.267-43.805-12.066c-5.797-1.9-5.797-1.9-5.797-1.9c-6.742-2.114-13.391-4.192-14.777-4.615
			c-1.395-0.418-6.422,4.602-11.172,11.158c0,0,0,0-5.582,6.022c-9.852,10.648-9.852,10.648-9.852,10.648
			c-17.258,3.794-31.699,6.888-32.078,6.888c-0.387-0.007-12.008-2.581-25.828-5.715c-13.809-3.131-53.484-23.23-65.625-19.828
			c-12.145,3.392-40.137,24.286-36.473,35.343c3.66,11.058-19.203,48.184-22.871,52.169c-3.672,3.979-11.07,5.985-16.453,4.457
			c-5.379-1.535-11.875-3.228-14.434-3.771c0,0,0,0-2.754-0.493c-5.863-1.035-5.863-1.035-5.863-1.035
			c-8.289-2.45-16.871,0.992-19.066,7.655C247.719,830.968,238.234,832.211,228.84,827.066z"/>
	</g>
	<g opacity="0.8">
		<path fill-rule="evenodd" clip-rule="evenodd" fill="#C1272D" d="M148.098,421.687c2.875-3.72,9.086-5.363,13.805-3.663
			c4.719,1.712,16.016,4.819,17.457,4.143c1.453-0.67,8.293-8.437,14.305-15.756c6.012-7.323,35.363,7.193,38.641,9.669
			c3.277,2.487,13.832,11.359,16.5,13.836c2.664,2.48,9.301,13.467,8.086,18.179c-1.219,4.716-8.07,17.958-12.738,19.815
			c-4.668,1.85-13.766,8.721-3.77,8.741c9.996,0.023,34.785-1.485,45.586,0.057c10.801,1.538,44.988,0.157,56.254-5.869
			c11.27-6.03,66.598,14.456,77.477,14.254c10.875-0.208,41.82,1.099,43.902,2.695c0,0,0,0,1.555,1.833
			c19.996,23.623,19.996,23.623,19.996,23.623c31.215,2.078,59.699,6.895,63.289,10.708c3.594,3.804,16.27,13.591,18.059,11.027
			c1.785-2.558,16.59-3.6,27.219,5.835c10.629,9.435,53.641,7.615,60.539-2.872c0,0,0,0,8.457-7.454
			c8.121-7.166,8.121-7.166,8.121-7.166c12.66-6.086,25.402-9.22,28.313-6.964c2.906,2.259,16.293,8.335,20.32,6.18
			c4.027-2.158,22.469,3.878,28.266,5.527c5.793,1.659,27.563,8.513,29.648,10.5c2.09,1.978,11.703,17.472,19.035,26.213
			c7.332,8.745,39.004,29.116,46.93,33.543c7.922,4.414,35.578,2.849,39.691,3.965c0,0,0,0,3.746,1.3
			c7.754,2.691,16.742,9.462,22.969,7.479c18.297-5.836,18.297-5.836,18.297-5.836c16.313,7.883,37.094,15.907,46.184,17.808
			c9.09,1.913,38.988-0.688,44.691-0.114c5.707,0.57,22.992,8.256,26.359,13.085c0,0,0,0-0.875,3.764
			c-0.809,3.473-0.809,3.473-0.809,3.473c-5.473,2.641-11.43,4.927-13.23,5.084c-1.805,0.157-16.016-0.814-27.512-2.278
			c-11.496-1.465-48.617,15.055-58.797,18.842c0,0,0,0-9.379-8.499c-3.008-2.715-9.98-3.188-14.313-1.907
			c-11.766,3.479-11.766,3.479-11.766,3.479c-11.93-3.408-23.914-6.851-26.621-7.645c0,0,0,0-2.32,0.402
			c-27.66,4.742-27.66,4.742-27.66,4.742c-31.539,5.607-58.07,9.137-58.965,7.843c-0.891-1.3-14.426-3.157-27.957-1.022
			c-13.527,2.135-53.383,13.715-56.777,20.73c-3.395,7.012-28.27,21.44-38.656,24.477c-10.379,3.043-49.563-2.721-64.82-4.192
			c0,0,0,0-14.543,5.486c-11.332,4.283-25.645,4.2-37.824,1.863c-17.574-3.358-17.574-3.358-17.574-3.358
			c-20.18-7.457-37.438-15.635-38.352-18.155c-0.914-2.527-10.758-9.301-19.176-7.565c0,0,0,0-4.035,4.458
			c-9.09,10.015-9.09,10.015-9.09,10.015c-8.332,12.542-17.66,24.508-20.723,26.592c-3.07,2.092-20.602-0.127-32.082-4.723
			c-11.477-4.592-48.813-23.397-69.168-17.834c-20.359,5.558-67.07,39.684-59.648,49.356c7.418,9.673-18.406,40.213-32.008,38.35
			c0,0,0,0-2.203-5.651c-4.813-12.29-4.813-12.29-4.813-12.29c-10.199-4.093-19.914-2.979-21.594,2.478
			c-1.68,5.456-13.227,17.049-21.809,13.242c0,0,0,0-4.242-5.213c-7.422-9.129-17.039-12.407-27.27-16.188
			c-6.574-2.427-6.574-2.427-6.574-2.427c-6.332-5.077-21.637-16.909-34.012-26.287c0,0,0,0-11.141-8.664
			c-3.273-2.55-7.715-4.899-9.121-8.355c-9.84-24.179-9.84-24.179-9.84-24.179c-9.41-26.977-18.617-57.256-20.461-67.271
			c-1.848-10.015,6.176-40.136,5.535-45.385c0,0,0,0-0.887-4.873c-3.879-21.478-3.879-21.478-3.879-21.478
			c10.844-19.429,24.977-40.762,31.406-47.405c6.43-6.649,11.535-32.564,11.977-34.693c0.438-2.128,12.563-16.543,24.242-30.785
			c0,0,0,0,1.867-17.707C148.098,421.687,148.098,421.687,148.098,421.687z"/>
	</g>
	<g>
		<path fill-rule="evenodd" clip-rule="evenodd" fill="#F15A24" d="M758.547,608.355c0.934,3.393-10.957,12.308-26.426,19.809
			c-15.465,7.508-74.398,22.678-96.148,23.568c0,0,0,0-19.918,0.479c-13.121,0.329-13.121,0.329-13.121,0.329
			c-14.367,0.827-33.129,2.449-41.676,3.6c-8.555,1.148-39.402-3.748-49.32-5.698c-9.914-1.95-42.453-10.685-51.535-11.708
			c-9.082-1.021-45.273,7.137-61.414,10.856c0,0,0,0-16.617-3.101c-27.395-5.114-27.395-5.114-27.395-5.114
			c-28.168,11.731-61.305,25.845-73.637,31.372c0,0,0,0-11.223,5.077c-15.836,7.166-33.633,11.945-46.871,22.436
			c-16.313,12.931-16.313,12.931-16.313,12.931c-18.941-1.585-40.207-7.064-47.258-12.18c-7.051-5.114-23.652-36.248-30.039-53.877
			c-6.391-17.63-3.297-71.042-1.805-75.587c1.492-4.541,16.75-22.841,25.105-32.403c0,0,0,0,5.871-9.8
			c8.602-14.345,12.215-16.973,27.738-13.966c4.07,0.794,4.07,0.794,4.07,0.794c4.32,1.579,21.773,5.913,38.781,9.643
			c17.004,3.727,71.238,1.036,80.434-0.851c9.195-1.877,40.859-6.321,49.926-6.355c9.074-0.03,50.773,3.841,72.598,6.542
			c0,0,0,0,19.617,3.67c18.848,3.536,18.848,3.536,18.848,3.536c17.145,11.858,53.906,39.979,81.688,62.478c0,0,0,0,32.582,6.915
			c23.711,5.027,23.711,5.027,23.711,5.027c23.773-10.042,50.016-22.114,58.32-26.813c8.297-4.709,39.715-15.293,50.512-14.921
			c10.801,0.372,29.711,17.398,31.465,20.623C750.848,588.893,757.617,604.964,758.547,608.355z"/>
	</g>
	<g>
		<path fill-rule="evenodd" clip-rule="evenodd" fill="#FBB03B" d="M438.98,626.706c-0.023-0.234-2.215-0.07-4.871,0.372
			c-2.66,0.442-22.301,3.536-37.699,6.298c-15.398,2.759-67.504,3.396-82.93,5.708c-15.43,2.315-56.742,20.502-61.57,23.395
			c-4.824,2.898-27.977,8.426-37.027,11.935c0,0,0,0-7.656,4.498c-17.395,10.223-17.395,10.223-17.395,10.223
			c-14.16-7.407-35.078-29.163-46.484-48.357c0,0,0,0-7.457-18.913c-1.398-3.557-1.16-8.771,0.391-12.308
			c8.59-19.65,8.59-19.65,8.59-19.65c10.23-21.25,27.875-44.647,39.203-52.004c0,0,0,0,12.781,1.243c6.41,0.62,6.41,0.62,6.41,0.62
			c6.742,3.05,25.703,8.114,42.141,11.258c16.438,3.134,64.625-6.173,70.277-7.957c5.652-1.793,26.195-7.407,32.867-9.415
			c6.676-2.001,42.875-2.095,65.781-0.744c0,0,0,0,19.699,5.5c27.102,7.564,27.102,7.564,27.102,7.564
			c26.063,17.12,58.031,37.984,71.043,46.37c0,0,0,0,12.488,6.549c8.008,4.193,13,9.331,14.555,18.629
			c3.273,19.63,3.273,19.63,3.273,19.63c-15.563,2.927-33.785,4.079-40.5,2.558c-6.711-1.521-37-14.251-53.496-22.295
			c0,0,0,0-17.148,9.907c-3.105,1.793-3.105,1.793-3.105,1.793C443.195,628.271,439.004,626.947,438.98,626.706z"/>
	</g>
	<g>
		<path fill-rule="evenodd" clip-rule="evenodd" fill="#FBB03B" d="M647.797,627.343c-4.508-0.309-3.48-8.278,2.273-17.706
			c5.754-9.439,39.207-22.839,49.809-25.852c0,0,0,0,9.805-1.921c11.766-2.316,11.766-2.316,11.766-2.316
			c6.238,8.493,10.262,19.128,8.949,23.635c-1.316,4.509-19.945,14.543-29.609,18.867
			C691.117,626.371,652.301,627.648,647.797,627.343z"/>
	</g>
	<path fill-rule="evenodd" clip-rule="evenodd" fill="#FFF6A1" d="M489.082,601.592c-6.977,2.943-22.949,3.985-35.492,2.313
		c0,0,0,0-9.09-0.013c-10.758-0.026-22.316-0.922-32.117,2.544c-30.121,10.648-60.934,6.428-91.551,6.891
		c-4.086,0.057-8.355-0.721-12.254-1.978c-8.145-2.628-15.773-6.265-15.906-16.614c-0.125-9.656,7.559-18.357,18.508-20.264
		c5.688-0.992,5.688-0.992,5.688-0.992c6.453,0.07,16.117-0.687,21.465-1.679c5.348-0.992,26.555-13.38,36.156-17.506
		c9.602-4.123,45.945,0.436,57.691,4.22c11.738,3.787,43.359,14.214,44.227,14.516c0.867,0.299,10.609,6.419,19.84,12.683
		c0,0,0,0-4.418,9.8C489.082,601.592,489.082,601.592,489.082,601.592z"/>
	<path fill-rule="evenodd" clip-rule="evenodd" fill="#FFF6A1" d="M208.652,641.949c-9.922,10.642-25.297,15.17-34.16,10.055
		c-8.871-5.111-11.738-43.521-9.871-55.248c0,0,0,0,1.168-10.722c1.129-10.363,6.813-16.792,16.184-20.043
		c8.336-2.876,8.336-2.876,8.336-2.876c9.445,1.271,21.449,12.441,26.672,24.826c0,0,0,0-5.363,10.065
		c-1.543,2.886-3.691,5.57-6.008,7.906c-6.492,6.543-9.027,13.229-4.242,22.279C208.652,641.949,208.652,641.949,208.652,641.949z"
		/>
</g>
</svg>
