<?xml version="1.0" encoding="utf-8"?>
<!-- Generator: Adobe Illustrator 16.0.0, SVG Export Plug-In . SVG Version: 6.00 Build 0)  -->
<!DOCTYPE svg PUBLIC "-//W3C//DTD SVG 1.1//EN" "http://www.w3.org/Graphics/SVG/1.1/DTD/svg11.dtd">
<svg version="1.1" id="Capa_1" xmlns="http://www.w3.org/2000/svg" xmlns:xlink="http://www.w3.org/1999/xlink" x="0px" y="0px"
	 width="1200px" height="1200px" viewBox="0 0 1200 1200" enable-background="new 0 0 1200 1200" xml:space="preserve">
<g>
	<g opacity="0.3">
		<path fill-rule="evenodd" clip-rule="evenodd" fill="#C1272D" d="M808.993,804.174c-6.473-0.346-11.684-0.646-11.582-0.646
			c0.109,0-8.008-1.676-18-3.727c-10.023-2.078-27.203-9.158-30.199-9.102c0,0,0,0-2.684,0c-10.18,0-25.508-0.443-41.082-4.328
			c-15.344-3.799-15.344-3.799-15.344-3.799c-12.832-5.689-33.496-8.801-45.918-6.938c0,0,0,0-13.172,0.387
			c-5.898,0.158-12.215,0.301-18.648,0.301c-20.387,0-50.242-1.174-73.898-11.322c-11.336-4.889-27.285-7.396-45.766-10.35
			c-14.395-2.264-14.395-2.264-14.395-2.264c-17.863-3.684-32.754-6.723-33.086-6.766c-0.289-0.057-6.109-0.902-12.879-1.906
			c-6.789-1.004-26.84-10.162-29.16-10.262c0,0,0,0-1.875-0.086c-3.773-0.158-7.574-0.316-11.379-0.545
			c-26.301-1.648-54.223-3.756-80.793-9.861c-13.328-3.053-29.879-4.859-47.383-6.766c-35.359-3.842-35.359-3.842-35.359-3.842
			c-43.922-12.441-110.188-38.9-147.246-58.781c0,0,0,0-3.723-9.977c-0.566-1.533-0.566-1.533-0.566-1.533
			c-2.418-3.354-4.867-6.42-5.449-6.822c0,0,0,0-0.531-0.357c-6.949-4.688-21.418-14.434-18.488-28.381
			c3.504-16.512,12.824-29.641,27.707-39c6.293-3.957,12.797-7.425,18.539-10.479c8.797-4.672,15.742-8.37,19.441-12.269
			c11.801-12.413,33.082-18.447,47.16-22.433c2.59-0.73,5.156-1.447,7.496-2.207c10.551-3.439,21.277-6.722,32.016-10.004
			c11.875-3.627,23.734-7.253,35.336-11.123c4.234-1.419,8.309-2.953,12.387-4.458c17.277-6.464,17.277-6.464,17.277-6.464
			c29.895-5.776,54.977-10.765,55.719-11.051c0.746-0.287,2.707-1.004,2.707-1.004c-0.016,0,0.305-0.157,0.699-0.401
			c0,0,0,0,0.82-0.401c7.277-3.454,20.801-9.933,41.328-11.438c25.387-1.85,43.855-10.679,71.867-24.969
			c14.078-7.167,28.637-14.577,45.91-21.242c1.445-0.545,2.789-1.118,4.098-1.662c9.84-4.1,28.117-11.711,55.914-11.711
			c4.543,0,4.543,0,4.543,0c5.102,0.358,10.316,0.373,11.559,0.058c0,0,0,0,1.172-0.388c15.973-5.461,32.445-8.227,48.922-8.227
			c18.613,0,45.688,3.54,69.074,20.367c6.043,4.343,6.043,4.343,6.043,4.343c6.125,4.845,17.016,8.356,24.23,7.798c0,0,0,0,7.477,0
			c4.832,0,4.832,0,4.832,0c5.34,0.286,9.754,0.53,9.813,0.53c0,0,0,0,0.035,0c8.422,0,21.918-2.537,33.82-4.787
			c5.203-0.975,10.355-1.936,15.438-2.824c17.852-3.067,34.199-4.572,49.961-4.572c17.676,0,17.676,0,17.676,0
			c18.254,3.153,33.773,5.849,34.473,6.006c0.691,0.157,9.438,2.093,19.414,4.286c9.98,2.207,27.277,19.12,28.953,19.637
			c0,0,0,0,1.371,0.43c7.203,2.179,16.156,4.916,25.035,9.115c8.457,4.014,17.043,7.97,25.625,11.955
			c34.773,16.038,70.723,32.637,100.742,52.976c20.867,14.118,25.516,31.619,29.254,45.694c1.406,5.246,2.715,10.205,4.613,14.204
			c2.414,5.117,2.414,5.117,2.414,5.117c3.711,2.651,12.605,8.084,19.777,12.055c7.156,3.984,9.086,11.251,4.277,16.167
			c-4.809,4.889-13.449,13.631-19.207,19.422c0,0,0,0-5.297,5.26c-12.109,12.025-23.559,23.393-33.68,35.061
			c-4.402,5.045-8.078,10.949-11.98,17.199c-4.191,6.693-8.512,13.617-14.391,20.74c-8.188,9.934-23.246,23.092-48.508,29.613
			c-21.547,5.561-21.547,5.561-21.547,5.561c-24.012,5.061-44.895,14.836-46.391,21.744c0,0,0,0-6.418,6.25
			c-17.621,17.084-17.621,17.084-17.621,17.084c-34.574,4.602-69.988,9.316-78.711,10.479c-8.727,1.176-16.48,1.721-17.238,1.219
			c-0.742-0.488-2.313-0.445-3.48,0.086C821.712,804.389,815.458,804.531,808.993,804.174z"/>
	</g>
	<g opacity="0.8">
		<path fill-rule="evenodd" clip-rule="evenodd" fill="#C1272D" d="M896.731,724.594c-35.484,7.697-62.699,20.268-60.477,27.936
			c2.227,7.684-46.547,19.637-48.809,18.018c-2.273-1.605-14.195-5.232-19.137-2.781c-4.918,2.424-18,8.213-19.551,8.156
			c-1.539-0.043-13.078-2.379-25.371-4.758c-12.309-2.395-49.824-12.742-57.547-16.098c-7.719-3.34-45.125-11.107-61.25-7.324
			c0,0,0,0-16.699,0.545c-17.969,0.574-41.063,0.746-53.523-4.988c-29.301-13.516-29.301-13.516-29.301-13.516
			c-37.301-5.275-71.215-10.006-75.371-10.521c-4.16-0.516-17.262-5.689-25.398-8.227c-8.145-2.537-42.16-6.494-53.906-7.354
			c-11.762-0.83-63.832-7.926-92.363-9.99c-28.543-2.035-93.973-28.58-97.801-30.156c0,0,0,0-3.77-0.273
			c-26.035-1.807-31.531-12.914-35.777-25.127c-1.82-5.23-1.82-5.23-1.82-5.23c-4.063-5.477-13.793-14.119-21.633-19.207
			c0,0,0,0,0.805-4.07c1.633-8.328,1.633-8.328,1.633-8.328c7.094-8.643,19.914-19.407,28.492-23.936
			c8.586-4.516,30.781-22.06,36.637-24.683c5.84-2.595,31.832-11.911,43.504-15.724c11.68-3.827,59.305-22.331,80.539-32.049
			c0,0,0,0,26.98-0.043c5.828-0.015,5.828-0.015,5.828-0.015c6.387-3.096,14.5-7.281,18.043-9.316
			c3.547-2.007,33.441-11.768,57.707-20.956c24.27-9.188,91.129-36.679,96.301-39.416c5.176-2.752,31.773-3.01,38.449-3.469
			c6.66-0.473,36.891-6.206,55.391-8.428c0,0,0,0,12.113,9.359c11.25,8.715,11.25,8.715,11.25,8.715
			c12.254,10.893,35.055,16.913,50.691,13.387c0,0,0,0,18.734,1.448c21.32,1.662,21.32,1.662,21.32,1.662
			c25.113-5.676,63.68-12.541,85.715-15.25c0,0,0,0,19.852,5.045c6.07,1.534,6.07,1.534,6.07,1.534
			c5.805,2.364,16.66,7.883,24.137,12.255c7.469,4.386,64.137,32.622,108.172,53.706c0,0,0,0,31.652,23.034
			c16.785,12.227,16.785,12.227,16.785,12.227c3.188,20.482,7.633,40.635,9.883,44.777c2.258,4.128,1.734,30.343-16.27,49.22
			c0,0,0,0-14.305,17.73c-9.992,12.342-9.992,12.342-9.992,12.342c-8.211,14.361-20.504,32.02-27.324,39.258c0,0,0,0-9.621,2.682
			C896.731,724.594,896.731,724.594,896.731,724.594z"/>
	</g>
	<g>
		<path fill-rule="evenodd" clip-rule="evenodd" fill="#F15A24" d="M932.196,589.488c3.52,11.596,5.926,22.418,5.313,24.067
			c-0.609,1.648-14.402,12.383-23.957,18.947c-9.578,6.564-37.523,25.527-40.945,27.521c-3.406,1.992-15.926,14.719-25.973,23.176
			c-10.059,8.457-49.645,30.33-58.629,33.354c0,0,0,0-8.855,0.961c-18.711,2.006-18.711,2.006-18.711,2.006
			c-20.91,1.104-46.516,1.992-56.891,1.965c0,0,0,0-8.961-1.262c-46.219-6.551-46.219-6.551-46.219-6.551
			c-50.688-7.582-106.375-16.039-123.742-18.834c-17.379-2.766-91.648-14.447-126.352-19.881
			c-34.699-5.432-130.133-19.205-134.734-18.92c-4.609,0.273-21.664-1.605-28.699-2.637c-7.043-1.031-30.754-16.77-44.695-29.053
			c0,0,0,0-10.281-11.926c-5.566-6.465-5.566-6.465-5.566-6.465c6.691-7.066,23.488-20.54,37.336-29.942
			s70.746-19.321,73.809-19.866c3.066-0.516,22.277-7.783,38.762-13.431c16.473-5.661,73.695-19.436,85.652-22.904
			c11.973-3.454,48.168-16.412,55.137-19.751c6.98-3.325,36.082-13.703,47.723-17c11.641-3.296,56.234,2.752,71.125,2.996
			c14.879,0.243,64.176,5.575,78.379,7.983s63.348-4.057,75.477-5.547c0,0,0,0,9.547,1.749
			c46.32,8.557,89.309,20.066,105.949,49.951c5.91,10.636,5.91,10.636,5.91,10.636C876.087,556.349,928.669,577.907,932.196,589.488
			z"/>
	</g>
	<g>
		<path fill-rule="evenodd" clip-rule="evenodd" fill="#FBB03B" d="M544.724,504.391c28.676-2.68,66.469-3.841,83.992-2.565
			c17.508,1.262,92.824,6.077,119.988,12.441c27.184,6.35,96.77,36.535,105.117,41.553c8.363,5.016,35.602,25.326,42.723,33.597
			c7.125,8.285-10.551,39.675-18.57,48.031c-8.035,8.371-36.164,35.775-45.535,42.055c-9.383,6.307-66.484,18.891-93.898,20.123
			c-27.402,1.232-131.879-4.357-171.184-9.359c0,0,0,0-35.34-5.246c-50.223-7.453-99.617-16.799-149.34-25.355
			c-31.105-5.346-31.105-5.346-31.105-5.346c-34.746-4.744-73.566-11.523-86.273-15.107c-12.707-3.568-49.211-22.676-56.348-31.463
			c0,0,0,0,10.523-7.796c9.168-6.809,19.266-14.176,31.887-18.203c29.578-9.417,29.578-9.417,29.578-9.417
			c34.027-8.815,77.918-21.199,97.559-27.534C398.134,538.461,516.056,507.057,544.724,504.391z"/>
	</g>
	<path fill-rule="evenodd" clip-rule="evenodd" fill="#FFF6A1" d="M715.442,667.146c-19.391,3.254-41.02,6.25-48.07,6.707
		c-7.047,0.432-29.563,4.029-36.492,4.344s-39.137-7.467-55.664-11.982c0,0,0,0-15.102,0.129
		c-31.031,0.301-31.031,0.301-31.031,0.301c-31.555-5.461-67.348-12.398-79.559-15.395c-12.191-3.01-54.703-3.826-62.965-5.359
		c0,0,0,0-6.785-2.352c-27.898-9.674-55.234-19.535-89.992-18.777c-9.801,0.201-9.801,0.201-9.801,0.201
		c-10.691-3.053-21.863-7.553-24.816-9.99c-2.961-2.422-1.031-12.785,3.941-17.515c0,0,0,0,5.91-0.459
		c38.41-2.981,63.758-20.438,97.457-28.423c4.148-0.988,4.148-0.988,4.148-0.988c3.824-2.064,46.102-16.039,93.957-31.047
		c0,0,0,0,48.848-5.017c20.973-2.121,20.973-2.121,20.973-2.121c24.477,2.265,56.422,4.716,71.004,5.446
		c14.578,0.746,67.008,3.097,84.027,4.501c0,0,0,0,13.609,6.479c23.176,11.052,23.176,11.052,23.176,11.052
		c27.078,11.021,55.98,24.811,64.238,30.587c8.242,5.805-7.758,32.679-11.746,37.238
		C770.724,629.248,734.829,663.922,715.442,667.146z"/>
</g>
</svg>
