<?xml version="1.0" encoding="utf-8"?>
<!-- Generator: Adobe Illustrator 16.0.0, SVG Export Plug-In . SVG Version: 6.00 Build 0)  -->
<!DOCTYPE svg PUBLIC "-//W3C//DTD SVG 1.1//EN" "http://www.w3.org/Graphics/SVG/1.1/DTD/svg11.dtd">
<svg version="1.1" id="Capa_1" xmlns="http://www.w3.org/2000/svg" xmlns:xlink="http://www.w3.org/1999/xlink" x="0px" y="0px"
	 width="1200px" height="1200px" viewBox="0 0 1200 1200" enable-background="new 0 0 1200 1200" xml:space="preserve">
<g>
	<g opacity="0.3">
		<path fill-rule="evenodd" clip-rule="evenodd" fill="#C1272D" d="M191.675,1143.548c-9.661-10.229-29.598-44.941-44.312-77.14
			c0,0,0,0,2.56-23.617c1.238-11.427,0.287-12.65-1.787-15.325c-15.327-19.719-14.947-49.09-9.965-68.255
			c4.016-15.406,2.869-31.765,1.545-50.707c-0.313-4.503-0.634-9.01-0.881-13.528c-1.496-27.34-1.496-27.34-1.496-27.34
			c5.798-26.51,9.41-51.967,8.02-56.579c-1.387-4.607-3.747-22.802-6.078-30.014c-2.341-7.213-3.051-25.259-2.932-30.896
			c0,0,0,0,2.807-6.985c5.326-13.228,5.573-28.915,5.854-47.086c0.188-11.492,0.188-11.492,0.188-11.492
			c0.905-13.501,2.321-30.351,3.149-37.453c0.826-7.096,7.641-13.84,15.143-14.979c7.499-1.138,27.592-14.596,44.652-29.905
			c0,0,0,0,25.566,0c1.288,0,3.959,0.07,3.976,0.07c5.544,0,12.491-1.68,20.531-3.633c5.534-1.342,5.534-1.342,5.534-1.342
			c6.541-1.407,13.607-2.889,15.711-3.29c2.105-0.405,4.688-0.507,5.731-0.227c1.06,0.285,4.101-2.896,6.769-7.056
			c2.665-4.167,12.717-18.062,12.717-23.504c0-5.446-5.122-16.417-11.398-24.378c-6.264-7.964-16.002-13.823-21.631-13.021
			c0,0,0,0-5.326,0c-1.65,0-3.335-0.051-5.059-0.148c-43.664-2.495-74.805-29.043-83.258-71.026
			c-1.123-5.61-2.331-11.212-3.539-16.81c-3.117-14.464-6.33-29.426-8.396-44.974c-0.305-2.323-1.021-5.392-1.771-8.639
			c-2.423-10.507-2.423-10.507-2.423-10.507c0.224-17.099,0.184-55.651-0.104-85.669c0,0,0,0,6.402-12.331
			c1.061-2.055,2.127-4.078,3.049-6.09c4.622-10.089,5.691-21.387,7.032-35.69c0.288-2.967,0.567-5.957,0.882-8.974
			c2.744-26,10.002-50.311,17.035-73.818c2.34-7.848,4.695-15.691,6.838-23.543c1.717-6.327,3.969-11.766,5.956-16.562
			c1.453-3.516,2.823-6.846,3.309-8.981c9.807-43.316,9.807-43.316,9.807-43.316c31.907-4.713,64.187-8.666,71.701-8.787
			c7.509-0.125,15.087,5.758,16.833,13.072c1.74,7.316,5.029,20.081,7.307,28.372c0,0,0,0,2.543,8.211
			c6.594,21.344,14.079,45.534,12.279,71.175c-1.053,14.942,0.936,30.162,3.025,46.271c1.076,8.188,2.119,16.351,2.853,24.572
			c1.023,11.567,1.069,22.678,1.122,33.422c0.096,20.95,0.166,39.048,7.199,55.382c8.38,19.481,8.38,19.481,8.38,19.481
			c-2.149,20.373,13.498,31.593,34.775,24.931c0,0,0,0,12.679-15.185c1.856-2.219,1.856-2.219,1.856-2.219
			c2.159-1.922,3.929-9.445,3.929-16.721c0-7.274,4.904-15.11,10.891-17.426c5.982-2.308,12.999-5.103,15.588-6.21
			c0,0,0,0,2.324-1.068c8.18-3.755,18.352-8.429,30.82-9.61c1.396-0.137,3.791-1.781,8.912-5.501
			c1.512-1.091,1.512-1.091,1.512-1.091c2.332-1.665,25.342-17.816,51.11-35.894c0,0,0,0,34.417,0c6.68,0,13.465,0.713,20.154,2.125
			c6.986,1.466,12.639,3.977,17.635,6.194c1.734,0.775,1.734,0.775,1.734,0.775c2.229,0.937,12.963,5.267,23.865,9.622
			c10.891,4.358,14.354,15.82,7.67,25.48c-6.672,9.652-13.604,21.89-15.412,27.195c0,0,0,0-1.219,7.419
			c-1.994,12.183-1.994,12.183-1.994,12.183c-7.01,16.768-19.686,45.815-28.172,64.56c0,0,0,0-7.951,8.99
			c-0.625,0.705-0.625,0.705-0.625,0.705c-0.777,0.893,2.355,4.628,6.965,8.304c4.613,3.673,20.059,16.557,25.051,17.848
			c0,0,0,0,5.387,1.095c10.48,2.141,22.363,4.565,33.48,10.519c5.895,3.158,11.494,4.02,21.713,5.376
			c3.223,0.429,6.496,0.869,9.85,1.407c20.965,3.376,43.271,10.253,68.191,21.028c29.918,12.939,53.178,20.963,76.621,20.963
			c3.344,0,6.699-0.176,9.965-0.515c3.781-0.397,7.658-0.601,11.523-0.601c18.734,0,35.156,4.607,49.635,8.67
			c9.787,2.749,19.035,5.337,27.301,5.969c15.311,1.166,29.158,4.701,42.555,8.124c4.668,1.186,4.668,1.186,4.668,1.186
			c5.131,1.239,13.029,1.33,17.537,0.206c4.523-1.126,26.547-6.768,38.494-9.835c11.945-3.064,23.646,1.797,26.002,10.799
			c2.363,9.001,4.867,18.424,5.561,20.931c0,0,0,0,0.537,1.836c1.381,4.718,2.814,9.595,3.461,15.493
			c5.613,50.372-30.424,60.255-46.18,62.165c-4.336,0.522-9.668,1.91-15.322,3.38c-10.52,2.736-22.449,5.844-36.053,5.844
			c-10.434,0-10.434,0-10.434,0c-10.633-3.115-46.811,0.117-80.385,7.182c0,0,0,0-29.271,1.84c-7.904,0.499-15.836,0.99-23.74,1.684
			c-21.225,1.871-38.551,6.351-54.582,14.102c-19.943,9.656-41.363,12.915-60.275,15.792c-7.262,1.107-14.129,2.152-20.584,3.481
			c-5.131,1.057-5.131,1.057-5.131,1.057c-5.521,0.882-14.143,2.289-19.164,3.123c-5.016,0.838-14.021-1.646-20.008-5.521
			c-5.982-3.875-17.662-1.025-25.949,6.327c-8.295,7.357-24.973,12.151-37.084,10.65c-12.098-1.497-25.676,2.745-30.148,9.423
			c-4.469,6.678-11.633,12.408-15.9,12.736c-4.271,0.319-7.857,5.204-7.974,10.85c0,0,0,0-0.796,5.453
			c-1.172,8.043,0.209,18.589,1.651,29.758c0.968,7.364,1.951,14.981,2.41,23.04c0.849,14.779,1.816,31.523,0.069,48.579
			c-1.248,12.069-6.313,21.22-10.385,28.564c-1.1,2-1.1,2-1.1,2c-1.241,2.397-5.91,12.206-10.384,21.788
			c-4.468,9.591-15.47,12.842-24.438,7.229c-8.975-5.606-17.962-11.146-19.989-12.3c0,0,0,0-1.586-0.835
			c-6.362-3.36-15.08-7.964-21.684-17.785c-1.541-2.283-2.564-3.805-8.912-5.009c-15.297-2.904-30.767-11.991-41.385-24.308
			c-14.027-16.271-14.027-16.271-14.027-16.271c-13.426-18.104-33.963-22.097-45.658-8.878c0,0,0,0-10.275,11.953
			c-14.33,16.667-14.33,16.667-14.33,16.667c-0.721,29.46-1.318,58.024-1.334,63.471c-0.033,5.442-4.056,12.163-8.969,14.936
			c-4.91,2.771-9.176,11.492-9.152,19.196c0.006,7.703-2.744,23.117-2.869,23.526c-0.126,0.417-2.184,6.499-4.577,13.517
			c0,0,0,0-2.12,5.473c-2.84,7.365-5.537,14.327-6.115,19.466c-3.453,30.693-15.935,55.19-28.006,78.879
			c-4.372,8.584-4.372,8.584-4.372,8.584c-4.322,9.099-12.501,27.063-18.2,39.921C213.91,1151.609,201.343,1153.77,191.675,1143.548
			z"/>
	</g>
	<g opacity="0.8">
		<path fill-rule="evenodd" clip-rule="evenodd" fill="#C1272D" d="M674.019,661.516c-6.908,1.052-17.746-1.446-24.092-5.56
			c-6.355-4.113-26.746-8.241-33.986-1.825c-7.229,6.413-32.365,21.131-41.551,19.992c-9.176-1.135-35.75,0.265-39.297,5.552
			c-3.549,5.29-18.401,18.794-25.87,19.359s-28.671,8.241-23.929,15.305c4.748,7.072,6.953,37.285,7.68,48.197
			c0.724,10.916,2.83,46.311,3.282,54.26c0.442,7.952-2.083,32.01-3.837,36.076c-1.764,4.063-13.792,13.61-21.479,9.918
			c0,0,0,0-2.801-4.167c-7.627-11.307-17.364-16.885-30.789-19.438c-7.961-1.513-16.615-6.889-21.965-13.099
			c-14.869-17.235-14.869-17.235-14.869-17.235c-14.838-20.229-27.576-40.98-28.303-46.111c0,0,0,0-2.08-3.918
			c-3.223-6.031-3.223-6.031-3.223-6.031c-5.178-6.654-19.228-1.092-31.211,12.354c-11.992,13.45-47.193,60.762-53.721,76.629
			c-6.535,15.862-17.062,67.88-23.242,73.295c-6.191,5.42-6.168,35.177-6.684,42.502c0,0,0,0-1.896,6.358
			c-4.365,14.635-4.365,14.635-4.365,14.635c-5.177,15.934-14.628,42.81-20.974,59.729c-6.363,16.924-29.84,55.238-34.57,45.397
			c-4.726-9.847-5.749-49.147-4.844-63.717c0,0,0,0-10.392-13.379c-6.895-8.857-6.895-8.857-6.895-8.857
			c1.638-16.475,3.672-41.164,4.523-54.855c0.849-13.695,0.739-62.181,1.433-77.343c0.704-15.164,8.619-54.356,4.845-60.478
			c-3.784-6.116-0.819-25.873-11.243-29.148c0,0,0,0,2.269-11.414c0.562-2.831,0.562-2.831,0.562-2.831
			c0.125-3.197,1.621-19.368,3.344-35.937c1.715-16.568,9.658-62.2,13.146-62.727c3.493-0.53,21.202-13.496,29.776-27.371
			c0,0,0,0,19.663,0.694c14.066,0.499,14.066,0.499,14.066,0.499c17.341-4.741,32.646-3.325,33.996,3.146
			c1.341,6.479,22.859-4.819,24.662-17.552c1.81-12.732,29.549-35.078,29.549-44.17c0-9.091-4.153-41.955-9.239-48.411
			c-5.074-6.448-18.774-33.324-13.63-38.357c5.154-5.032-23.391-8.292-35.677,1.229c0,0,0,0-16.952-0.967
			c-27.069-1.544-27.069-1.544-27.069-1.544c-13.613-23.224-26.775-51.117-29.225-61.994c-2.457-10.869-9.256-46.501-11.881-54.727
			c-2.628-8.227,3.322-31.999,3.603-33.847c0.28-1.845-1.585-12.963-2.317-22.615c-0.733-9.648,9.793-49.414,14.65-69.284
			c0,0,0,0,2.01-19.169c3.276-31.118,3.276-31.118,3.276-31.118c10.761-33.46,21.247-64.831,23.321-69.708
			c2.074-4.878,7.096-23.711,8.602-30.557c1.512-6.846,37.004-0.215,42.521,15.333c5.521,15.547,8.929,67.424,9.942,81.463
			c1.021,14.042,2.658,80.597,0.911,117.142c0,0,0,0,14.129,32.81c6.832,15.883,6.832,15.883,6.832,15.883
			c-3.504,22.186-6.838,48.863-7.434,59.279c-0.584,10.426,5.125,34.627,9.655,28.14c0,0,0,0-0.017-5.883
			c-0.039-12.861,7.4-18.377,17.49-19.11c34.33-2.49,64.027-13.57,86.686-40.724c2.76-3.306,2.76-3.306,2.76-3.306
			c6.02-1.91,10.934-7.158,10.934-11.664c0-4.503,8.581-19.987,19.071-25.29c0,0,0,0,9.753-0.928
			c12.654-1.2,20.169-8.046,29.837-14.826c22.354-15.664,45.675-32.505,76.013-26.111c5.303,1.114,5.303,1.114,5.303,1.114
			c6.879,3.225,11.244,16.686,9.709,29.922c-1.547,13.234-28.367,50.192-36.334,60.302c-7.979,10.104-25.334,35.031-36.289,25.094
			c0,0,0,0-11.438,13.38c-3.454,4.055-3.454,4.055-3.454,4.055c-1.628,8.059,9.786,15.918,25.372,17.461
			c15.586,1.548,50.463,28.026,54.422,31.792c0,0,0,0,4.313,1.669c15.018,5.801,33.512,6.241,45.768,12.807
			c14.66,7.852,27.588,8.023,42.229,10.378c20.531,3.306,40.887,10.362,60.084,18.666c33.293,14.396,67.086,26.899,103.654,23.056
			c29.254-3.072,54.359,11.999,82.32,14.128c18.93,1.442,37.463,7.976,56.248,11.809c3.414,0.697,7.326-0.254,10.842-1.096
			c11.689-2.791,11.689-2.791,11.689-2.791c13.441-3.509,26.174-0.772,28.287,6.085c0,0,0,0,0.516,4.558
			c1.826,16.436-0.967,22.744-16.461,24.623c-23.234,2.814-46.275,16.954-70.537,2.744c-3.361-1.973-3.361-1.973-3.361-1.973
			c-5.889,1.692-43.367,8.804-83.305,15.797c0,0,0,0-36.902,3.248c-22.463,1.979-22.463,1.979-22.463,1.979
			c-24.17,8.46-65.721,20.572-92.338,26.912c0,0,0,0-24.506,5.048C674.019,661.516,674.019,661.516,674.019,661.516z"/>
	</g>
	<g>
		<path fill-rule="evenodd" clip-rule="evenodd" fill="#F15A24" d="M634.979,611.996c-0.029-0.21-23.494,1.716-52.137,4.285
			c0,0,0,0-26.076,1.852c-12.561,0.889-25.189,0.765-37.801,0.865c-16.324,0.137-32.675-0.569-48.963,0.18
			c-25.246,1.166-25.246,1.166-25.246,1.166c-10.637-15.98-20.764-32.272-22.493-36.214c-1.733-3.941-2.84-31.554-0.28-52.204
			c0,0,0,0,21.244-6.729c5.554-1.758,11.643-2.425,16.661-5.126c15.011-8.074,29.169-6.869,44.352,0.172
			c16.678,7.742,33.712,11.453,53.276,10.338c18.666-1.064,37.955,6.354,56.77,10.861c29.123,6.979,58.121,14.479,87.068,22.093
			c17.031,4.479,29.637,16.008,28.311,24.967c-1.525,10.342-17.447,23.063-33.455,23.983c-20.32,1.165-20.32,1.165-20.32,1.165
			C653.444,613.162,635.003,612.207,634.979,611.996z"/>
	</g>
	<g>
		<path fill-rule="evenodd" clip-rule="evenodd" fill="#F15A24" d="M226.153,702.719c18.877-3.268,37.471,0.814,41.316,9.067
			c0,0,0,0,4.35,6.167c6.26,8.9,8.201,16.308,0.422,25.983c-4.375,5.442-4.999,13.938-7.237,21.083
			c-6.501,20.85-12.294,41.971-19.967,62.384c-1.826,4.854-10.246,10.597-14.948,10.043c-4.678-0.555-11.024-7.941-12.223-13.317
			c-4.577-20.499-4.577-20.499-4.577-20.499c1.513-23.109,3.78-53.834,5.052-68.281c0,0,0,0,3.048-12.729
			C226.153,702.719,226.153,702.719,226.153,702.719z"/>
	</g>
	<g>
		<path fill-rule="evenodd" clip-rule="evenodd" fill="#F15A24" d="M269.099,404.722c-6.41,3.902-17.487-13.481-24.616-38.626
			c-7.126-25.149,18.378-72.999,28.81-64.66c0,0,0,0,1.125,13.484c1.846,22.175,1.846,22.175,1.846,22.175
			C278.151,361.499,275.514,400.819,269.099,404.722z"/>
	</g>
	<g>
		<path fill-rule="evenodd" clip-rule="evenodd" fill="#F15A24" d="M378.474,666.915c14.549-3.295,34.254-2.831,43.79,1.028
			c0,0,0,0,3.771,6.292c6.717,11.209,12.594,24.472,13.39,37.204c0.716,11.566-0.568,26.938-14.129,32.898
			c-14.634,6.433-23.22-6.369-32.028-14.686c-6.145-5.805-9.998-13.983-15.275-20.774c-8.297-10.651-14.746-23.94-5.871-34.436
			C378.474,666.915,378.474,666.915,378.474,666.915z"/>
	</g>
	<g>
		<path fill-rule="evenodd" clip-rule="evenodd" fill="#F15A24" d="M407.953,449.905c6.723-10.378,17.278-19.832,23.464-21.017
			c6.19-1.182,19.256,21.465,14.531,53.082c0,0,0,0-23.906,4.112c-7.567,1.303-16.747,4.121-19.725-5.368
			c-1.995-6.343-0.773-14.807,1.803-21.208C407.953,449.905,407.953,449.905,407.953,449.905z"/>
	</g>
	<g>
		<path fill-rule="evenodd" clip-rule="evenodd" fill="#FBB03B" d="M602.351,590.816c-15.572,2.701-37.137,5.887-47.938,7.067
			c0,0,0,0-9.6,0.729c-16.324,1.228-32.676,3.298-48.986,3.029c-29.846-0.491-42.314-11.54-48.076-39.968
			c-2.994-14.771,3.837-22.686,18.573-20.576c47.521,6.795,95.028,13.695,142.435,21.22c4.691,0.748,9.973,5.313,12.383,9.574
			c1.135,2.016-2.902,9.057-6.262,11.142C602.351,590.816,602.351,590.816,602.351,590.816z"/>
	</g>
</g>
</svg>
