<?xml version="1.0" encoding="utf-8"?>
<!-- Generator: Adobe Illustrator 16.0.0, SVG Export Plug-In . SVG Version: 6.00 Build 0)  -->
<!DOCTYPE svg PUBLIC "-//W3C//DTD SVG 1.1//EN" "http://www.w3.org/Graphics/SVG/1.1/DTD/svg11.dtd">
<svg version="1.1" id="Capa_1" xmlns="http://www.w3.org/2000/svg" xmlns:xlink="http://www.w3.org/1999/xlink" x="0px" y="0px"
	 width="1200px" height="1200px" viewBox="0 0 1200 1200" enable-background="new 0 0 1200 1200" xml:space="preserve">
<g>
	<g opacity="0.3">
		<path fill-rule="evenodd" clip-rule="evenodd" fill="#C1272D" d="M321.71,993.601c-9.906-7.995-19.898-16.027-22.195-17.847
			c-2.27-1.819-5.91-3.971-6.203-4.025c0,0,0,0-0.863-0.056c-38.719-2.812-38.719-2.812-38.719-2.812
			c-26.715-25.235-62.922-49.938-80.473-54.846c0,0,0,0-11.176-11.542c-11.809-12.168-11.809-12.168-11.809-12.168
			c-4.824-19.52-22.969-54.827-40.301-78.5c0,0,0,0-10.348-20.714c-8.629-17.277-8.629-17.277-8.629-17.277
			c-9.84-13.362-21.254-27.331-25.355-31.043c-4.117-3.694-7.02-11.065-6.469-16.358c0.563-5.293,1.59-15.329,2.27-22.258
			c0,0,0,0,0.563-5.955c1.313-14.042,2.555-27.294,4.805-40.95c0.746-4.54,0.551-4.815-0.965-6.966
			c-10.566-14.962-12.324-31.154-13.602-42.936c-0.219-2.021-0.422-3.988-0.699-5.918c-1.461-10.182-1.871-21.173-1.285-33.617
			c0.066-1.488,0.047-3.051,0.055-4.613c0.02-10.862,0.047-27.313,11.223-42.586c4.98-6.837,6.672-16.064,8.988-30.547
			c1.047-6.58,2.141-13.16,3.621-19.74c5.98-26.467,5.98-26.467,5.98-26.467c17.656-31.797,32.828-58.889,33.719-60.231
			s6.57-10.44,12.617-20.218c0,0,0,0-2.039-3.878c-8.758-16.67-8.84-36.833-0.25-53.871c8.418-16.707,24.234-28.783,43.359-33.157
			c9.41-2.132,16.008-7.683,28.27-23.71c4.309-5.643,4.309-5.643,4.309-5.643c4.52-4.448,8.848-8.73,9.629-9.521
			c0.766-0.772,16.707-15.329,35.41-32.367c0,0,0,0,28.285,0c17.02,0,31.203,6.084,40.383,10.661
			c19.098,9.539,69.777,34.83,43.871,96.035c-0.531,1.286-0.531,1.286-0.531,1.286c-0.211,0.772,0.688,2.684,2.004,4.228
			c1.305,1.544,13.508,2.867,23.082-1.029c9.559-3.896,40.098-9.686,42.801-10.973c0,0,0,0,2.168-1.121
			c4.219-2.15,8.465-4.283,12.691-6.084c10.66-4.54,10.66-4.54,10.66-4.54c19.934-8.583,42.281-18.196,49.645-21.376
			c7.379-3.143,18.195-1.47,24.047,3.787c5.836,5.238,17.848,23.654,26.68,40.913c8.813,17.277,31.465,71.792,54.148,93.259
			c0,0,0,0,5.191,10.072c9.926,19.28,9.926,19.28,9.926,19.28c9.723,0,18.609-0.018,19.766-0.055
			c1.148-0.018,16.57,3.088,34.25,6.929c0,0,0,0,10.305,5.073c1.781,0.882,3.547,1.765,5.281,2.537
			c12.52,5.514,22.074,8.951,31.145,8.951c2.668,0,5.332-0.275,8.207-0.827c12.73-2.463,25.227-3.694,37.109-3.694
			c28.758,0,55.59,7.187,79.734,21.394c9.207,5.422,24.203,8.565,40.094,11.873c5.367,1.14,10.688,2.243,15.918,3.438
			c25.262,5.863,51.297,11.395,76.477,16.726c18.492,3.952,37,7.885,55.445,11.983c17.828,3.952,35.527,8.271,53.758,12.719
			c8.152,2.004,8.152,2.004,8.152,2.004c9.164,2.205,26.246,6.322,37.973,9.135c11.734,2.83,18.648,13.986,15.375,24.85
			c-3.27,10.825-12.57,29.72-20.66,41.96c-8.105,12.259-46.492,27.423-47.887,27.643c-1.387,0.202-7.031,1.066-12.535,1.912
			c0,0,0,0-1.875,0.771c-42.594,19.207-86.43,27.681-123.66,33.47c-6.754,1.029-14.668,2.15-23.23,2.15c-7.066,0-7.066,0-7.066,0
			c-7.152-1.25-36.938,8.105-66.215,20.824c-29.262,12.701-113.32,23.895-113.715,23.895c-0.387,0-12.746,5.036-27.48,11.211
			c0,0,0,0-9.629,0c-6.168,0-6.168,0-6.168,0c-6.055-1.249-20.273,1.508-31.594,6.176c0,0,0,0-14.125,0c-0.719,0-0.719,0-0.719,0
			c-0.809-0.019-2.059,0.386-2.766,0.9c-0.707,0.497-3.363,2.775-4.152,3.456c-0.781,0.717-5.367,4.687-10.184,8.841
			c-4.816,4.153-14.684,17.755-12.984,24.427c0,0,0,0-0.055,7.554c-0.137,29.463-23.637,51.666-54.66,51.666c-6.27,0-6.27,0-6.27,0
			c-6.836-1.508-13.887-2.353-15.688-1.839c0,0,0,0-1.609,0.46c-5.191,1.452-11.652,3.271-19.25,4.319
			c-16.176,2.205-32.488,3.327-48.449,3.327c-13.344,0-13.344,0-13.344,0c-14.199-1.287-26.754-2.463-27.902-2.629
			c-1.176-0.146-12.258,2.739-23.563,6.562c0,0,0,0-9.035,2.445c-4.16,1.121-4.16,1.121-4.16,1.121
			c-4.238,1.23-11.25,9.961-15.578,19.427c0,0,0,0-3.676,8.639c-0.156,0.331-0.156,0.331-0.156,0.331
			c-0.164,0.367-0.164,1.213,0.02,1.838c0.156,0.644,4.031,16.211,8.637,34.535c0,0,0,0,3.715,16.983
			c4.566,20.751,4.566,20.751,4.566,20.751c-9.75,10.495-18.004,19.391-18.336,19.758c-0.348,0.387-6.773,8.768-14.297,18.619
			C345.917,1000.07,331.636,1001.614,321.71,993.601z"/>
	</g>
	<g opacity="0.8">
		<path fill-rule="evenodd" clip-rule="evenodd" fill="#C1272D" d="M847.565,632.309c-6.039-2.775-32.617,6.947-59.027,21.541
			c-26.422,14.612-107.723,27.257-112.09,27.11c-4.383-0.11-17.055,5.238-23.699,7.131c-6.617,1.93-31,2.279-40.457,12.37
			c0,0,0,0-15.438-2.225c-8.852-1.249-8.852-1.249-8.852-1.249c-10.973,8.693-25.242,21.154-31.73,27.661
			c-6.496,6.525-46.316,19.464-47.273,24.06c-0.938,4.632-1.992,18.692,0.102,19.464c2.094,0.79,10.395,1.894,15.117,3.235
			c4.742,1.378,6.773,15.42,4.621,19.262c-2.176,3.842-18.902,4.172-26.125,4.889c-7.25,0.735-47.531,5.036-73.52,7.224
			c0,0,0,0-23.059-3.069c-9.316-1.231-9.316-1.231-9.316-1.231c-8.383,1.563-28.602,6.947-44.914,11.929c0,0,0,0-14.352,5.753
			c-5.563,2.205-11.223,7.7-13.852,13.142c-7.359,15.199-7.359,15.199-7.359,15.199c-6.527,16.854-9.594,40.271-6.84,51.979
			c2.77,11.727,8.586,43.817,7.602,45.307c-0.957,1.451-9.043,3.474-14.16-0.938c-5.094-4.393-33.699-11.268-45.004-13.822
			c-11.305-2.518-32.945-31.062-35.922-35.527c-2.953-4.448-27.02-12.793-34.934-18.38c-7.91-5.606-21.66-54.791-33.504-78.206
			c-11.855-23.416-52.777-91.973-51.063-113.698c0,0,0,0,2.75-17.884c1.984-12.938,0.617-23.434-7.004-35.05
			c-5.633-8.602-5.613-21.174-7.066-32.127c-1.168-8.749-1.285-17.755-0.891-26.577c0.387-8.951-0.891-19.832,3.594-26.431
			c13.574-20.015,13.16-42.476,17.801-64.568c5.246-24.997,5.246-24.997,5.246-24.997c13.832-25.658,36.859-63.999,51.16-85.19
			c0,0,0,0-12.875-26.43c-5.441-11.175-5.441-11.175-5.441-11.175c10.461-10.624,35.531-29.022,55.719-40.895c0,0,0,0,12.711-17.884
			c3.289-4.595,7.445-8.602,11.285-12.829c17.781-19.63,27.688-22.147,46.766-11.892c24.73,13.27,31.926,21.89,22.426,45.986
			c-12.277,31.209-12.277,31.209-12.277,31.209c20.105,17.865,47.016,36.374,59.809,41.115c0,0,0,0,11.32-7.977
			c12.516-8.841,25.656-12.884,41.227-13.932c10.355-0.68,10.355-0.68,10.355-0.68c11.012-6.764,26.754-15.384,34.988-19.188
			c8.223-3.805,30.941-0.496,33.625,15.182c2.684,15.641,15.797,60.635,26.395,64.384c10.613,3.786,37.844,40.05,46.828,51.96
			c8.988,11.928,52.918,21.78,58.109,23.544c5.176,1.764,27.066,11.101,37.57,15.531c10.492,4.43,54.789,2.206,69.418,1.103
			c14.633-1.103,61.895,17.7,73.465,21.817c11.578,4.099,61.262,17.148,83.82,22.368c22.563,5.22,92.598,22.001,105.602,25.327
			c12.984,3.346,46.031,16.726,42.797,21.872c-3.254,5.128-22.348,12.058-27.395,12.774c-5.055,0.734-32.457,10.585-51.16,17.184
			C924.495,623.468,853.612,635.065,847.565,632.309z"/>
	</g>
	<g>
		<path fill-rule="evenodd" clip-rule="evenodd" fill="#F15A24" d="M716.085,572.777c19.492-0.57,31.145,6.653,25.898,16.009
			c-5.25,9.373-44.426,15.181-59.91,16.89c-15.512,1.728-67.473,25.842-83.215,33.323c-15.734,7.48-71.746,27.496-87.691,33.064
			c-15.953,5.569-61.555,30.731-69.227,35.878c0,0,0,0-3.41,6.599c-12.086,23.397-36.676,30.014-56.012,43.413
			c-5.891,4.099-5.891,4.099-5.891,4.099c-9.449,0.019-32.77,1.268-51.84,2.757c-19.059,1.488-77.914,28.801-93.5,36.079
			c0,0,0,0-16.117-18.6c-15.422-17.792-15.422-17.792-15.422-17.792c-13.195-22.644-29.664-60.378-36.594-83.867
			c-6.91-23.452-11.789-96.163-8.793-107.522c2.965-11.377,16.742-49.791,22.688-60.34c0,0,0,0-0.449-9.264
			c-1.895-39.204-1.895-39.204-1.895-39.204c26.828-26.945,57.418-52.695,67.961-57.198c0,0,0,0,9.063,12.112
			c2.711,3.621,4.016,8.234,6.484,12.075c6.113,9.502,6.113,9.502,6.113,9.502c10.77,0,22.578-1.93,26.219-4.301
			c0,0,0,0,2.805,0.551c41.691,8.179,41.691,8.179,41.691,8.179c41.988-14.63,85.414-24.905,96.496-22.828
			c11.09,2.077,23.996,54.882,30.969,85.889c0,0,0,0,31.781,11.671c12.855,4.705,25.719,9.447,38.313,14.795
			c15.547,6.58,15.547,6.58,15.547,6.58c16.918,7.591,41.07,16.965,53.66,20.824C614.39,566.031,696.601,573.328,716.085,572.777z"
			/>
	</g>
	<g>
		<path fill-rule="evenodd" clip-rule="evenodd" fill="#FBB03B" d="M607.433,584.503c2.859,2.278,3.668,9.759,1.801,16.632
			c-1.855,6.875-35.098,26.155-58.695,36.245c-23.602,10.072-90.07,40.675-95.832,44.332c-5.754,3.677-29.438,21.854-40.813,30.952
			c-11.379,9.079-58.734,19.317-71.168,20.695c0,0,0,0-7.527-4.778c-23.672-15.09-41.066-4.025-59.043,9.521
			c-5.469,4.099-5.469,4.099-5.469,4.099c-6.285,4.136-30.098,10.605-52.934,14.373c0,0,0,0-11.652-24.721
			c-6.637-14.098-9.777-29.94-13.922-45.159c-4.176-15.311-7.445-30.859-11.563-46.17c-2.031-7.628-2.031-7.628-2.031-7.628
			c-2.82-8.124-0.156-59.605,5.891-114.432c0,0,0.762-6.874,30.941-53.283c4.082-6.231,4.082-6.231,4.082-6.231
			c10.395-8.197,21.523-10.899,24.691-5.992c3.191,4.926,21.902,14.263,33.527,8.29c11.633-5.955,55.352-9.447,65.219-10.918
			c9.871-1.434,42.328-10.476,51.199-12.958c8.887-2.463,36.52,37.734,46.527,53.816c10.008,16.083,64.285,53.724,82.883,63.778
			C542.14,565.001,604.573,582.224,607.433,584.503z"/>
	</g>
	<path fill-rule="evenodd" clip-rule="evenodd" fill="#FFF6A1" d="M356.409,495.729c16.59,0.993,35.234,10.017,41.465,20.107
		c6.23,10.072,32.035,40.546,41.363,47.438c0,0,0,0,9.09,5.367c9.18,5.44,19.621,8.896,28.223,15.053
		c13.234,9.447,13.902,18.673-0.082,27.662c-20.328,13.068-20.328,13.068-20.328,13.068c-24.086,11.542-48.516,23.048-54.285,25.584
		c-5.781,2.537-25.309,22.497-35.262,31.448c-9.945,8.97-66.195,17.699-90.402,20.291c0,0,0,0-21.559,4.779
		c-21.035,4.668-32.293,2.48-41.363-16.138c-9.348-19.115-9.348-19.115-9.348-19.115c-3.445-23.342-6.531-46.372-6.891-51.206
		c-0.332-4.853,1.645-50.14,4.586-89.895c0,0,0,0,36.016-24.482c19.461-13.271,19.461-13.271,19.461-13.271
		C279.269,489.645,339.839,494.754,356.409,495.729z"/>
</g>
</svg>
