<?xml version="1.0" encoding="utf-8"?>
<!-- Generator: Adobe Illustrator 16.0.0, SVG Export Plug-In . SVG Version: 6.00 Build 0)  -->
<!DOCTYPE svg PUBLIC "-//W3C//DTD SVG 1.1//EN" "http://www.w3.org/Graphics/SVG/1.1/DTD/svg11.dtd">
<svg version="1.1" id="Capa_1" xmlns="http://www.w3.org/2000/svg" xmlns:xlink="http://www.w3.org/1999/xlink" x="0px" y="0px"
	 width="1200px" height="1200px" viewBox="0 0 1200 1200" enable-background="new 0 0 1200 1200" xml:space="preserve">
<g>
	<g opacity="0.3">
		<path fill-rule="evenodd" clip-rule="evenodd" fill="#C1272D" d="M1140.753,555.383c-5.695-3.275-13.672-7.846-17.723-10.134
			c0,0,0,0-3.715-2.068c-7.406-4.15-14.418-8.069-20.871-12.182c-36.844-23.546-36.844-23.546-36.844-23.546
			c-41.477-4.554-77.703-8.541-80.523-8.872c-2.816-0.313-15.805-1.463-28.871-2.563c0,0,0,0-11.402-0.601
			c-20.758-1.081-40.375-2.124-55.824-7.541c-22.629-7.937-46.625-11.653-75.48-11.653c-12.91,0-25.52,0.717-37.723,1.374
			c-4.703,0.274-9.43,0.532-14.168,0.751c-4.398,0.201-8.828,0.348-13.254,0.348c-18.539,0-30.98-2.523-40.34-8.181
			c-9.586-5.777-24.559-13.481-43.895-13.481c-1.418,0-1.418,0-1.418,0c-1.574,0.073-1.406-1.812,0.348-4.189
			c1.758-2.378,0.328-9.073-3.176-14.872c-3.504-5.781-9.391-15.589-13.086-21.752c0,0,0,0-3.313-5.597
			c-8.016-13.503-16.289-27.479-25.305-41.127c-11.926-18.035-30.512-27.972-52.344-27.972c-7.391,0-15.164,1.172-23.09,3.516
			c-30.063,8.833-50.242,26.929-68.039,42.899c-3.863,3.455-7.723,6.932-11.684,10.262c-2.406,2.03-4.82,4.15-7.254,6.31
			c-4.133,3.661-4.133,3.661-4.133,3.661c-4.766,3.602-17.055,9.202-27.316,12.422c-10.262,3.235-48.57,37.684-66.195,46.595
			c0,0,0,0-9.625,8.047c-2.758,2.306-2.758,2.306-2.758,2.306c-3.105,2.416-6.523,4.995-7.586,5.726
			c-1.078,0.733-10.672,7.245-21.332,14.473c-10.645,7.245-28.359,68.948-41.5,95.383c0,0,0,0,4.156,23.653
			c1.141,6.533,1.141,6.533,1.141,6.533c2.645,6.528,1.738,10.228-2.039,8.231c-3.766-2.013-18.598-17.854-25.691-32.323
			c0,0,0,0-17.719-7.469c-1.008-0.42-1.008-0.42-1.008-0.42c-1.168-0.494,1.73-5.104,6.453-10.224
			c4.715-5.125,19.344-28.757,29.742-35.839c0,0,0,0,9.68-10.722c15.492-17.16,30.203-34.539,45.129-52.282
			c4.457-5.271,7.961-10.464,11.059-15.057c1.098-1.644,1.098-1.644,1.098-1.644c1.246-1.794,5.887-8.383,10.309-14.636
			c4.418-6.258,4.09-16.246-0.734-22.229c-4.828-5.961-9.543-11.871-10.488-13.116c0,0,0,0-0.73-0.987
			c-2.875-3.936-6.805-9.331-13.152-14.288c-17.336-13.521-15.496-17.615-12.188-25.062c5.676-12.734,4.777-24.551,4.18-32.384
			c-0.098-1.262-0.242-2.502-0.219-3.803c0.082-3.313,0.039-6.661-0.016-10.009c-0.055-3.438-0.145-8.632,0.266-10.263
			c0.641-2.468,3.188-7.15,5.66-11.688c1.918-3.532,1.918-3.532,1.918-3.532c2.145-4.134,6.688-13.245,10.125-20.232
			c3.445-6.988,1.406-16.924-4.543-22.079c-5.93-5.159-13.418-11.636-16.637-14.383c0,0,0,0-2.945-2.485
			c-4.875-4.099-4.875-4.099-4.875-4.099c-4.883-4.352-11.289-25.666-14.242-47.363c0,0,0,0-5.297-13.851
			c-2.094-5.502-4.09-10.7-5.156-15.073c-3.809-15.546-13.879-26.212-20.547-33.294c-1.48-1.57-1.48-1.57-1.48-1.57
			c-1.566-1.738-8.281-10.139-14.93-18.624c-6.668-8.507-19.035-9.897-27.504-3.095c-8.48,6.808-20.746,16.594-27.273,21.77
			c0,0,0,0-5.645,4.391c-13.973,10.906-27.168,21.203-39.785,33.007c-15.574,14.559-23.168,33.456-26.285,43.41
			c-4.113,13.061-7.52,26.104-10.824,38.728c-3.867,14.815-3.867,14.815-3.867,14.815c-4.363,14.675-9.273,28.633-10.93,31.011
			c0,0,0,0-1.57,2.068c-6.18,8.087-14.613,19.135-17.41,34.539c-1.16,6.455-1.418,12.438-1.617,17.232
			c-0.082,1.79-0.082,1.79-0.082,1.79c-0.129,2.124-5.223,30.825-11.328,63.775c0,0,0,0,4.668,10.207
			c6.539,14.322,6.539,14.322,6.539,14.322c8.672,20.563,15.98,62.549,16.227,93.318c0,0,0,0,6.48,12.019
			c1.164,2.18,2.355,4.3,3.324,6.459c8.48,18.971,8.48,18.971,8.48,18.971c17.207,9.842,31.246,18.036,31.176,18.221
			c-0.066,0.201-1.383,0.588-2.957,0.88c0,0,0,0-1.539,0.291c-5.359,1.005-5.359,1.005-5.359,1.005
			c-6.738,1.391-15.805,3.296-20.156,4.245c-4.363,0.952-9.824,4.776-12.16,8.473c-2.34,3.712-5.992,9.326-8.121,12.494
			c0,0,0,0-2.254,3.163c-8.016,11.344-18,25.447-24.145,42.899c-6.309,17.928-1.371,34.83,1.922,46.027
			c0.695,2.378,0.695,2.378,0.695,2.378c0.641,2.434-2.199,40.41-6.293,84.392c0,0,0,0,6.738,21.584
			c0.484,1.559,0.809,6.091,1.035,9.422c0.461,6.644,0.461,6.644,0.461,6.644c1.672,9.456,3.16,17.671,3.324,18.276
			c0.176,0.601,5.465,19.718,11.75,42.495c0,0,0,0,10.414,20.563c4.219,8.322,4.219,8.322,4.219,8.322
			c6.531,6.31,12.633,20.907,13.566,32.47c0.914,11.546,28.059,67.489,40.676,100.945c0,0,0,0,16.211,12.679
			c3.379,2.653,3.379,2.653,3.379,2.653c3.789,3.185,14.645,12.897,24.141,21.589c9.492,8.709,22.805,6.949,29.582-3.897
			c6.777-10.851,14.91-23.894,18.055-28.979c0,0,0,0,2.543-4.189c4.746-7.79,4.746-7.79,4.746-7.79
			c4.559-6.992,8.57-13.1,8.926-13.614c0.363-0.511,5.766-8.177,12.023-17.065c6.254-8.872,11.078-56.639,16.352-73.322
			c0,0,0,0,1.055-10.996c0.375-4.004,0.375-4.004,0.375-4.004c0.703-4.267,5.809-22.319,11.34-40.14
			c5.539-17.8,2.223-67.558,2.82-69.425c0,0,0,0,0.398-1.665c1.012-4.15,2.262-8.288,3.516-12.438
			c3.813-12.752,8.152-27.225,8.078-43.612c-0.055-14.455-0.055-14.455-0.055-14.455c-3.754-13.902-2.344-32.873,3.145-42.148
			c0,0,0,0,1.609-9.292c1.859-10.7,1.859-10.7,1.859-10.7c-3.242-11.327-3.492-17.782-0.578-14.361c0,0,0,0,3.906,6.219
			c3.926,6.275,8.367,13.392,14.738,20.452c29.98,33.259,29.98,33.259,29.98,33.259c32.23,18.843,61.035,35.234,64.027,36.44
			c2.977,1.206,27.836,11.215,55.238,22.229c0,0,0,0,14.93,18.679c10.48,13.117,24.695,17.615,33.195,20.306
			c0.93,0.292,0.93,0.292,0.93,0.292c0.945,0.31,6.914,2.871,13.27,5.688c6.344,2.837,15.766,1.3,20.934-3.399
			c5.176-4.704,15.504-14.271,22.977-21.259c0,0,0,0,6.523-6.275c13.887-13.391,27.012-26.031,41.254-35.323
			c12.727-8.327,34.051-22.229,35.863-50.11c0.523-7.919,0.523-7.919,0.523-7.919c-1.832-7.43-1.43-14.107,0.902-14.872
			c2.332-0.751,9.613-3.038,10.199-3.24c0.594-0.185,9.203-4.172,19.152-8.889c9.938-4.704,27.27-21.68,29.813-20.233
			c0,0,0,0,2.066,1.224c5.473,3.202,5.473,3.202,5.473,3.202c7.406,3.953,16.543,8.652,20.305,10.464
			c3.75,1.828,10.117,2.344,14.129,1.154c4.027-1.193,9.258-2.708,11.652-3.369c0,0,0,0,2.656-0.713
			c9.02-2.395,21.336-5.669,33.715-10.609c1.289-0.511,1.289-0.511,1.289-0.511c1-0.348,13.074,4.335,26.828,10.425
			c0,0,0,0,14.355,0c13.168,0,24.922-3.219,32.637-5.652c21.262-6.695,43.621-11.03,67.289-15.623
			c30.535-5.91,30.535-5.91,30.535-5.91c34.531-9.842,63.254-17.906,63.828-17.906s21.688-1.138,45.688-2.451
			c24.012-1.317,44.242-9.752,44.949-18.752c0.703-8.983,1.816-22.778,2.48-30.646
			C1150.589,567.77,1146.456,558.657,1140.753,555.383z"/>
	</g>
	<g opacity="0.8">
		<path fill-rule="evenodd" clip-rule="evenodd" fill="#C1272D" d="M1083.46,585.277c-0.082,0.987-15.832,2.669-35.016,3.747
			c0,0,0,0-17.434,0.97c-3.203,0.185-3.203,0.185-3.203,0.185c-3.492,0.236-30.461,5.76-59.93,12.292
			c-29.473,6.55-111.996,30.26-119.527,32.032c-7.535,1.777-31.297-6.82-37.734-8.559c-6.434-1.738-30.742,4.021-38.492,6.477
			c-7.758,2.43-36-2.253-52.762-13.446c0,0,0,0-12.074,0.785c-10.875,0.695-10.875,0.695-10.875,0.695
			c-11.953,11.765-27.402,25.976-34.328,31.577c0,0,0,0-7.457,2.377c-29.688,9.473-29.688,9.473-29.688,9.473
			c-10.098,12.499-13.746,31.14-8.117,41.385c0,0,0,0-0.566,8.781c-0.613,9.674-9.438,15.365-19.059,21.821
			C574.304,751.2,574.304,751.2,574.304,751.2c-22.52,23.254-48.203,40.393-57.066,38.104c0,0,0,0-4.504-5.776
			c-23.07-29.581-23.07-29.581-23.07-29.581c-36.09-13.778-89.227-40.634-118.074-59.677c0,0,0,0-20.25-23.049
			c-11.004-12.533-15.754-29.748-32.191-40.577c-18.375-12.112-18.375-12.112-18.375-12.112
			c9.996-28.079,22.863-56.123,28.613-62.343c0,0,0,0-1.172-3.622c-7.207-22.392-7.207-22.392-7.207-22.392
			c16.344-9.825,36.156-24.534,44.008-32.693c7.852-8.142,47.012-24.735,56.93-41.088c0,0,0,0,18.602-6.018
			c12.145-3.914,12.145-3.914,12.145-3.914c11.199-10.94,28.77-28.358,39.059-38.711c10.285-10.356,50.703-27.388,57.281-28.065
			c6.578-0.657,24.246,18.533,30.402,28.852c6.16,10.317,18.426,43.538,13.484,50.397c-4.949,6.863-16.684,29.255-13.137,31.796
			c3.551,2.563,13.996,7.464,14.57,4.755c0.582-2.703,2.938-8.777,4.254-8.815c1.309-0.034,6.945,4.189,11.734,8.159
			c4.793,3.97,26.773,1.704,33.219,1.061c6.43-0.64,45.77,13.043,72.375,21.095c0,0,0,0,25.383-1.21
			c36.852-1.756,36.852-1.756,36.852-1.756c40.031,5.014,87.301,10.958,105.039,13.246c17.734,2.266,97.012,10.885,136.492,14.451
			c0,0,0,0,31.418,20.598c10.566,6.936,10.566,6.936,10.566,6.936C1073.819,576.092,1083.542,584.29,1083.46,585.277z"/>
	</g>
	<g opacity="0.8">
		<path fill-rule="evenodd" clip-rule="evenodd" fill="#C1272D" d="M198.663,1035.619c-4.059,6.949-16.543,6.769-27.75-0.421
			c-11.215-7.172-16.094-45.826-16.715-50.11c-0.621-4.262-9.746-20.524-14.809-30.057c-5.047-9.512-0.582-38.818-6.895-42.659
			c-6.313-3.863-19.207-24.77-23.066-35.183c-3.863-10.387-12.598-43.667-12.98-50.14c-0.387-6.46-7.105-34.504-10.859-48.973
			c-3.742-14.456,8.207-54.994,8.742-57.866c0.551-2.871-1.77-16.245-4.293-23.524c-2.516-7.262,3.199-30.916,8.336-39.882
			c5.152-8.944,30.141-30.439,46.652-33.294c0,0,0,0,11.289-4.446c20.137-7.94,38.5-0.202,55.383,7.082
			c7.91,3.416,7.91,3.416,7.91,3.416c4.691,13.614,14.539,26.731,21.883,29.144c7.336,2.434,21.266,20.782,21.332,28.413
			c0.063,7.645-9.719,29.778-6.68,39.457c3.027,9.679,2.625,47.969-0.988,65.313c0,0,0,0-3.723,15.77
			c-1.207,5.064-1.207,5.064-1.207,5.064c-1.215,5.507-0.77,22.062,0.996,36.809c1.777,14.743-10.191,63.205-10.48,74.729
			c-0.301,11.546-16.367,39.81-16.926,41.62c-0.559,1.812-0.453,12.259-1.078,20.087
			C222.116,993.797,202.733,1028.666,198.663,1035.619z"/>
	</g>
	<g opacity="0.8">
		<path fill-rule="evenodd" clip-rule="evenodd" fill="#C1272D" d="M195.882,163.546c10.41-8.159,22.41-11.435,26.656-7.263
			c4.254,4.172,14.113,25.701,19.355,37.045c5.242,11.361,4.5,47.471,5.523,50.802c1.016,3.33,10.098,14.159,15.195,18.825
			c5.094,4.683,16.152,21.331,13.094,26.765c-3.051,5.451-8.355,23.946-8.676,29.195c-0.324,5.249-0.395,22.722,0.145,27.096
			c0.551,4.391-1.73,25.791-1.691,39.822c0.035,14.052,23.938,45.187,25.402,46.98c1.461,1.794,4.82,10.924,2.715,14.216
			c-2.102,3.309-14.699,19.224-22.512,28.723c-7.813,9.494-31.578,36.805-34.758,40.152c-3.191,3.348-16.793,11.966-21.605,14.524
			c-4.805,2.545-11.926,22.026-15.457,26.383c-3.531,4.37-20.813-1.3-18.508-8.197c2.305-6.915,4.172-25.062-1.121-24.495
			c-5.297,0.566-24.188,18.203-32.152,23.015c-7.969,4.828-28.039-18.68-33.594-27.058c-5.574-8.378,3.5-37.393,3.891-40.959
			c0.402-3.55-4.918-20.877-9.234-31.577c-4.328-10.7-19.969-48.222-24.344-59.965c0,0,0,0,9.98-10.94
			c9.973-10.94,6.461-25.739,8.789-38.968c2.188-12.365,2.188-12.365,2.188-12.365c9.676-12.366,20.813-34.835,24.75-49.887
			c3.938-15.057,17.336-59.017,19.641-64.597C151.858,205.239,185.476,171.723,195.882,163.546z"/>
	</g>
	<g>
		<path fill-rule="evenodd" clip-rule="evenodd" fill="#F15A24" d="M517.757,711.575c-11.957,0.46-35.453-9.18-52.203-21.421
			c-16.754-12.259-66.809-52.32-75.664-65.545c-8.848-13.228,15.785-53.166,20.984-58.836c5.215-5.652,23.289-32.945,34.262-45.681
			c10.98-12.751,56-35.637,65.504-35.307c0,0,0,0,6.102,4.356c14.625,10.465,27.523,23.323,41.324,34.938
			c4.715,3.97,9.605,9.111,15.195,10.43c26.801,6.33,26.801,6.33,26.801,6.33c29.766,5.726,61.027,12.091,69.48,14.139
			c8.449,2.068,22.09,24.662,14.992,32.804c-7.102,8.139-44.18,18.551-55.211,21.108c-11.051,2.58-42.984,22.482-50.328,25.358
			C571.659,637.121,529.714,711.1,517.757,711.575z"/>
	</g>
	<g>
		<path fill-rule="evenodd" clip-rule="evenodd" fill="#F15A24" d="M202.87,826.243c-8.781,28.431-38.918,32.474-66.973,8.962
			c0,0,0,0,1.527-37.152c0.172-4.189,0.172-4.189,0.172-4.189c-1.133-4.609-1.863-20.508-1.645-35.362
			c0.238-14.838,1.941-58.376,4.957-63.811c3.027-5.434,28.977-4.391,39.828-0.656C191.581,697.764,211.651,797.813,202.87,826.243z
			"/>
	</g>
	<g>
		<path fill-rule="evenodd" clip-rule="evenodd" fill="#F15A24" d="M141.339,412.839c0.121-19.194,6-40.763,13.063-47.935
			c7.063-7.168,27.441-41.233,36.305-55.467c0,0,0,0,13.055,5.104c15.566,6.095,15.566,6.095,15.566,6.095
			c0.945,18.182,0.32,36.607-1.383,40.921c-1.699,4.339-0.859,25.576,5.465,38.217C229.726,412.435,141.218,432.046,141.339,412.839
			z"/>
	</g>
	<g>
		<path fill-rule="evenodd" clip-rule="evenodd" fill="#FBB03B" d="M489.354,521.574c10.109-0.987,25.262-1.262,33.68-0.618
			c8.426,0.656,34.531,21.602,42.324,26.306c0,0,0,0,7.359,3.971c6.477,3.493,6.477,3.493,6.477,3.493
			c7.117,3.786,17.309,14.688,22.652,24.221c5.34,9.532-23.629,30.422-29.457,33.092c-5.832,2.652-30.828,17.035-42.641,25.868
			c0,0,0,0,0.32,16.375c0.152,7.918,0.152,7.918,0.152,7.918c-3.895,8.653-12.934,19.868-20.086,24.92
			c-7.141,5.048-29.324-7.373-32.113-11.232c-2.789-3.862-14.941-14.928-19.082-18.095c-4.141-3.163-24.703-11.58-35.48-16.976
			c-10.773-5.378-10.676-43.393-7.371-55.96c3.309-12.567,31.828-36.938,34.594-39.097
			C453.452,543.601,479.257,522.565,489.354,521.574z"/>
	</g>
	<g>
		<path fill-rule="evenodd" clip-rule="evenodd" fill="#FBB03B" d="M159.097,776.3c-1.383-4.846-1.633-11.889-0.531-15.64
			c1.09-3.752,10.344-13.958,16.406-16.61c6.074-2.652,17.523,15.129,18,25.1c0.477,9.967-11.531,27.547-15.492,28.959
			C173.511,799.533,160.476,781.167,159.097,776.3z"/>
	</g>
	<g>
		<path fill-rule="evenodd" clip-rule="evenodd" fill="#FBB03B" d="M178.597,387.48c4.773-2.927,16.914-0.622,26.984,5.143
			c0,0,0,0-0.723,12.31c-0.551,9.623-0.551,9.623-0.551,9.623c-7.719,6.55-18.281,9.991-23.48,7.609
			C175.644,419.809,173.823,390.408,178.597,387.48z"/>
	</g>
	<path fill-rule="evenodd" clip-rule="evenodd" fill="#FFF6A1" d="M476.358,539.631c24.43-1.442,47.008-1.442,50.168,0
		c3.172,1.464,15.789,20.967,21.238,34.341c5.473,13.37-23.824,49.522-27.512,53.179c-3.68,3.64-19.125,20.25-27.898,27.513
		c0,0,0,0-11.59-4.095c-9.996-3.532-9.996-3.532-9.996-3.532c-11.051-3.752-24.719-10.207-30.371-14.361
		c-5.66-4.15,0.285-32.38,6.715-44.745c0,0,0,0,6.879-10.648c3.98-6.164,11.672-10.426,14.215-16.902
		C476.358,539.631,476.358,539.631,476.358,539.631z"/>
</g>
</svg>
