<?xml version="1.0" encoding="utf-8"?>
<!-- Generator: Adobe Illustrator 16.0.0, SVG Export Plug-In . SVG Version: 6.00 Build 0)  -->
<!DOCTYPE svg PUBLIC "-//W3C//DTD SVG 1.1//EN" "http://www.w3.org/Graphics/SVG/1.1/DTD/svg11.dtd">
<svg version="1.1" id="Capa_1" xmlns="http://www.w3.org/2000/svg" xmlns:xlink="http://www.w3.org/1999/xlink" x="0px" y="0px"
	 width="1200px" height="1200px" viewBox="0 0 1200 1200" enable-background="new 0 0 1200 1200" xml:space="preserve">
<g>
	<g opacity="0.3">
		<path fill-rule="evenodd" clip-rule="evenodd" fill="#C1272D" d="M391.123,827.826c-22.631,2.514-47.352-11.075-69.451-12.597
			c-20.48-1.409-40.98,0.351-61.469-0.487c-41.133-1.677-81.734-14.856-113.375-41.751c-26.057-22.15-51.439-49.323-74.127-74.877
			C44.502,666.359,46.578,635.45,57.48,596.277c14.316-51.424,33.305-96.771,91.033-101.933c5.215-0.468,6.076-0.907,8.881-5.32
			c2.5-3.932,5.285-7.683,8.396-11.151c6.197-6.916,13.695-12.627,22.193-16.411c3.871-1.722,7.916-3.042,12.047-3.967
			c4.836-1.084,4.406-1.717,5.773-6.227c2.125-7.018,5.102-13.82,9.605-19.654c6.625-8.589,15.59-13.097,25.451-16.957
			c2.232-0.873,6.564,1.011,9.041,1.011c5.922,0,9.332-4.332,10.459-9.757c0.588-2.826,0.66-5.795,0.887-8.665
			c0.16-1.988-0.465-8.278,0.785-9.846c1.6-2.009,10.102-2.979,12.473-3.68c13.385-3.946,26.77-7.896,40.15-11.84
			c1.678-0.495,8.037,10.169,9.289,11.875c8.109,11.05,8.109,11.05,8.109,11.05c6.445,13.17,17.086,27.141,23.646,31.041
			c0,0,0,0,7.732,1.301c7.891,1.323,12.846-3.997,21.266-5.785c21.244-4.516,21.244-4.516,21.244-4.516
			c24.285,4.14,39.443,27.41,33.682,51.708c0,0,0,0,28,13.371c5.287,2.524,11.664,1.676,17.242,4.619
			c5.848,3.086,8.787,9.112,15.541,10.842c25.654,6.539,33.875-18.719,45.912,15.517c0.988,2.809,0.205,2.913,3.523,2.25
			c5.441-1.084,11.061-1.206,16.48,0.084c4.887,1.163,9.979,5.993,14.52,4.678c3.588-1.038,7.281-1.879,11.016-2.15
			c7.291-0.531,14.672,1.488,20.117,6.496c5.533,5.087,5.533,5.087,5.533,5.087c7.666,1.241,23.361-0.879,34.879-4.717
			c0,0,0,0,11.037,0.687c22.053,1.371,43.986,7.44,64.457,15.521c5.307,2.098,17.496,10.128,23.213,8.157
			c4.453-1.531,9.303-1.996,13.936-1.085c4.443,0.874,7.828,4.117,12.182,4.828c18.494,3.012,40.992,2.42,61.029,4.046
			c10.758,0.868,21.693,2.09,32.033,5.346c5.613,1.768,17.408,11.055,22.195,10.999c10.002-0.125,20.012-0.279,29.996,0.472
			c11.23,0.858,21.797,6.06,32.387,9.519c4.129,1.346,9.318,0.005,13.611-0.117c4.221-0.121,8.457,0,12.645,0.572
			c5.08,0.69,10.068,2.028,14.787,4.032c4.629,1.963,9.348,0.851,14.332,0.851c9.465,0.031,18.672,2.067,27.758,4.541
			c4.803,1.308,9.594,2.753,14.498,3.621c5.109,0.907,9.668,0.011,14.756,0.011c8.736,0,8.736,0,8.736,0
			c9.334,3.4,25.721,5.046,36.414,3.654c0,0,0,0,8.787,4.322c10.941,5.384,17.305,15.631,23.031,25.898
			c0.682,1.222,6.418,9.742,5.734,10.636c-2.877,3.754-5.754,7.512-8.629,11.266c-7.785,10.158-18.049,17.939-30.988,19.928
			c-8.637,1.334-16.807-0.754-25.443,0.955c-4.34,0.858-8.326,2.575-12.643,3.396c-5.619,1.062-10.109-1.318-15.484-1.318
			c-6.928,0-14.018,7.565-19.061,11.522c-4.262,3.34-8.523,6.679-12.787,10.019c-1.496,1.171-8.975-4.081-10.664-4.973
			c-6.486-3.41-12.832-3.634-20.127-3.421c-9.244,0.27-18.221,0.399-27.383,1.854c-11.861,1.887-23.742,3.824-35.791,2.715
			c-4.256-0.394-10.047-2.85-14.059-1.623c-4.932,1.503-9.777,3.276-14.77,4.589c-5.168,1.358-9.146,1.214-14.488,0.892
			c-9.756-0.59-19.492-1.136-29.268-1.25c-4.855-0.056-9.789,0.12-14.633-0.274c-4.984-0.4-11.51,3.094-16.273,4.628
			c-10.545,3.393-20.961,6.582-32.023,7.702c-6.758,0.688-13.457,0.47-20.205,0.882c-4.686,0.284-9.271,2.206-14.072,2.45
			c-5.16,0.262-10.332-0.259-15.352-1.485c-5.854-1.436-7.531-2.575-13.221-0.482c-5.514,2.031-11.117,3.834-16.863,5.079
			c-5.316,1.152-10.744,1.823-16.189,1.823c-2.793,0-6.236,3.946-9.059,5.12c-4.148,1.722-8.688,2.244-13.152,1.998
			c-6.252-0.345-9.75,3.525-14.658,7.332c-7.25,5.617-18.328,21.145-27.461,22.152c-6.609,0.734-7.723-5.92-13.033-8.797
			c-13.408-7.256-26.566-9.869-35.947,2.854c-3.584,4.86-5.844,11.827-11.842,14.422c-7.482,3.218-14.551-3.656-22.268-1.076
			c-7.484,2.504-11.193,11.268-14.861,17.465c-0.297,0.502-18.221-12.541-20.703-13.021c-8.146-1.575-13.672,3.405-21.553,5.711
			c-8.377,2.448-17.174,4.424-25.783,5.809c-4.893,0.787-23.424-3.145-24.197-2.688c-1.357,0.806-2.699,1.633-4.027,2.479
			c-3.379,2.129-2.205,2.71-2.715,6.334c-2.393,16.924-23.678,39.709-39.98,44.328C395.924,827.104,393.535,827.557,391.123,827.826
			z"/>
	</g>
	<g opacity="0.8">
		<path fill-rule="evenodd" clip-rule="evenodd" fill="#C1272D" d="M91.199,560.429c13.461-10.534,24.477-21.256,24.477-23.826
			c0-2.569,5.416-12.121,12.039-16.558c0,0,0,0,6.141-2.908c2.764-1.303,6.635-0.167,9.996-0.307
			c11.457-0.485,24.096-1.555,29.957-12.059c9.447-16.929,22.041-26.508,41.504-26.838c1.803-0.03,1.803-0.03,1.803-0.03
			c2.365-0.945,5.273-8.873,6.457-17.617c1.188-8.746,28.576-25.241,38.852-28.042c10.275-2.804,24.096-28.951,28.496-30.249
			c4.402-1.298,20.014,3.411,25.471,13.186c5.455,9.777,16.73,37.035,19.809,35.092c3.08-1.942,15.438-4.472,20.74-1.374
			c5.301,3.099,20.865,9.841,21.566,7.383c0.697-2.464,8.762-8.764,16.225-8.061c7.461,0.701,29.438,14.425,30.254,31.852
			c0,0,0,0,16,8.901c8.936,4.97,8.936,4.97,8.936,4.97c-0.107,11.158,4.869,22.246,11.068,24.636c0,0,0,0,4.645-8.632
			c4.311-7.997,7.271-6.125,14.039,1.077c5.441,5.79,5.441,5.79,5.441,5.79c7.984,4.706,17.701,6.75,21.596,4.541
			c3.893-2.21,18.879-0.587,20.502,4.04c1.625,4.627,12.523,12.094,21.023,7.477c8.498-4.619,26.971,14.318,31.264,10.856
			c0,0,0,0,3.818-1.333c4.422-1.544,11.955-3.746,13.723-1.75c10.338,11.664,10.338,11.664,10.338,11.664
			c15.479,2.156,37.545-0.462,49.031-5.822c0,0,0,0,13.488,1.752c22.092,2.867,42.393,9.475,62.396,18.549
			c7.799,3.535,16.094,8.081,25.338,3.454c1.051-0.528,2.867-0.909,3.656-0.371c16.104,10.938,35.926,0.303,52.414,9.063
			c2.113,1.125,5.148,1.818,7.357,1.229c13.842-3.69,26.727,0.363,39.457,4.681c5.309,1.801,14.92-3.119,14.93,8.53
			c0,0.686,3.209,1.942,4.934,1.963c13.477,0.16,27.01-0.645,40.414,0.371c6.996,0.533,13.727,4.254,20.645,6.313
			c5.213,1.552,10.609,4.108,15.799,3.834c11.088-0.589,21.563-2.364,32.5,3.338c5.852,3.047,14.283,1.27,21.557,1.442
			c18.445,0.441,35.221,11.217,54.402,8.276c5.135-0.787,10.867,2.723,16.396,3.929c4.848,1.062,10.559,3.639,14.568,2.1
			c14.764-5.665,14.764-5.665,14.764-5.665c6.699,10.89,5.84,25.726-1.908,32.974c0,0,0,0-11.783-2.06
			c-7.57-1.323-15.883,1.404-23.824,2.56c-2.443,0.354-5.162,2.728-7.084,2.108c-18.674-6.017-18.674-6.017-18.674-6.017
			c-14.354,12.185-37.777,20.207-52.049,17.825c0,0,0,0-13.709-0.063c-19.764-0.094-38.875,8.528-59.256,2.542
			c-7.502-2.207-7.502-2.207-7.502-2.207c-11.725,4.516-28.096,7.754-36.375,7.2c0,0,0,0-9.17-0.358
			c-8.072-0.313-16.166-0.238-24.25-0.439c-1.855-0.043-3.902-1.155-5.525-0.668c-11.756,3.546-23.334,7.705-35.158,10.981
			c-5.904,1.638-12.189,2.067-18.342,2.623c-6.193,0.564-12.805-0.594-18.574,1.158c-8.438,2.565-15.574,1.852-23.648-1.564
			c-4.365-1.841-10.896-0.922-15.623,0.904c-13.6,5.26-13.6,5.26-13.6,5.26c-15.455,0.027-30,4.332-32.324,9.566
			c0,0,0,0-10.357-1.245c-3.773-0.451-8.498,1.57-11.816,3.868c-8.783,6.075-8.783,6.075-8.783,6.075
			c-9.965,7.956-20.182,12.692-22.705,10.526c-2.521-2.164-10.379-6.857-11.836-5.603s-9.279,2.372-15.623,0.965
			c-6.346-1.406-24.637-1.028-27.211,3.82c-2.572,4.851-14.471,17.083-20.545,16.101c-6.078-0.978-22.762-2.202-23.361-0.498
			c-0.598,1.704-5.963,6.031-9.674,3.195c-3.711-2.842-16.068-10.194-17.898-9.031c-1.834,1.163-7.748,12.337-7.689,21.376
			c0,0,0,0-7.857-0.635c-10.166-0.815-10.166-0.815-10.166-0.815c-10.596,1.947-29.424,3.535-41.842,3.527c0,0,0,0-10.594,6.318
			c-3.975,2.372-3.975,2.372-3.975,2.372c-7.826-1.095-12.932,0.414-11.338,3.35c0,0,0,0,1.26,1.593
			c7.529,9.551,7.018,14.679-1.754,21.738c-5.156,4.154-5.156,4.154-5.156,4.154c-6.297,5.887-20.602,11.451-31.791,12.363
			c0,0,0,0-11.424-6.685c-5.482-3.205-14.607,0.564-21.74-0.724c-14.465-2.613-28.686-6.575-43.422-7.789
			c-11.119-0.916-22.014-3.309-32.822,3.078c-8.648,5.109-17.203,3.675-26.584-1.854c-8.783-5.171-19.928-6.237-29.885-9.544
			c-5.059-1.684-9.934-4.068-14.65-6.583c-7.959-4.24-7.959-4.24-7.959-4.24c-9.6-3.726-18.656-9.298-20.127-12.381
			c0,0,0,0-1.051-2.905c-5.992-16.513-16.373-27.384-34.668-30.467c-12.914-2.174-18.914-12.602-23.324-24.051
			c-1.684-4.365-3.572-9.993-7.109-12.029c-8.424-4.855-10.418-11.477-10.572-20.424c-0.283-16.207-0.283-16.207-0.283-16.207
			c-10.186-2.807-17.578-11.726-16.428-19.819c0,0,0,0,3.156-6.384c2.824-5.709,2.627-12.741,4.717-16.678
			c6.254-11.769,4.648-24.639,8.461-35.701C91.199,560.429,91.199,560.429,91.199,560.429z"/>
	</g>
	<g>
		<path fill-rule="evenodd" clip-rule="evenodd" fill="#F15A24" d="M289.617,472.991c-1.348,9.628,8.066,26.277,20.92,37.002
			c0,0,0,0,10.93,9.262c4.604,3.901,9.363,3.708,13.879,0.414c5.564-4.061,5.564-4.061,5.564-4.061
			c6.139-5.135,20.301-5.092,31.475,0.097c0,0,0,0,5.033,11.131c10.672,23.615,30.328,32.728,54.781,33.332
			c22.787,0.561,44.98,2.788,66.982,10.069c11.504,3.807,24.965,1.3,37.381,2.905c7.186,0.929,14.525,3.466,20.941,6.887
			c9.193,4.901,17.879,8.523,28.777,6.153c9.629-2.095,9.629-2.095,9.629-2.095c7.246,6.564,14.725,12.18,16.621,12.479
			c0,0,0,0,1.223,0.097c27.25,2.136,54.641-3.223,81.859,1.711c6.795,1.229,13.756,1.582,20.658,2.105
			c3.129,0.239,7.041-1.33,9.348,0.036c22.338,13.238,46.787,1.831,69.99,6.298c15.924,3.065,15.924,3.065,15.924,3.065
			c16.949,4.911,33.994,10.109,37.877,11.552c0,0,0,0,3.66,0.75c17.418,3.575,17.418,3.575,17.418,3.575
			c-4.648,11.721-21.223,22.211-36.83,23.309c0,0,0,0-14.875,1.095c-3.146,0.23-6.455,0.099-9.383,1.063
			c-19.029,6.275-38.945,1.75-57.848,4.49c-22.768,3.296-46.771,1.861-68.279,12.819c-5.537,2.824-11.816,5.44-17.877,5.75
			c-24.49,1.265-49.031,1.463-73.545,2.352c-5.592,0.206-11.363,0.914-16.65,2.629c-6.559,2.128-12.594,6.16-19.73,1.938
			c-0.996-0.587-2.773-0.939-3.668-0.45c-15.199,8.274-32.836,2.911-48.043,8.043c-16.105,5.435-32.988,3.883-49.277,10.148
			c-15.762,6.06-15.762,6.06-15.762,6.06c-19.854,0.106-44.609-1.1-55.01-2.682c0,0,0,0-9.301-1.938
			c-9.227-1.92-14.791,1.786-18.666,9.029c-3.846,7.196-7.482,14.617-10.137,22.31c-6.006,17.409-17.104,25.305-35.633,23.296
			c-10.648-1.153-21.178-3.472-31.734-5.395c-5.979-1.095-5.855-0.863-22.604,3.952c-3.742,1.076-8.498-1.11-12.727-2.05
			c-9.094-2.014-9.094-2.014-9.094-2.014c-9.98-2.306-41.492-12.416-70.021-22.465c0,0,0,0-17.609-23.167
			c-2.654-3.491-5.211-7.735-8.855-9.681c-14.617-7.807-20.496-21.937-26.627-35.717c-2.17-4.876-2.488-10.833-2.572-16.312
			c-0.131-8.792,1.846-17.754,0.729-26.36c-1.494-11.499,3.564-19.247,12.814-22.712c14.66-5.492,23.346-14.973,30.627-28.715
			c5.656-10.681,16.477-18.684,25.252-27.633c4.838-4.927,10.303-9.231,15.285-14.028c16.732-16.099,33.328-32.339,50.098-48.399
			c3.18-3.045,6.75-5.76,10.422-8.203c11.617-7.725,16.895-7.875,25.717-1.155C289.617,472.991,289.617,472.991,289.617,472.991z"/>
	</g>
	<g>
		<path fill-rule="evenodd" clip-rule="evenodd" fill="#FBB03B" d="M126.039,635.854c5.973-23.786,23.809-46.012,39.639-49.39
			c0,0,0,0,3.201-17.777c0.998-5.536,7.492-9.906,10.777-15.234c15.475-25.114,39.529-41.354,61.434-59.814
			c2.373-2.002,5.617-3.03,7.814-5.166c12.83-12.487,13.363-12.627,23.764,0.049c9.924,12.091,21.008,22.982,27.402,38.146
			c2.967,7.034,12.609,12.729,20.484,15.692c5.066,1.904,5.066,1.904,5.066,1.904c7.947-3.189,19.031-0.503,24.635,5.971
			c0,0,0,0-11.68,5.114c-4.402,1.928-4.402,1.928-4.402,1.928c-5.479,2.121-4.627,9.612,1.895,16.645c0,0,0,0,9.158-4.473
			c2.838-1.384,6.285-2.057,8.484-4.099c10.537-9.79,10.537-9.79,10.537-9.79c10.549,6.547,27.313,8.978,37.25,5.399
			c0,0,0,0,9.484,5.181c4.031,2.204,9.865,1.064,14.873,1.536c4.402,0.412,8.834,0.701,13.178,1.468
			c33.955,5.999,47.285,8.381,47.285,8.381c30.008,5.361,73.951,13.211,97.656,17.447c0,0,0,0,20.291,9.741
			c9.607,4.612,20.939,7.733,32.861,4.239c4.813-1.412,10.85,1.398,16.34,2.217c3.012,0.452,6.24,1.638,9.041,1.013
			c28.338-6.356,29.371-6.171,29.371-6.171c29.996,5.399,64.039,13.462,75.65,17.917c0,0,0,0,12.057-4.193
			c3.994-1.389,10.254,0.422,14.084,2.913c3.018,1.966,5.76,7.558,5.158,10.913c-0.523,2.905-5.699,6.625-9.199,7.082
			c-23.105,3.007-46.271,6.637-69.498,7.305c-22.082,0.64-41.592,10.135-62.592,14.074c-8.006,1.506-15.975,3.575-24.053,4.223
			c-16.586,1.321-32.67-1.13-49.633,6.339c-13.996,6.158-32.154,2.642-48.422,3.965c-7.34,0.597-14.572,2.524-21.846,3.88
			c-0.607,0.114-1.24,0.798-1.734,0.679c-22.781-5.336-43.986,10.019-66.855,5.066c-4.535-0.983-11.008-1.011-14.279,1.513
			c-17.219,13.27-36.494,7.394-54.732,5.92c-9.143-0.736-15.373-1.254-21.25,6.723c-2.58,3.505-8.402,7.159-12.273,6.699
			c-10.588-1.262-16.514,4.525-22.604,11.154c-4.27,4.652-8.809,9.061-12.969,13.8c-4.969,5.668-10.729,7.898-18.461,7.207
			c-5.354-0.478-10.916,1.341-16.379,2.159c-6.359,0.952-12.947,5.447-18.559-2.421c-1.047-1.468-5.607-0.489-8.549-0.538
			c-8.141-0.13-16.289-0.109-24.428-0.327c-14.145-0.387-24.043-7.586-33.949-17.559c-10.475-10.545-23.381-19.213-36.449-26.504
			c-15.146-8.446-22.104-22.287-22.918-37.107C126.039,635.854,126.039,635.854,126.039,635.854z"/>
	</g>
	<path fill-rule="evenodd" clip-rule="evenodd" fill="#FFF6A1" d="M355.178,682.768c-13.844-7.872-27.074-11.773-29.4-8.67
		c-2.328,3.104-8.887,17.938-14.471,28.313c0,0,0,0-7.795,7.426c-1.975,1.88-4.916,3.764-7.479,3.851
		c-15.527,0.549-15.527,0.549-15.527,0.549c-17.088-0.033-37.002-0.376-44.244-0.755c0,0,0,0-6.545,4.063
		c-12.057,7.481-16.984,6.372-27.447-3.659c-2.502-2.4-5.416-4.703-7.012-7.659c-7.973-14.781-22.904-20.465-36.568-26.961
		c-8.977-4.267-13.914-9.706-15.158-18.96c-2.6-19.359,1.51-37.932,7.672-56.054c2.977-8.746,2.977-8.746,2.977-8.746
		c12.725,1.947,25.561-1.341,28.529-7.307c0,0,0,0-0.783-6.188c-1.412-11.149,3.6-17.686,12.492-24.396
		c12.158-9.178,23.158-20.299,33.092-31.925c13.799-16.145,42.865-14.206,53.818,3.756c7.615,12.487,13.547,26.985,28.943,32.956
		c1.283,0.498,2.33,2.601,2.766,4.157c3.83,13.688,15.195,12.145,25.396,12.482c16.777,0.554,33.541-1.488,50.223,3.561
		c9.727,2.943,20.17,4.012,30.781,0.484c4.844-1.612,11.434-0.432,16.482,1.468c23.873,8.965,48.117,14.78,73.885,14.247
		c7.184-0.152,15.021,2.148,21.533,5.387c8.848,4.406,8.848,4.406,8.848,4.406c9.9-0.963,20.098,2.144,22.66,6.907
		c0,0,0,0,3.445,1.521c3.777,1.669,9.242,1.069,13.49-0.175c12.234-3.594,23.732-3.33,35.367,2.471
		c10.844,5.404,21.719,0.015,32.285-2.034c9.922-1.923,9.922-1.923,9.922-1.923c4.832,7.316,2.908,19.169-4.277,26.338
		c0,0,0,0-12.43-0.424c-12.865-0.439-25.887,4.446-38.893,6.689c-5.688,0.978-11.564,1.983-17.256,1.579
		c-20.645-1.473-39.625,4.14-59.209,9.979c-14.408,4.294-30.826,3.44-46.172,2.366c-10.271-0.716-19.4-1.201-28.023,5.06
		c-11.811,8.578-24.996,9.406-38.01,4.246c-9.588-3.807-9.588-3.807-9.588-3.807c-5.986,4.556-18.48,8.253-27.766,8.223
		c0,0,0,0-6.689,2.326C355.178,682.768,355.178,682.768,355.178,682.768z"/>
</g>
</svg>
