<?xml version="1.0" encoding="utf-8"?>
<!-- Generator: Adobe Illustrator 16.0.0, SVG Export Plug-In . SVG Version: 6.00 Build 0)  -->
<!DOCTYPE svg PUBLIC "-//W3C//DTD SVG 1.1//EN" "http://www.w3.org/Graphics/SVG/1.1/DTD/svg11.dtd">
<svg version="1.1" id="Capa_1" xmlns="http://www.w3.org/2000/svg" xmlns:xlink="http://www.w3.org/1999/xlink" x="0px" y="0px"
	 width="1200px" height="1200px" viewBox="0 0 1200 1200" enable-background="new 0 0 1200 1200" xml:space="preserve">
<g>
	<g opacity="0.3">
		<path fill-rule="evenodd" clip-rule="evenodd" fill="#C1272D" d="M54.828,988.212c-3.586-13.14-5.633-37.51-4.527-54.158
			c1.094-16.648,9.973-47.551,10.316-48.285c0.352-0.749,3.078-6.606,6.059-13.008c0,0,0,0,1.078-4.536
			c1.504-6.298,2.613-13.007,3.797-20.112c3.465-20.876,3.465-20.876,3.465-20.876c10.348-24.929,20.305-51.883,22.137-59.898
			c0,0,0,0,1.891-5.872c2.762-8.588,3.59-11.921,2.707-13.506c-9.488-17.045-9.488-17.045-9.488-17.045
			c5.055-18.732,5.938-35.939,1.977-38.215c-3.969-2.305-4.105-10.085-0.309-17.323c3.793-7.223,12.977-20.993,20.406-30.595
			s27.57-29.127,28.164-29.611c0.602-0.499,4.555-3.229,8.801-6.078c4.238-2.848,12.344-8.603,9.094-9.571
			c-3.25-0.983-7.289-4.771-8.984-8.441c-1.68-3.671-4.824-10.409-6.977-14.989c0,0,0,0-1.762-3.7
			c-3.91-8.177-7.609-15.899-10.707-24.12c-4.563-12.053-9.566-25.34-11.855-39.785c-4.742-29.861-4.742-29.861-4.742-29.861
			c-3.48-30.374-6.352-55.479-6.383-55.758c-0.031-0.278-1.023-9.249-2.203-19.907c-1.176-10.644,12.801-42.604,12.512-43.484
			c0,0,0,0-0.719-1.351c-0.383-0.734-0.836-1.453-1.281-2.202c-3.43-5.74-3.43-5.74-3.43-5.74
			c-2.945-12.229-5.277-24.194-5.184-26.602c0.078-2.423,0.5-13.037,0.93-23.622c0.43-10.585-17.141-53.13-26.918-71.613
			c-9.773-18.469-0.707-28.569,20.156-22.462c20.863,6.122,43.102,13.83,49.414,17.133c6.32,3.303,19.031,12.684,20.898,11.73
			c1.863-0.954,7.441,1.952,12.406,6.474c4.957,4.537,21.219,24.135,36.137,43.558c0,0,0,0,8.477,16.883
			c7.449,14.784,13.863,27.556,23.945,35.66c15.691,12.713,15.691,12.713,15.691,12.713c-0.465,11.995-0.098,22.814,0.809,24.048
			c0,0,0,0,0.754,0.998c5.145,6.856,5.145,6.856,5.145,6.856c5.211,12.303,10.563,21.991,11.891,21.58
			c1.332-0.439,24.145-16.956,47.488-36.041c0,0,0,0,27.438,0c22.086,0,42.797,8.354,58.332,23.489
			c11.953,11.687,13.172,27.908,12.828,36.556c-0.242,6.298-0.242,6.298-0.242,6.298c-1.879,5.96-0.273,11.51,3.566,12.332
			c0,0,0,0,3.781,1.086c26.105,7.414,51.938,15.899,76.914,24.106c4.805,1.57,4.805,1.57,4.805,1.57
			c5.262,1.732,10.309,2.688,11.191,2.129c0.883-0.558,3.012-3.083,3.547-4.727c0.504-1.645,3.844-13.081,6.152-21.053
			s21.375-11.143,42.379-7.047c21.015,4.096,39.57,11.437,41.25,16.296c1.668,4.859,4.066,12.038,5.313,15.943c0,0,0,0,1.008,3.406
			c1.281,4.345,2.602,8.838,3.77,10.819c0.609,1.013,0.609,1.013,0.609,1.013c1.816,1.938,3.555,3.523,3.852,3.523c0,0,0,0,0.27,0
			c18.457,0,37.051,5.755,53.793,16.634c4.023,2.628,8.477,3.787,14.453,3.787c3.402,0,7.258-0.41,11.477-1.218
			c8.367-1.601,15.352-2.349,21.977-2.349c11.438,0,11.438,0,11.438,0c10.605,3.772,23.949,1.996,29.664-3.936
			c5.711-5.945,15.973-6.547,22.805-1.32c6.832,5.211,14.688,10.863,17.449,12.537c0,0,0,0,5.352,0
			c5.801,0,13.332-1.321,21.313-2.73c6.617-1.175,6.617-1.175,6.617-1.175c8.461-1.146,19.805-2.555,25.219-3.112
			c5.402-0.543,12.418,2.422,15.578,6.621c3.16,4.184,16.832,15.709,30.387,25.604c0,0,0,0,31.891,1.101
			c19.016,0.646,36.418,4.684,53.25,8.589c7.398,1.718,14.391,3.332,21.195,4.58c2.996,0.543,6.031,0.852,9.051,1.175
			c5.25,0.572,11.195,1.219,17.574,2.599c7.77,1.703,13.688,4.815,18.914,7.561c1.891,0.998,1.891,0.998,1.891,0.998
			c2.703,1.351,25.719,12.391,51.148,24.531c25.434,12.142,17.504,26.588-17.625,32.107c-35.125,5.506-82.164,12.89-104.535,16.398
			c0,0,0,0-19.258,3.127c-1.227,0.206-1.227,0.206-1.227,0.206c-0.984,0.161-26.383,9.352-56.434,20.436c0,0,0,0-24.945,3.685
			c-6.176,0.91-12.363,1.836-18.504,2.937c-6,1.087-12.391,2.76-19.164,4.521c-9.34,2.452-9.34,2.452-9.34,2.452
			c-11.152,2.246-21.273,4.242-22.488,4.419c-1.211,0.176-13.387,2.055-27.043,4.169c0,0,0,0-6.43,5.256
			c-6.543,5.388-15.113,8.383-24.094,8.383c-4.824,0-4.824,0-4.824,0c-3.805-0.837-11.156-1.16-16.34-0.72
			c-5.188,0.426-22.918,7.032-27.164,13.272c-4.23,6.254-13.961,8.029-21.629,3.948c-7.664-4.081-16.605-8.765-19.859-10.408
			c0,0,0,0-2.918-1.396c-4.102-1.952-4.102-1.952-4.102-1.952c-4.859-2.511-8.816,4.978-8.805,16.634c0,0,0,0-5.953,8.75
			c-5.52,8.104-5.52,8.104-5.52,8.104c-18.434,6.122-34.086,11.172-34.793,11.216c-0.711,0.044-4.918,0.279-9.352,0.544
			c0,0,0,0-4.035,0c-13.035,0-23.718-2.408-32.667-7.341c-8.438-4.653-16.008-6.841-23.871-6.841c-2.676,0-5.41,0.249-8.344,0.733
			c-2.613,0.426-5.328,0.646-8.063,0.661c-1.832,0-1.832,0-1.832,0c-2.027-0.162-26.297,9.557-53.918,21.625
			c-27.633,12.038-51.262,19.599-52.527,16.795c-1.266-2.819-4.879-3.304-8.027-1.072c-3.152,2.217-9.305,1.512-13.676-1.586
			c-4.367-3.098-8.199-5.725-8.52-5.828c-0.313-0.117-2.074,3.377-3.922,7.737c-1.832,4.375-7.848,20.083-5.863,25.97
			c0,0,0,0,1.617,5.564c0.887,3.024,0.887,3.024,0.887,3.024c1.148,3.772,5.449,17.528,9.582,30.58
			c4.137,13.052-4.168,22.257-18.445,20.479c-14.27-1.791-28.363-3.508-31.301-3.802c0,0,0,0-2.496-0.206
			c-12.852-1.042-12.852-1.042-12.852-1.042c-22.668-15.356-48.559-32.724-57.52-38.625c-8.973-5.902-27.129-23.695-28.723-22.8
			s-6.781,4.022-7.527,5.153c-0.738,1.115-2.961,4.595-3.555,5.534c-0.586,0.939-5.766,9.278-11.5,18.527c0,0,0,0-5.055,8.485
			c-6.113,10.276-12.449,20.905-19.383,31.388c-12.746,19.276-12.746,19.276-12.746,19.276
			c-14.574,20.554-28.797,40.637-31.633,44.63c-2.816,3.979-7.324,9.513-10.02,12.258c-2.691,2.775-27.488,21.904-51.613,40.035
			C81.093,997.24,58.425,1001.336,54.828,988.212z"/>
	</g>
	<g opacity="0.8">
		<path fill-rule="evenodd" clip-rule="evenodd" fill="#C1272D" d="M94.203,944.551c-8.137,6.46-14.09-5.55-13.227-26.704
			c0,0,0,0,7.828-17.896c3.527-8.06,3.527-8.06,3.527-8.06c3.152-9.161,6.992-29.714,8.531-45.657
			c1.543-15.959,29.125-70.381,37.906-91.433c0,0,0,0-11.477-21.771c-3.539-6.739-3.539-6.739-3.539-6.739
			c2.992-10.834,7.828-24.678,10.738-30.771c2.918-6.093,1.52-31.314,12.805-46.318c0,0,0,0,12.379-10.878
			c13.809-12.127,13.809-12.127,13.809-12.127c14.578-0.543,28.523,9.88,30.988,23.195c0,0,0,0,15.555-0.073c2.77,0,2.77,0,2.77,0
			c5.438-4.918,6.523-10.511,2.41-12.464c-4.098-1.952-12.586-10.071-8.855-13.301c3.727-3.229,10.488-13.345,8.309-16.633
			c-2.191-3.304-5.91-16.634-1.996-20.157c3.922-3.523,10.02-14.373,3.906-15.43c-6.113-1.071-21.441,10.688-29.645,8.074
			c-8.207-2.613-29.484-18.498-35.535-31.578c0,0,0,0-3.691-10.335c-3.938-11.025-3.938-11.025-3.938-11.025
			c-3.172-12.523-7.418-35.293-9.445-50.62c-2.02-15.312-8.074-68.735-9.867-84.547c0,0,0,0,8.996-13.624
			c6.957-10.512,6.957-10.512,6.957-10.512c-3.805-12.89-8.316-25.662-10.047-28.407c-1.719-2.745-2.156-21.581-1.156-35.88
			c1.016-14.285-9.34-46.964-5.074-36.79c4.262,10.144,43.613,35.674,59.965,71.613c0,0,0,0,28.23,24.018
			c1.359,1.175,1.359,1.175,1.359,1.175c1.074,1.629,5.039,9.469,8.801,17.411c3.766,7.957,9.363,34.265,9.434,39.286
			c0.07,5.006,2.426,23.475,5.242,26.029s19.578-0.676,28.508-15.077c0,0,0,0,19.836,2.643c2.895,0.396,2.895,0.396,2.895,0.396
			c4.082-6.605,30.723-25.485,59.195-41.942c0,0,0,0,20.977,21.624c3.887,4.023,3.887,4.023,3.887,4.023
			c-1.797,9.615-8.98,26.616-15.953,37.803c0,0,0,0,3.465,13.873c1.398,5.594,1.398,5.594,1.398,5.594
			c-4.758,9.528-4.145,16.002,1.348,14.402c0,0,0,0,1.43-2.158c9.711-14.593,9.711-14.593,9.711-14.593
			c15.047,3.142,42.32,10.688,60.613,16.78c18.285,6.092,72.52,18.513,80.105,13.888c7.578-4.639,23.734-29.86,28.492-28.877
			c4.754,0.969,17.016,7.619,18.348,12.919c1.332,5.314,9.355,20.51,12.484,24.253c3.129,3.759,20.617,15.708,29.089,15.386
			c8.473-0.323,44.852,14.637,62.59,20.67c0,0,0,0,16.809-3.405c18.926-3.832,18.926-3.832,18.926-3.832
			c13.27,13.756,27.688,21.097,32.055,16.296c4.367-4.786,26.258-15.532,39.383-13.653s71.57,14.666,97.363,31.901
			c0,0,0,0,31.469,1.146c21.938,0.778,21.938,0.778,21.938,0.778c23.945,6.503,50.828,12.61,59.75,13.564c0,0,0,0,7.902,1.806
			c4.504,1.043,4.504,1.043,4.504,1.043c6.906,4.037,0,9.425-15.34,11.936c-15.336,2.539-57.355,9.63-62.508,10.467
			c0,0,0,0-3.59,2.408c-25.273,16.971-54.824,17.999-83.262,23.431c-15.188,2.921-15.188,2.921-15.188,2.921
			c-16.461,4.39-45.816,10.071-65.23,12.641c0,0,0,0-14.457,12.537c-2.047,1.792-7.91-1.512-11.906-1.174
			c-15.691,1.306-31.383,2.818-46.941,5.108c-2.219,0.323-2.219,0.323-2.219,0.323c-2.398,5.212-9.031,7.296-14.723,4.61
			c-5.711-2.688-22.574-13.845-27.805-16.37c-5.234-2.54-21.594,8.001-25.023,11.599c-3.434,3.611-12.219,15.898-10.73,17.998
			c1.492,2.114,4.977,15.576,5.898,25.119c0,0,0,0-12.691,0.749c-8.961,0.514-8.961,0.514-8.961,0.514
			c-9.793-1.601-32.777-8.911-51.09-16.223c0,0,0,0-18.852,3.304c-4.949,0.881-4.949,0.881-4.949,0.881
			c-3.137-1.483-16.465,2.261-29.609,8.338c-13.137,6.049-52.113,21.522-53.203,18.969c-1.094-2.54-9.016-10.042-13.395-6.783
			c-4.383,3.273-20.926,8.765-26.523,4.566c-5.602-4.214-21.66-14.564-22.105-12.846c-0.445,1.731-4.188,7.267-6.758,6.327
			c-2.574-0.954-12.477,0.366-14.254,5.77c0,0,0,0,1.633,2.804c9.25,15.782,9.25,15.782,9.25,15.782
			c-8.281,14.284-17.742,32.371-21.027,40.211c0,0,0,0,3.582,8.368c3.359,7.84,3.359,7.84,3.359,7.84
			c2.898,11.143-8.973,20.406-26.383,20.538c0,0,0,0-4.496-18.469c-0.801-3.288-6.203-6.519-10.117-7.796
			c-14.359-4.609-22.227-13.153-30.832-26.646c-7.805-12.243-7.805-12.243-7.805-12.243c-2.738-13.081-5.563-25.971-6.266-28.672
			c-0.695-2.688-5.742-11.921-7.699-8.09c-1.945,3.832-6.148,17.793-8.281,25.223c-2.133,7.428-25.602,25.94-32.406,33.046
			c0,0,0,0-4.66,7.649c-11.32,18.541-21.246,37.949-32.766,56.359c-14.895,23.798-14.895,23.798-14.895,23.798
			c-17.281,25.618-32.309,47.404-33.398,48.417C125.964,919.124,102.335,938.091,94.203,944.551z"/>
	</g>
	<g>
		<path fill-rule="evenodd" clip-rule="evenodd" fill="#F15A24" d="M733.062,631.173c-30.371,3.304-71.637,4.302-91.711,2.231
			c0,0,0,0-16.375,12.802c-10.047,7.84-23.047,8.412-36.593,7.003c-11.27-1.188-23.699,1.601-34.609,5.462
			c-19.375,6.87-19.375,6.87-19.375,6.87c-21.727-0.426-47.203-1.087-56.613-1.453c-9.418-0.367-65.734,9.058-104.723,12.728
			c0,0,0,0-35.066-8.646c-11.234-2.774-14.781-13.403-15.391-23.71c-1.293-21.61,2.234-43.338-7.027-64.581
			c-3.941-9.058-3.941-9.058-3.941-9.058c15.949-14.739,33.414-27.63,38.809-28.643c5.406-0.998,54.648,1.248,97.406,4.801
			c0,0,0,0,39.305-8.765c42.648-9.513,47.141-7.811,47.141-7.811c41.176,15.68,94.117,33.942,117.66,40.593
			c23.547,6.621,91.977,13.507,96.996,14.196c5.023,0.705,19.848,7.972,23.691,10.996c3.852,3.039,3.395,19.746-1.383,29.699
			c0,0,0,0-10.707,1.483C733.062,631.173,733.062,631.173,733.062,631.173z"/>
	</g>
	<g>
		<path fill-rule="evenodd" clip-rule="evenodd" fill="#F15A24" d="M200.5,728.771c-10.055,2.951-15.824-4.742-12.84-17.104
			c2.992-12.36,46.98-20.054,47.727-13.374C236.125,704.959,210.55,725.82,200.5,728.771z"/>
	</g>
	<g>
		<path fill-rule="evenodd" clip-rule="evenodd" fill="#F15A24" d="M240.414,506.298c-7.391,3.317-14.941,1.526-16.77-3.993
			c-1.832-5.505-2.262-23.093,4.645-22.153C235.195,481.076,247.804,502.965,240.414,506.298z"/>
	</g>
	<g>
		<path fill-rule="evenodd" clip-rule="evenodd" fill="#FBB03B" d="M664.229,594.236c3.41,9.249-2.543,21.786-13.219,27.879
			c0,0,0,0-12.004-0.044c-11.07-0.059-11.07-0.059-11.07-0.059c-10.832,4.565-31.246,11.759-45.363,15.987
			c-14.121,4.242-69.234,6.386-88.09,5.843c-18.859-0.528-75.844,13.051-85.609,15.004c-9.762,1.938-44.699-2.041-56.176-7.312
			c0,0,0,0-3.969-8.339c-6.887-14.475-6.887-14.475-6.887-14.475c-2.379-17.955-1.383-38.317,2.207-45.262
			c3.598-6.943,22.879-24.326,31.012-26.19c0,0,0,0,7.73-0.264c12.703-0.44,12.703-0.44,12.703-0.44
			c13.98,0.19,29.352-0.25,34.152-0.984c4.805-0.719,21.418,6.181,26.863,6.695c0,0,0,0,5.059-0.455
			c9.008-0.793,9.008-0.793,9.008-0.793c9.852-1.469,41.18-0.147,69.617,2.95c0,0,0,0,26.047-2.437
			c2.543-0.235,2.543-0.235,2.543-0.235c2.926,1.277,29.035,13.419,58.011,26.983c0,0,0,0,29.254,4.64
			C664.229,594.236,664.229,594.236,664.229,594.236z"/>
	</g>
	<path fill-rule="evenodd" clip-rule="evenodd" fill="#FFF6A1" d="M534.804,632.949c0-0.059-10.254-0.733-22.793-1.482
		c-12.527-0.749-60.961,7.781-80.766,14.578c0,0,0,0-19.445-1.438c-13.438-0.999-26.938-2.496-40.07-5.344
		c-8.547-1.865-8.547-1.865-8.547-1.865c-5.977-7.868-7.887-26.689-4.242-41.825c0,0,0,0,11.184-3.553
		c17.313-5.477,17.313-5.477,17.313-5.477c19.633-4.066,62.426-10.629,95.098-14.593c0,0,0,0,29.531-4.653
		c22.629-3.553,43.766,1.63,63.688,10.335c7.938,3.494,7.938,3.494,7.938,3.494c5.695,10.159,9.855,21.522,9.262,25.251
		c-0.602,3.715-18.422,14.123-34.859,20.803c0,0,0,0-15.172,5.521c-2.438,0.896-2.438,0.896-2.438,0.896
		C537.363,633.375,534.812,633.009,534.804,632.949z"/>
</g>
</svg>
