<?xml version="1.0" encoding="utf-8"?>
<!-- Generator: Adobe Illustrator 16.0.0, SVG Export Plug-In . SVG Version: 6.00 Build 0)  -->
<!DOCTYPE svg PUBLIC "-//W3C//DTD SVG 1.1//EN" "http://www.w3.org/Graphics/SVG/1.1/DTD/svg11.dtd">
<svg version="1.1" id="Capa_1" xmlns="http://www.w3.org/2000/svg" xmlns:xlink="http://www.w3.org/1999/xlink" x="0px" y="0px"
	 width="1200px" height="1200px" viewBox="0 0 1200 1200" enable-background="new 0 0 1200 1200" xml:space="preserve">
<g>
	<g opacity="0.3">
		<path fill-rule="evenodd" clip-rule="evenodd" fill="#C1272D" d="M667.27,849.896c-4.5-4.914-9.113-8.885-10.266-8.84
			c0,0,0,0-1.063,0c-6.172,0-11.438-1.007-15.672-1.819c-0.801-0.153-0.801-0.153-0.801-0.153c-0.98-0.179-8.617,1.843-16.969,4.497
			c0,0,0,0-8.16,0c-12.93,0-23.66-4.005-32.281-7.22c-3.438-1.278-6.977-2.599-9.227-3.064c-9.75-2.002-9.75-2.002-9.75-2.002
			c-10.383-2.785-23.953,0.694-30.148,7.74c-6.195,7.047-15.887,7.027-21.531-0.049c-5.648-7.072-13.324-13.923-17.063-15.218
			c-3.723-1.291-21.605-10.026-30.508-10.304c-8.906-0.28-47.168-14.676-64.477-18.299c0,0,0,0-11.465-4.94
			c-5.352-2.298-5.352-2.298-5.352-2.298c-5.133-1.807-9.605-3.355-9.973-3.447c0,0,0,0-1.289,0c-1.441,0-3.035,0.202-4.254,0.548
			c-6.137,1.738-14.379,3.74-23.602,3.74c-9.129,0-9.129,0-9.129,0c-8.988-3.156-21.457-4.907-27.715-3.894c0,0,0,0-5.969,0
			c-12.09,0-22.805-2.445-32.266-4.607c-3.176-0.721-6.34-1.457-9.496-2.034c-18.344-3.355-45.16-8.27-61.816-32.91
			c-8.02-11.876-13.547-11.876-15.898-11.876c-2.582,0-5.695,0.604-9.234,1.794c-3.594,1.206-6.895,1.95-10.09,2.68
			c-1.363,0.307-1.363,0.307-1.363,0.307c-1.813,0.431-8.078,1.947-13.91,3.378c-5.836,1.432-16.289-5.677-23.227-15.801
			c-6.953-10.118-13.91-20.376-15.484-22.796c0,0,0,0-1.348-2.236c-1.004-1.66-1.004-1.66-1.004-1.66
			c-1.105-1.646-11.191-15.224-22.434-30.164c-11.23-14.94-18.469-59.437-18.691-59.792c-0.215-0.358-6.672-23.34-14.348-51.065
			c0,0,0,0,22.387-23.786c2.617-2.778,5.023-5.746,7.449-8.706c3.215-3.92,3.215-3.92,3.215-3.92
			c3.984-4.496,7.863-8.846,8.621-9.668c0.762-0.812,6.711-7.268,13.227-14.34c6.508-7.069,56.566-21.071,79.469-29.985
			c0,0,0,0,20.379-5.051c8.887-2.211,17.289-4.288,25.316-6.782c4.832-1.51,4.832-1.51,4.832-1.51
			c2.867-2.396,5.59-4.81,6.031-5.357c0.449-0.548,10.832-13.386,23.078-28.512c0,0,0,0,23.008,0c7.078,0,7.078,0,7.078,0
			c8.41,1.813,24.762,0.339,36.328-3.268c0,0,0,0,9.387-2.2c9.266-2.182,18.012-4.246,24.363-7.298
			c22.125-10.646,44.586-17.311,66.301-23.757c11.258-3.343,11.258-3.343,11.258-3.343c11.594-3.74,21.098-6.812,21.102-6.824
			c0.016-0.007,1.754-1.405,3.848-3.072c2.102-1.676,11.707-6.087,13.109-6.642c1.41-0.558,12.02-4.773,23.574-9.374
			c0,0,0,0,13.109-1.455c41.773-4.598,74.074-7.231,104.75-8.546c1.527-0.062,3.059-0.098,4.613-0.098
			c16.793,0,33.801,3.74,47.852,10.522c16.977,8.197,35.875,13.633,59.484,17.099c13.973,2.074,13.973,2.074,13.973,2.074
			c19.176,12.681,35.418,23.34,36.109,23.679c0,0,0,0,0.625,0.329c2.527,1.278,5.656,2.87,8.918,4.996
			c22.609,14.738,22.609,14.738,22.609,14.738c-3.309,27.171-5.016,54.597-3.789,60.941c0,0,0,0-2.668,7.422
			c-1.637,4.564-2.027,5.65,12.418,18.811c1.66,1.517,1.66,1.517,1.66,1.517c1.82,1.679,4.07,3.208,4.984,3.397
			c0.918,0.192,4.766,0.984,8.547,1.771c3.77,0.786,13.676,2.557,14.246,2.654c0.559,0.098,6.492-1.216,13.172-2.918c0,0,0,0,6.07,0
			c18.359,0,34.492,9.201,45.453,25.906c3.008,4.601,7.586,6.99,21.293,11.132c8.152,2.458,8.152,2.458,8.152,2.458
			c10.215,4.546,21.672,7.487,25.461,6.541c0,0,0,0,1.883-0.965c6.391-3.273,16.297-7.63,28.504-7.63c5.957,0,5.957,0,5.957,0
			c6.332,1.686,16.348,2.175,22.242,1.082c0,0,0,0,5.383,0c19.59,0,19.59,0,19.59,0c15.043,9.098,29.516,16.734,32.145,16.969
			c2.641,0.238,11.203,3.114,11.984,3.427c0.77,0.32,11.699,4.849,24.285,10.063c0,0,0,0,10.754,9.007
			c13.094,10.942,22.016,33.861,13.566,51.776c-7.652,16.189-25.355,26.62-39.508,29.789c-4.938,1.112-10.199,1.653-16.063,1.653
			c-3.625,0-7.316-0.222-11.02-0.466c-2.309-0.153-4.625-0.326-6.914-0.326c-0.547,0-1.082,0.013-1.609,0.049
			c-2.609,0.188-5.336,0.293-8.094,0.397c-2.805,0.104-2.805,0.104-2.805,0.104c-3.477,0.248-13.539,4.043-22.348,8.419
			c-8.832,4.379-35.648,7.96-36.574,7.943c-0.93-0.014-6.219,0.46-11.742,1.043c0,0,0,0-7.438,5.289
			c-10.113,7.193-20.996,10.832-32.359,10.832c-10.191,0-20.09-2.869-30.277-8.774c-4.168-2.42-4.168-2.42-4.168-2.42
			c-4.738-1.411-10.824-1.771-13.492-0.799c0,0,0,0-2.426,0.903c-12.539,4.656-26.762,9.936-42.918,10.91
			c-8.922,0.528-17.234,4.178-27.766,8.798c-2.492,1.089-4.992,2.182-7.52,3.244c-5.008,2.119-5.008,2.119-5.008,2.119
			c-5.938,2.932-10.789,9.46-10.789,14.504s-4.086,13.438-9.09,18.645c-5,5.211-5.32,20.239-0.699,33.402
			c4.633,13.16,1.305,25.606-7.367,27.664c-8.676,2.064-16.57,3.987-17.535,4.288c-0.973,0.297-2.316,1.145-2.543,1.653
			c0,0,0,0-0.551,1.64c-6.082,18.282-24.676,31.554-44.215,31.554c-7.895,0-7.895,0-7.895,0c-7.898-3.349-15.164-5.703-16.148-5.23
			c-0.996,0.47-8.309,3.669-14.008,6.127C680.109,856.812,671.762,854.81,667.27,849.896z"/>
	</g>
	<g opacity="0.8">
		<path fill-rule="evenodd" clip-rule="evenodd" fill="#C1272D" d="M764.684,535.122c0.566,0.434,10.77,2.983,22.676,5.657
			c0,0,0,0,9.168,1.62c4.438,0.776,9.895,2.194,13.441,0.438c13.363-6.616,13.363-6.616,13.363-6.616
			c8.621,8.931,20.508,20.464,26.43,25.636c5.91,5.168,29.074,15.439,34.336,17.317c5.258,1.875,23.176,10.04,28.426,8.957
			c5.238-1.093,21.008-7.79,25.043-9.437c4.035-1.64,16.465,2.243,17.902,3.071c1.434,0.832,11.672,0.861,20.898,0.972
			c9.23,0.111,35.887,11.133,41.32,11.354c0,0,0,0,4.234,1.884c9.383,4.178,19.406,8.233,26.891,14.898
			c4.41,3.926,4.41,3.926,4.41,3.926c0.684,8.289-1.207,17.768-4.191,21.07c-2.98,3.3-16.633,7.51-21.965,7.366
			c-5.32-0.14-24.496,0.45-30.809,0.414c-6.32-0.026-23.367,8.194-29.535,11.37c-6.168,3.183-28.035,6.44-34.883,7.63
			c-6.84,1.181-26.574,11.409-31.258,13.203c-4.688,1.786-22.766-4.858-28.348-7.471c-5.582-2.611-27.063-2.041-35.344,1.578
			c-8.285,3.626-43.621,11.312-59.691,15.876c0,0,0,0-13.773,6.18c-10.016,4.496-10.016,4.496-10.016,4.496
			c-11.902,6.495-21.645,15.087-21.645,19.075c0,4.001-3.348,20.956-7.434,25.489c-4.086,4.535-11.723,19.972-9.66,26.209
			c2.055,6.241,2.902,25.678-2.891,28.727c-5.797,3.059-20.441,24.436-28.039,33.018c0,0,0,0-7.715-6.817
			c-11.871-10.487-11.871-10.487-11.871-10.487c-10.379,6.753-20.875,9.965-23.313,7.132c-2.438-2.837-15.652-12.12-22.66-12.838
			c-7.027-0.707-39.836,4.607-56.152,2.69c0,0,0,0-14.68-3.219c-13.871-3.028-13.871-3.028-13.871-3.028
			c-16.047-4.81-30.375-7.305-31.836-5.537c-1.461,1.764-11.711,7.815-17.008,6.463c-5.301-1.356-14.512-15.866-16.465-17.386
			c0,0,0,0-1.957-0.141c-17.055-1.132-17.055-1.132-17.055-1.132c-17.215-6.714-48.277-16.74-69.023-22.293c0,0,0,0-18.82-5.227
			c-6.711-1.862-14.918-1.458-21.637,0.563c-10.813,3.258-20.426,4.503-29.703-3.364c-1.672-1.409-1.672-1.409-1.672-1.409
			c-2.816-0.251-12.918-0.222-22.457,0.063c-9.543,0.283-40.977-4.06-49.305-5.635c-8.34-1.578-31.563-24.26-40.352-32.688
			c-8.801-8.429-42.633-5.928-44.332-5.479c-1.703,0.454-12.133-3.625-16.715-10.747c0,0,0,0-4.246-6.573
			c-3.465-5.374-3.465-5.374-3.465-5.374c-3.891-5.816-14.051-19.714-22.57-30.888c-8.516-11.172-13.355-52.423-14.75-57.252
			c0,0,0,0-2.23-3.945c-9.598-16.984-8.531-26.623,4.473-41.319c5.871-6.646,5.871-6.646,5.871-6.646
			c5.98-7.74,18.156-23.401,27.051-34.811c0,0,0,0,15.297,0.639c3.027,0.117,6.438-1.259,9.137-2.843
			c24.332-14.321,24.332-14.321,24.332-14.321c29.746-6.77,58.074-14.233,62.965-16.587c4.883-2.357,21-20.794,29.223-32.307
			c0,0,0,0,24.531,6.058c3.594,0.891,3.594,0.891,3.594,0.891c4.441-1.229,16.824-4.337,27.527-6.906
			c10.695-2.563,50.164-18.208,67.125-24.224c16.957-6.02,64.73-25.434,68.867-28.909c0,0,0,0,4.328-1.771
			c9.586-3.92,19.363-8.729,29.438-9.916c32.027-3.753,64.184-6.916,96.387-8.38c11.629-0.528,11.629-0.528,11.629-0.528
			c12.852,4.308,42.32,15.218,65.484,24.236c0,0,0,0,22.383,3.502c11.75,1.85,11.75,1.85,11.75,1.85
			c9.332,7.636,19.285,15.462,22.117,17.386c2.836,1.934,13.004,11.174,16.27,16.15c3.273,4.969-0.641,21.491-1.512,23.78
			c-0.875,2.292-1.34,9.983-0.555,11.839c0.789,1.862,2.922,14.837,5.805,25.685C744.277,507.876,764.109,534.679,764.684,535.122z"
			/>
	</g>
	<g>
		<path fill-rule="evenodd" clip-rule="evenodd" fill="#F15A24" d="M647.051,500.461c-4.559,8.263-2.652,20.676,4.234,27.575
			c6.879,6.899,32.996,29.464,45.656,36.536c12.656,7.082,59.254,16.789,70.906,17.471c11.648,0.682,52.926,12.208,67.051,19.346
			c0,0,0,0,11.406,8.631c7.871,5.961,7.871,5.961,7.871,5.961c-6.461,8.771-17.332,18.27-24.168,21.104
			c-6.828,2.836-39.426,5.066-54.211,6.688c0,0,0,0-13.441,2.063c-4.754,0.728-4.754,0.728-4.754,0.728
			c-5.125,1.474-22.5,5.436-38.605,8.804c-16.109,3.372-63.355,17.888-70.105,21.739c-6.742,3.854-28.309,13.355-30.277,10.562
			c-1.984-2.795-4.691-1.246,1.09,13.486c5.77,14.731,14.098,57.495,5.313,62.673c-8.777,5.179-39.102,2.348-43.039,1.836
			c-3.945-0.515-20.578-2.1-28.176-2.224c-7.602-0.141-37.465-11.412-53.742-17.575c-16.27-6.162-80.043-23.001-104.59-33.181
			c0,0,0,0-25.336,2.133c-9.648,0.814-9.648,0.814-9.648,0.814c-10.938-5.663-27.164-12.518-36.07-15.24
			c-8.902-2.723-42.566-8.729-55.004-11.96c-12.449-3.222-52.168-18.961-62.383-23.223c0,0,0,0-11.352,1.21
			c-19.473,2.083-36.488-7.298-51.734-17.943c-5.805-4.05-5.805-4.05-5.805-4.05c-2.934-9.229-6.582-22.014-8.094-28.427
			c-1.512-6.407,7.402-36.553,23.25-51.813c0,0,0,0,21.512-4.157c4.887-0.942,4.887-0.942,4.887-0.942
			c4.414-8.687,9.617-15.13,11.582-14.318c1.949,0.822,15.207,7.376,25.902,11.566c0,0,0,0,8.145-9.701
			c6.625-7.888,13.695-12.028,24.691-12.586c6.965-0.362,6.965-0.362,6.965-0.362c7.141-6.149,27.5-21.667,45.25-34.479
			c0,0,0,0,19.527-5.38c10.816-2.974,10.816-2.974,10.816-2.974c11.883-3.336,35.945-12.453,53.477-20.262
			c17.535-7.813,92.148-29.529,125.27-36.239c0,0,0,0,30.492-3.336c11.797-1.278,11.797-1.278,11.797-1.278
			c13.156-1.063,29.063-2.191,35.34-2.501c6.281-0.307,25.441,10.93,33.645,18.345c8.211,7.408,28.785,33.889,29.426,40.533
			c0,0,0,0-1.891,5.469C647.051,500.461,647.051,500.461,647.051,500.461z"/>
	</g>
	<g>
		<path fill-rule="evenodd" clip-rule="evenodd" fill="#FBB03B" d="M634.465,482.687c-8.203,12.521-4.559,40.479,8.121,62.123
			c0,0,0,0,14.605,16.088c9.816,10.813,9.816,10.813,9.816,10.813c16.152,6.782,45.309,19.782,64.801,28.893c0,0,0,0,20.445-2.611
			c2.934-0.375,2.934-0.375,2.934-0.375c3.473,1.715,12.242,6.039,19.496,9.596c7.25,3.558,28.602,2.736,31.43,10.653
			c0,0,0,0-5.73,4.467c-3.117,2.42-6.992,4.546-10.82,5.253c-28.398,5.263-28.398,5.263-28.398,5.263
			c-31.309,5.445-65.996,11.693-77.098,13.874c0,0,0,0-10.027,2.24c-11.82,2.632-11.82,2.632-11.82,2.632
			c-12.938,3.127-29.059,7.102-35.828,8.833c-6.77,1.738-26.293,14.807-24.625,24.224c1.66,9.417,8.441,36.865,9.535,42.471
			c1.098,5.615-9.547,21.419-14.039,24.002c-4.488,2.572-30.559-2.175-45.48-6.727c-14.922-4.559-61.348-18.064-69.949-20.164
			c0,0,0,0-7.824-1.898c-11.602-2.801-23.191-5.683-34.82-8.393c-4.668-1.086-4.668-1.086-4.668-1.086
			c-5.195-0.881-14.805-2.576-21.344-3.766c-6.543-1.188-31.637-8.24-41.711-11.445c-10.074-3.209-38.641-14.689-41.625-16.956
			c-2.996-2.256-14.16-9.191-16.188-8.595s-15.371,5.768-25.199,8.298c0,0,0,0-7.523-4.262c-10.148-5.738-10.148-5.738-10.148-5.738
			c-11.668-2.661-32.691-7.692-46.711-11.175c-14.023-3.488-56.371-18.204-64.063-21.811c-7.695-3.609-12.676-33.656-10.102-43.752
			c2.578-10.099,43.121-27.318,61.66-33.556c18.547-6.254,76.68-41.485,93.93-52.347c0,0,0,0,19.543-0.153
			c3.215-0.02,3.215-0.02,3.215-0.02c3.527-0.669,16.688-4.816,29.242-9.215c12.559-4.393,62.082-22.01,82.215-29.213
			c20.133-7.206,75.609-26.9,78.465-27.993c2.855-1.096,16.813-0.247,26.434-0.025c9.617,0.222,51.379,8.729,71.641,18.533
			c0,0,0,0,12.805,16.177C634.465,482.687,634.465,482.687,634.465,482.687z"/>
	</g>
	<path fill-rule="evenodd" clip-rule="evenodd" fill="#FFF6A1" d="M559.992,492.651c3.559,4.239,1.832,11.416-3.863,15.941
		c-5.691,4.522-19.984,16.669-19.621,17.324c0.367,0.646,5.902,1.911,11.457,1.354c0,0,0,0,4.555,1.301
		c4.473,1.284,4.473,1.284,4.473,1.284c4.191,3.516,22.871,25.691,41.508,49.289c0,0,0,0,22.23,16.446
		c1.195,0.884,2.48,1.641,3.68,2.524c7.172,5.289,7.172,5.289,7.172,5.289c4.18,8.393,2.414,19.77-3.926,25.267c0,0,0,0-7.512,2.569
		c-4.207,1.438-4.207,1.438-4.207,1.438c-4.504,1.934-17.32,8.334-28.484,14.232s-46.883,17.288-49.211,23.787
		c-2.328,6.495,0.059,29.311-0.742,33.882c-0.789,4.571-16.746,10.049-21.66,10.353c-4.91,0.307-24.441-0.499-32.566-0.984
		c-8.137-0.486-35.137-6.463-42.648-9.166c-7.508-2.69-29.156-10.737-31.414-11.745c-2.258-1.015-20.711-3.786-35.926-6.029
		c-15.223-2.24-55.758-26.698-62.418-31.152c-6.645-4.447-32.754-4.22-37.613-4.386c-4.852-0.173-24.285-4.053-32.672-6.371
		c-8.387-2.322-40.004-4.656-49.395-7.305c-9.383-2.647-28.004-27.963-28.281-37.621c-0.281-9.658,32.254-28.358,49.77-37.697
		c0,0,0,0,19.012,3.509c2.43,0.443,2.43,0.443,2.43,0.443c3-1.931,15.047-9.208,26.777-16.15c0,0,0,0,11.043-5.572
		c11.148-5.628,11.148-5.628,11.148-5.628c12.855-7.311,28.23-12.6,34.168-11.745c5.941,0.864,34.23-8.628,46.77-12.498
		c12.535-3.864,56.5-21.113,72.109-25.248c15.605-4.141,60.074-17.846,64.879-18.941c0,0,0,0,1.879,1.758
		c11.531,10.839,11.531,10.839,11.531,10.839C529.98,483.3,556.41,488.406,559.992,492.651z"/>
</g>
</svg>
