<?xml version="1.0" encoding="utf-8"?>
<!-- Generator: Adobe Illustrator 16.0.0, SVG Export Plug-In . SVG Version: 6.00 Build 0)  -->
<!DOCTYPE svg PUBLIC "-//W3C//DTD SVG 1.1//EN" "http://www.w3.org/Graphics/SVG/1.1/DTD/svg11.dtd">
<svg version="1.1" id="Capa_1" xmlns="http://www.w3.org/2000/svg" xmlns:xlink="http://www.w3.org/1999/xlink" x="0px" y="0px"
	 width="1200px" height="1200px" viewBox="0 0 1200 1200" enable-background="new 0 0 1200 1200" xml:space="preserve">
<g>
	<g opacity="0.3">
		<path fill-rule="evenodd" clip-rule="evenodd" fill="#C1272D" d="M813.553,933.287c-12.938,1.635-29.641,2.097-37.102,1.039
			c-7.48-1.065-45.238-12.839-69.828-16.839c0,0,0,0-19.094-5.34c-18.762-5.246-36.488-10.206-53.316-10.206
			c-1.164,0-1.164,0-1.164,0c-1.695,0.056-3.418,0.104-3.828,0.111s-9.496-1.423-20.211-3.177c0,0,0,0-5.832-2.111
			c-1.316-0.473-2.605-1.013-3.933-1.34c-14.895-3.236-14.895-3.236-14.895-3.236c-16.516-3.303-33.809-6.762-38.441-7.682
			c0,0,0,0-0.016,0c-0.223,0-0.914-0.041-1.609-0.09c-6.5-0.483-18.609-1.381-29.5-9.563c-8.586-6.435-19.785-7.115-38.836-7.752
			c-4.758-0.168-9.539-0.332-14.285-0.626c-17.918-1.103-17.918-1.103-17.918-1.103c-15.051-3.47-27.93-6.468-28.598-6.676
			c-0.68-0.205-2.547-0.774-4.172-1.271c-1.602-0.491-6.59-0.808-8.684-0.063c-2.094,0.756-10.156,3.802-15.438,5.827
			c-5.281,2.015-13.16,0.838-17.508-2.61c-4.367-3.455-10.836-8.735-14.398-11.733c0,0,0,0-3.113-2.841
			c-1.547-1.431-1.547-1.431-1.547-1.431c-2.055-1.794-4.91-3.094-6.324-2.896c0,0,0,0-1.152,0.168
			c-3.836,0.569-3.836,0.569-3.836,0.569c-3.777,0.357-8.609,0.748-10.727,0.867c-2.129,0.119-5.488-0.405-7.453-1.15
			c-1.973-0.756-8.477-3.288-14.449-5.619c0,0,0,0-5.293-2.118c-10.473-4.201-20.371-8.159-29.969-11.112
			c-11.738-3.601-23.555-6.807-36.074-10.188c-20.297-5.492-41.273-11.175-61.949-18.745c-16.766-6.159-31.547-14.243-45.848-22.078
			c-8.473-4.632-16.48-9.022-24.469-12.761c-37.246-17.457-57.137-49.168-51.926-82.767c2.348-15.167,7.074-28.807,11.656-42.004
			c1.742-5.038,3.5-10.08,5.055-15.141c12.633-40.908,48.18-55.296,73.805-62.557c22.617-6.405,35.676-14.419,45.102-27.679
			c28.352-39.896,28.352-39.896,28.352-39.896c42.348-7.243,77.207-13.197,77.461-13.227c0.254-0.033,1.938-0.231,3.73-0.436
			c1.813-0.209,4.828-0.924,4.961-1.08c0,0,0,0,0.277-0.316c12.867-14.929,31.859-20.094,45.719-23.873
			c3.449-0.927,6.875-1.832,10.039-2.935c5.66-1.962,10.91-3.009,15.148-3.85c1.652-0.324,1.652-0.324,1.652-0.324
			c1.809-0.406,8.258-3.724,14.344-7.365c0,0,0,0,5.875-3.731c15.781-10.013,15.781-10.013,15.781-10.013
			c22.098-9.652,50.473-25.943,63.059-36.213c0,0,0,0,8.082-3.649c2.105-0.953,4.742-2.142,5.703-2.778
			c21.113-13.949,43.984-21.307,64.168-27.797c14.445-4.651,28.09-9.03,39.625-15.253c27.55-14.857,55.609-22.268,85.765-22.673
			c12.43-0.157,27.211-4.879,42.867-9.88c3.137-1.001,6.254-1.999,9.359-2.96c21.422-6.65,42.406-13.982,64.629-21.75
			c9.395-3.288,9.395-3.288,9.395-3.288c10.453-3.616,23.719-8.196,29.496-10.173c5.789-1.974,13.996-0.176,18.262,3.999
			c4.27,4.174,16.691,16.358,27.621,27.063c0,0,0,0-0.906,21.154c-0.598,13.89-7.844,26.729-21.547,38.146
			c-5.883,4.904-11.93,9.619-17.992,14.333c-8.879,6.903-17.254,13.428-24.672,20.302c-17.277,15.997-33.656,32.59-48.676,49.302
			c-3.398,3.772-7.621,8.468,2.719,31.234c5.039,11.104,5.039,11.104,5.039,11.104c7.172,12.72,19.484,24.695,27.34,26.598
			c7.863,1.907,27.535,12.754,27.867,12.873c0,0,0,0,1.512,0c1.746,0,4.016-0.197,6.734-0.596
			c7.848-1.117,16.281-2.204,25.648-2.204c22.781,0,22.781,0,22.781,0c18.523,11.1,34.594,20.234,35.734,20.29c0,0,0,0,1.055,0
			c3.211,0,6.48-0.205,9.734-0.387c4.582-0.258,9.141-0.484,13.547-0.484c8.75,0,21.875,0.752,34.676,7.261
			c10.352,5.27,19.871,7.936,33.969,9.507c7.125,0.801,14.754,1.095,22.816,1.404c19.82,0.752,42.258,1.612,65.582,10.37
			c13.539,5.079,13.539,5.079,13.539,5.079c19.289,28.657,35.34,55.218,35.66,59.028c0.32,3.816-1.633,9.269-4.32,12.124
			c-2.703,2.849-29.023,17.77-58.484,33.148c0,0,0,0-23.594,0c-4.176,0-4.176,0-4.176,0c-4.559-0.111-10.047-0.23-12.18-0.279
			c-2.129-0.041-11.48,0.674-20.793,1.579c0,0,0,0-9.867,4.032c-13.375,5.475-26.543,9.689-40.484,14.15
			c-5.777,1.847-5.777,1.847-5.777,1.847c-6.59,2.168-18.293,6.048-25.992,8.628c-7.691,2.585-16.027,1.062-18.516-3.381
			c-2.5-4.435-8.207-6.874-12.68-5.403c0,0,0,0-2.883,0.73c-0.461,0.119-0.461,0.119-0.461,0.119
			c-0.508,0.126-19.574,8.091-42.355,17.71c0,0,0,0-18.789,4.65c-6.457,1.605-12.945,3.199-19.32,5.12
			c-17.395,5.235-26.234,10.649-29.551,18.094c-5.273,11.894-5.273,11.894-5.273,11.894c-13.18,7.484-20.406,17.412-16.039,22.063
			c4.355,4.658,21.129,19.394,27.563,22.514c0,0,0,0,5.883,2.8c14.141,6.722,28.762,13.674,43.055,21.87
			c12.086,6.93,22.766,15.088,33.094,22.975c4.395,3.355,4.395,3.355,4.395,3.355c5.117,3.806,15.746,11.592,23.602,17.289
			s9.063,16.22,2.672,23.37c-6.395,7.152-22.477,25.164-35.746,40.021c0,0,0,0-26.395,0c-7.672,0-7.672,0-7.672,0
			c-8.512-2.517-18.797-3.716-22.855-2.658c0,0,0,0-2.664,0.778C813.553,933.287,813.553,933.287,813.553,933.287z"/>
	</g>
	<g opacity="0.8">
		<path fill-rule="evenodd" clip-rule="evenodd" fill="#C1272D" d="M821.104,872.952c7.5,6.252,4.961,20.368-5.66,31.361
			c0,0,0,0-15.84-7.902c-7.395-3.693-7.395-3.693-7.395-3.693c-11.863,3.709-27.988,8.523-35.836,10.705
			c-7.859,2.193-29.227-7.991-31.094-9.015c-1.863-1.021-24.668-7.515-46.383-14.329c-21.727-6.818-84.91-11.477-88.73-12.619
			c-3.813-1.136-21.648-5.373-30.98-7.422c-9.34-2.044-36.707-7.395-40.043-7.466c-3.352-0.078-19.93-6.263-32.211-10.058
			c-12.289-3.802-51.297-8.993-57.844-9.633c-6.555-0.637-27.617-6.35-33.172-8.319c-5.57-1.966-34.324,1.199-38.539-3.235
			c-4.207-4.446-21.039-11.413-26.172-11.316c-5.121,0.104-23.488-2.38-31.867-6.032c-8.371-3.657-44.258-15.401-61.133-20.045
			c-16.887-4.636-69.703-25.054-81.305-31.38c-11.605-6.315-50.375-28.486-59.824-36.224c-9.453-7.738-9.766-50.717-4.418-70.08
			c0,0,0,0,5.117-17.569c7.016-24.063,7.016-24.063,7.016-24.063c22.453-9.044,51.023-20.591,63.48-25.663
			c12.461-5.064,47.969-39.394,60.66-49.075c12.699-9.674,58.141-21.839,63.891-22.473c5.758-0.637,31.07-17.832,44.977-24.364
			c0,0,0,0,13.395-4.934c7.664-2.818,7.664-2.818,7.664-2.818c8.699-2.279,24.809-10.735,35.809-18.802
			c11.008-8.062,49.578-23.519,55.496-26.33c0,0,0,0,2.625-4.33c6.797-11.224,19.043-13.063,28.262-19.509
			c29.32-20.514,29.32-20.514,29.32-20.514c36.418-11.514,84.707-29.067,107.308-39.002c0,0,0,0,24.266-0.343
			c19.758-0.275,19.758-0.275,19.758-0.275c21.582-7.802,52.465-18.921,68.625-24.696c16.164-5.794,62.156-16.768,65.488-11.078
			c3.313,5.697-13.012,26.67-20.863,32.996c-7.832,6.334-34.668,31.845-43.691,41.091c-9.02,9.235-34.246,44.432-37.484,56.373
			c-3.254,11.953,7.441,51.439,12.406,61.296c4.977,9.857,24.922,37.211,31.98,36.783c7.066-0.429,34.398,12.362,45.012,16.648
			c0,0,0,0,13.43-2.04c16.27-2.458,16.27-2.458,16.27-2.458c19.664,7.521,38.371,15.133,41.551,16.909
			c3.188,1.78,19.445,2.931,28.555,1.906c9.105-1.023,34.836,7.143,42.473,10.244c7.633,3.102,52.516,7.451,80.305,7.365
			c0,0,0,0,24.785,9.854c14.813,5.89,14.813,5.89,14.813,5.89c5.891,13.007-8.691,31.368-32.41,40.812c0,0,0,0-23.059-0.364
			c-14.68-0.231-14.68-0.231-14.68-0.231c-13.809,4.715-32.754,11.357-42.086,14.754c-9.332,3.396-40.848,10.068-46.754,6.564
			c-5.906-3.526-28.16,0.729-31.227,1.452c-3.074,0.719-20.301,8.141-32.828,12.847c-12.535,4.707-63.617,22.752-85.063,31.026
			c0,0,0,0-9.012,21.43c-1.273,3.046-4.797,6.457-7.902,7.228c-18.27,4.532-18.27,4.532-18.27,4.532
			c-6.18,16.745,0.352,43.567,14.508,59.604c0,0,0,0,12.789,14.292c1.832,2.048,1.832,2.048,1.832,2.048
			c2.477,1.81,13.328,7.626,24.105,12.918C766.076,837.466,813.604,866.682,821.104,872.952z"/>
	</g>
	<g>
		<path fill-rule="evenodd" clip-rule="evenodd" fill="#F15A24" d="M596.534,688.633c-12.941,10.937-18.148,27.443-11.555,36.679
			c6.574,9.238,27.398,42.711,34.187,52.146c6.793,9.429,20.348,38.552,15.121,44.528c-5.23,5.977-44.21,2.063-64.867-2.931
			c0,0,0,0-18.789-4.458c-2.699-0.637-2.699-0.637-2.699-0.637c-2.953-0.633-23.672-7.015-46.039-14.18
			c-22.355-7.168-100.719-29.767-124.563-33.941c0,0,0,0-21.406-5.03c-18.805-4.413-18.805-4.413-18.805-4.413
			c-20.293-6.531-58.961-15.64-85.934-20.245c0,0,0,0-24.422-4.711c-26.938-5.198-26.938-5.198-26.938-5.198
			c-23.898-17.207-47.344-40.212-52.125-51.13c-4.773-10.922,31.594-43.099,51.41-54.504c19.824-11.402,79.285-47.161,88.543-53.382
			c9.258-6.223,63.117-39.408,98.699-60.574c0,0,0,0,36.844-11.409c19.496-6.04,19.496-6.04,19.496-6.04
			c18.977-14.656,38.355-28.981,43.055-31.83c4.707-2.849,27.152-14.474,39.047-20.275c11.879-5.794,56.758-27.075,73.969-33.268
			c0,0,0,0,16.71,6.063c17.859,6.494,17.859,6.494,17.859,6.494c-6.539,13.219-16.363,27.846-21.828,32.489c0,0,0,0-5.527,3.313
			c-13.761,8.256-13.761,8.256-13.761,8.256c-4.402,15.227-10.902,34.884-14.465,43.675c-3.551,8.796-18.023,32.314-22.914,31.045
			c0,0,0,0-4.164,0.365c-4.082,0.364-9.918,1.612-11.477,4.42c-1.676,3.023-1.676,3.023-1.676,3.023
			c1.758,5.217,8,14.176,13.859,19.922c5.867,5.753,47.625-1.754,70.117-7.716c0,0,0,0,19.625,14.054
			c3.582,2.565,3.582,2.565,3.582,2.565c5.055,1.095,24.047,5.094,42.195,8.896c18.145,3.799,72.516,18.124,81.512,19.338
			c0,0,0,0,7.828,2.334c8.602,2.554,8.602,2.554,8.602,2.554c8.82,4.461,17.734,14.229,19.805,21.706c0,0,0,0-2.766,2.982
			c-11.199,12.054-11.199,12.054-11.199,12.054c-16.832,6.609-34.316,12.69-38.867,13.506c-4.535,0.826-31.891,7.041-50.742,14.079
			c-18.855,7.045-75.656,20.269-81.68,22.92c0,0,0,0-4.969-0.771C596.534,688.633,596.534,688.633,596.534,688.633z"/>
	</g>
	<g>
		<path fill-rule="evenodd" clip-rule="evenodd" fill="#FBB03B" d="M543.346,572.748c2.711,4.559,17.738,8.081,33.402,7.827
			c15.652-0.253,64.785,12.729,75.144,17.554c0,0,0,0,10.172-7.436c1.93-1.404,1.93-1.404,1.93-1.404
			c3.344,0.253,19.668,3.917,36.277,8.155c0,0,0,0,13.777,6.62c9.473,4.547,9.473,4.547,9.473,4.547
			c9.926,10.363,13.031,24.647,6.887,31.752c0,0,0,0-5.859,2.372c-11.074,4.483-11.074,4.483-11.074,4.483
			c-12.988,2.569-34.512,7.12-47.828,10.095c-13.309,2.982-51.504,14.467-55.988,16.742c-4.484,2.278-19.582,12.333-24.367,16.03
			c-4.789,3.705-18.063,22.331-17.293,31.856c0.758,9.514,8.949,42.23,9.711,51.659c0.758,9.436-32.254,15.062-43.449,14.045
			c-11.199-1.005-73.906-20.011-116.105-34.716c0,0-21.105-7.357-73.512-11.16c-9.93-0.715-19.512-5.57-29.352-8.158
			c-9.809-2.577-19.684-6.282-29.641-6.688c-17.738-0.715-17.738-0.715-17.738-0.715c-17.473-7.009-38.355-15.021-46.406-17.8
			c-8.051-2.777-37.156-17.103-46.828-25.157c0,0,0,0,0.363-11.521c0.238-7.183,0.238-7.183,0.238-7.183
			c5.125-7.488,20.051-20.607,33.156-29.153c13.109-8.557,60.758-38.971,76.461-49.043c15.695-10.077,64.637-38.481,72.949-42.265
			c8.32-3.794,31.75-13.588,33.387-13.744c1.645-0.146,20.145-8.579,38.645-16.857c18.5-8.285,63.809-44.829,68.262-48.709
			c4.453-3.873,29.945-10.743,41.742-13.745c0,0,0,0,10.578-3.388c8.773-2.815,8.773-2.815,8.773-2.815
			c7.566,4.49,14.887,11.801,16.27,16.235c1.379,4.435-5.949,26.26-11.191,36.987c-5.234,10.729-31.77,36.116-35.063,40.942
			C525.971,543.807,540.635,568.179,543.346,572.748z"/>
	</g>
	<path fill-rule="evenodd" clip-rule="evenodd" fill="#FFF6A1" d="M463.764,510.733c6.484-4.244,18.543,3.799,26.781,17.878
		c0,0,0,0-10.957,19.959c-2.664,4.89-4.75,12.68-2.695,17.077c6.629,14.172,6.629,14.172,6.629,14.172
		c9.711,15.785,33.223,25.206,52.25,20.942c19.043-4.26,59.395,28.839,54.32,33.807c-5.07,4.975-28.926,14.313-37.703,17.658
		c-8.797,3.34-35.496,22.971-41.418,31.401c-5.926,8.42-14.246,41.821-15.406,51.201c-1.164,9.38-46.398,7.179-61.48,3.276
		c-15.082-3.898-64.254-16.119-75.629-18.815c-11.387-2.7-48.488-10.635-57.039-12.229c-8.555-1.598-32.688-6.018-34.629-6.2
		c-1.945-0.189-9.855-4.364-15.262-6.896c-5.406-2.521-33.348-1.966-46.805-5.005c0,0,0,0-4.781-12.969
		c-4.574-12.449-1.906-20.235,10.715-27.608c7.5-4.371,7.5-4.371,7.5-4.371c8.824-3.81,19.668-9.142,24.078-11.842
		c4.418-2.688,24.516-14.276,34.609-20.179c10.105-5.905,41.684-20.499,46.492-22.181c4.828-1.68,18.023-14.902,22.484-18.768
		c4.453-3.873,23.535-9.436,27.926-10.489c4.387-1.065,21.039-11.983,30.277-18.317
		C413.241,535.894,457.276,514.963,463.764,510.733z"/>
</g>
</svg>
