<?xml version="1.0" encoding="utf-8"?>
<!-- Generator: Adobe Illustrator 16.0.0, SVG Export Plug-In . SVG Version: 6.00 Build 0)  -->
<!DOCTYPE svg PUBLIC "-//W3C//DTD SVG 1.1//EN" "http://www.w3.org/Graphics/SVG/1.1/DTD/svg11.dtd">
<svg version="1.1" id="Capa_1" xmlns="http://www.w3.org/2000/svg" xmlns:xlink="http://www.w3.org/1999/xlink" x="0px" y="0px"
	 width="1200px" height="1200px" viewBox="0 0 1200 1200" enable-background="new 0 0 1200 1200" xml:space="preserve">
<g>
	<g opacity="0.3">
		<path fill-rule="evenodd" clip-rule="evenodd" fill="#C1272D" d="M697.428,921.839c-18.289,3.385-41.535,4.058-51.648,1.538
			c-10.109-2.538-35.418-13.77-42.699-12.924c0,0,0,0-6.375,0c-23.215,0-23.215,0-23.215,0
			c-22.566-11.098-48.531-17.155-57.707-13.443c0,0,0,0-12.328,0c-5.48,0-10.762-0.52-15.395-0.981
			c-2.953-0.288-2.953-0.288-2.953-0.288c-3.367-0.212-19.262-0.385-35.32-0.385c-16.07,0-26.473-8.963-23.137-19.887
			s0.047-22.31-7.309-25.271c0,0,0,0-6.703-2.674c-11.789-4.692-20.75-11.289-27.965-16.617c-1.441-1.076-1.441-1.076-1.441-1.076
			c-1.906-1.366-7.242-1.097-11.867,0.596c-4.605,1.712-12.828,0.327-18.27-3.039c-5.434-3.365-14.434-9-20.012-12.501
			c0,0,0,0-5.156-3.116c-14.539-8.809-31.012-18.751-45.313-32.83c-6.355-6.289-10.367-9-17.191-11.674
			c-20.57-8.059-39.977-17.502-58.711-26.637c-13.238-6.463-25.762-12.56-38.445-18.079c-8.711-3.789-19.105-6.847-31.137-10.386
			c-6.645-1.942-6.645-1.942-6.645-1.942c-7.848-2.404-22.703-7.078-33.043-10.366c-10.328-3.309-15.895-18.291-12.375-33.312
			s1.586-31.503-4.262-36.619c0,0,0,0-5.461-4.077c-27.563-20.637-33.234-53.121-14.117-80.816
			c3.184-4.596,6.309-9.212,9.441-13.848c12.168-17.943,24.766-36.541,40.035-54.102c13.512-15.521,13.512-15.521,13.512-15.521
			c23.355-11.097,43.543-20.521,44.859-20.964c1.297-0.403,10.598-3.5,20.637-6.865c0,0,0,0,4.02-4.097
			c17.992-18.367,42.746-25.33,60.824-30.427c4.25-1.192,10.414-4.73,16.953-8.462c15.262-8.731,36.137-20.714,63.844-20.714
			c0.039,0,0.039,0,0.039,0c0.035,0,15.395-10.481,34.105-23.31c0,0,0,0,29.445,0c11.695,0,22.641,1.673,30.871,3.135
			c1.086,0.212,2.113,0.288,3.098,0.288c8.883,0,8.883,0,8.883,0c13.02-10.481,23.926-19.252,24.242-19.521
			c0.309-0.25,2.906-2.385,5.781-4.771c0,0,0,0,2.039-1.73c9.828-8.366,23.281-19.829,45.398-19.829c0.086,0,0.086,0,0.086,0
			c0.098,0,4.539-3.692,9.867-8.193c0,0,0,0,6.703-2.961c8.066-3.521,17.047-5.309,26.715-5.309c7.789,0,14.703,1.115,20.262,2.02
			c1.691,0.27,1.691,0.27,1.691,0.27c1.809,0.269,3.988,0.558,4.836,0.653c0.855,0.077,9.348,1.058,18.879,2.154c0,0,0,0,7.191,0
			c8.566,0,14.27-1.347,19.676-4.597c14.367-8.674,30.348-13.232,46.234-13.232c22.117,0,22.117,0,22.117,0
			c21.031,13.713,50.391,21.061,65.246,16.31c0,0,0,0,13.945,0c36.09,0,36.09,0,36.09,0c28.09,28.233,64.063,55.583,79.969,60.775
			c15.887,5.212,58.121,46.773,67.73,51.967c9.605,5.192,33.301,27.002,38.789,27.521c0,0,0,0,4.512,0.192
			c41.359,1.731,69.18,21.503,82.664,58.795c3.055,8.442,7.77,17.232,13.863,27.811c0.426,0.769,0.926,1.462,1.367,2.153
			c3.73,5.674,3.73,5.674,3.73,5.674c4.453,18.079,21.82,59.103,38.582,91.183c0,0,0,0-3.492,15.078
			c-6.625,28.618-32.426,52.024-69.008,62.622c-20.059,5.809-28.012,12.866-33.762,21.656
			c-20.012,30.541-45.137,46.004-74.691,46.004c-2.75,0-2.75,0-2.75,0c-3.047-0.23-7.066,1.327-8.914,3.462c0,0,0,0-1.172,1.731
			c-17.34,25.637-17.34,25.637-17.34,25.637c-30.801,9.193-58.445,21.214-61.41,26.695c-2.98,5.481-6.711,12.482-8.289,15.578
			c0,0,0,0-1.43,2.885c-4.301,8.79-9.656,19.714-17.734,30.119c-25.023,32.156-54.219,38.927-74.305,38.927
			c-8.02,0-16.184-1.077-24.273-3.251c-6.855-1.826-12.5-2.711-17.289-2.711c-5.414,0-11.664,0.942-20.715,7.789
			C697.428,921.839,697.428,921.839,697.428,921.839z"/>
	</g>
	<g opacity="0.8">
		<path fill-rule="evenodd" clip-rule="evenodd" fill="#C1272D" d="M920.932,453.792c4.605,8.904,14.637,16.905,22.309,17.81
			c7.676,0.923,41.234,6.654,60.113,12.098c0,0,0,0,7.191,20.713c4.145,11.905,4.145,11.905,4.145,11.905
			c6.645,12.366,14.578,25.618,17.617,29.483c3.047,3.828,0.992,22.464,2.656,27.041c1.66,4.597,11.836,27.138,14.961,43.255
			c3.137,16.098-35.848,43.158-47.641,48.351c-11.797,5.213-41.051,37.812-49.195,47.313c-8.145,9.482-46.871,7.674-52.199,13.002
			c-5.316,5.327-22.809,25.982-30.367,32.791c-7.547,6.809-38.293,10.905-42.871,10.828c-4.594-0.115-16.902,5.789-23.586,8.193
			c-6.703,2.404-21.773,3.827-17.938,10.328c3.82,6.5,10.848,34.33,5.32,46.889c0,0,0,0-7.5,10.04
			c-12.07,16.175-12.07,16.175-12.07,16.175c-20.703,2.289-48.879,2.789-62.621,1.077c-13.742-1.692-56.469,18.04-65.883,20.905
			c-9.434,2.866-38.367-16.886-45.887-16.713c0,0,0,0-6.801,1.424c-20.984,4.442-20.984,4.442-20.984,4.442
			c-19.547-9.578-46.773-25.406-60.496-35.177c0,0,0,0-15.473,16.637c-4.625,4.98-4.625,4.98-4.625,4.98
			c-15.125-2.308-26.551-7.462-25.395-11.404c1.152-3.963-3.789-18.041-13.637-22.271c-9.859-4.193-43.379-22.521-52.313-31.484
			c-8.934-9.001-50.988-10.654-61.246-16.752c-10.273-6.058-37.313-29.637-42.246-34.061c-4.941-4.404-35.426-19.982-52.148-28.234
			c-16.734-8.27-68.816-31.618-78-34.772c-9.172-3.135-36.117-18.06-34.629-24.733c1.5-6.674,1.453-33.638-4.672-39.639
			c-6.125-6.02-27.023-24.982-29.867-29.271c-2.828-4.27,7.125-26.715,14.836-38.889c7.723-12.174,35.656-46.255,41.727-51.352
			c6.066-5.077,37.629-17.81,54.379-22.925c0,0,0,0,12.617-13.444c9.367-9.962,9.367-9.962,9.367-9.962
			c16.605-4.904,40.332-16.329,52.707-25.407c12.375-9.077,57.891-10.75,63.555-11.828c0,0,0,0,2.258-3.211
			c15.734-22.291,15.734-22.291,15.734-22.291c24.539,3.02,67.582-0.346,95.645-7.481c0,0,0,0,18.906-15.829
			c20.672-17.348,20.672-17.348,20.672-17.348c12.32,4.116,25.715-0.673,29.773-10.674c0,0,0,0,6.559-3
			c7.441-3.404,7.441-3.404,7.441-3.404c10.992,2.385,41.988,7.289,68.883,10.866c0,0,0,0,23.754-14.905
			c17.355-10.905,17.355-10.905,17.355-10.905c19.063,10.193,45.457,26.215,58.66,35.562c0,0,0,0,19.57-9.481
			c33.457-16.214,33.457-16.214,33.457-16.214c24.203,31.215,56.371,59.353,71.477,62.507c15.117,3.173,45.609,35.792,48.16,39.272
			C884.986,428.097,916.334,444.926,920.932,453.792z"/>
	</g>
	<g>
		<path fill-rule="evenodd" clip-rule="evenodd" fill="#F15A24" d="M187.056,576.17c-5.816-7.482-5.336-17.811,1.07-22.965
			c0,0,0,0,1.145-4.961c6.395-27.772,6.395-27.772,6.395-27.772c24.57-10.943,51.109-22.194,58.977-25.022
			c7.875-2.826,41.406-14.366,56.844-20.002c15.434-5.615,63.66-16.636,71.773-18.386c8.129-1.789,35.984-14.905,45.094-19.983
			c9.105-5.077,42.051-5.885,47.648-6.02c5.586-0.173,33.004-9.404,51.859-14.636c18.867-5.212,87.118-20.752,110.321-21.176
			c23.203-0.403,80.949,27.253,83.535,29.312c2.59,2.038,20.063,12.539,32.504,19.867c12.426,7.365,60.43,31.233,77.133,41.619
			c16.695,10.366,66.18,52.294,77.238,65.487c11.078,13.194,2.762,77.643-42.281,113.742c0,0-12.723,10.193-37.246,14.482
			c-16.184,2.827-16.184,2.827-16.184,2.827c-7.922,12.693-22.945,32.965-33.398,45.043c-10.441,12.098-53.063,36.023-60.707,38.734
			c-7.645,2.751-29.551,18.56-38.273,23.233c-8.73,4.674-42.148-2.327-53.949-5.827c-11.809-3.52-50.379-3.789-57.34-3.347
			s-48.418-12.175-79.961-22.041c-31.551-9.866-116.07-37.331-118.223-37.792c-2.156-0.48-19.84-10.943-36.938-20.291
			c-17.105-9.347-65.273-42.965-73.516-46.831c0,0,0,0-7.387-3.731c-20.492-10.347-20.492-10.347-20.492-10.347
			C217.244,620.251,192.876,583.67,187.056,576.17z"/>
	</g>
	<g>
		<path fill-rule="evenodd" clip-rule="evenodd" fill="#FBB03B" d="M902.084,592.979c3.105,6.463,4.922,13.193,4.055,14.906
			c0,0,0,0-0.816,0.134c-47.195,6.655-47.195,6.655-47.195,6.655c-35.254,34.253-77.02,76.68-92.816,94.336c0,0,0,0-12.148,17.617
			c-16.098,23.349-16.098,23.349-16.098,23.349c-26.945,8.886-54.188,17.29-60.535,18.694c-6.344,1.385-33.434,0.653-44.168-5.328
			c-10.719-5.962-19.953-38.754-22.047-35.542c0,0,0,0-1.77,3.039c-17.598,29.983-17.598,29.983-17.598,29.983
			c-21.281-6.154-52.422-19.193-69.191-28.964c-16.762-9.771-85.809-25.964-108.656-33.504
			c-22.848-7.539-99.547-37.715-121.098-45.735c0,0,0,0-16.051-16.193c-11.117-11.213-11.117-11.213-11.117-11.213
			c-17.152-7.463-38.789-24.445-48.043-37.734c-9.258-13.29,19.629-59.468,31.945-66.949c12.328-7.463,63.027-21.194,81.855-23.599
			c18.84-2.385,76.461-17.252,87.547-22.579c11.078-5.327,43.918-21.849,48.293-24.656c4.375-2.809,24.531-5.174,37.254-7.27
			c12.723-2.097,65.027-19.021,90.742-24.33c25.711-5.309,90.106,11.328,101.278,16.925c11.195,5.597,56.641,25.406,74.844,35.581
			c18.203,10.212,73.441,50.582,86.133,60.986c0,0,0,0,4.992,16.617c2.895,9.616,2.895,9.616,2.895,9.616
			C876.158,565.803,898.975,586.497,902.084,592.979z"/>
	</g>
	<path fill-rule="evenodd" clip-rule="evenodd" fill="#FFF6A1" d="M585.193,703.471c-3.566-3.904-16.039-1.539-27.723,5.27
		c-11.695,6.789-49.227-20.963-51.859-24.56c-2.625-3.559-18.348-13.194-28.41-12.29c-10.047,0.904-41.02-10.482-48.543-11.501
		c0,0,0,0-6.961,0.269c-10.23,0.385-10.23,0.385-10.23,0.385c-11.223,1.135-23.426,2.501-27.129,3.059s-44.379-17.425-84.633-36.696
		c0,0,0,0-23.512-34.965c-4.801-7.155-6.645-17.194-7.23-26.099c-1.328-20.137-1.328-20.137-1.328-20.137
		c13.723-4.135,31.004-9.443,38.398-11.828c7.402-2.347,37.406-9.866,49.898-12.925c12.492-3.058,49.391-7.231,53.938-7.789
		c4.566-0.558,36.043-13.175,59.793-22.694c0,0,0,0,17.977-16.04c4.672-4.154,4.672-4.154,4.672-4.154
		c8.762-0.423,35.137-2.424,58.621-4.501c23.473-2.038,89.922,7.309,95.954,9.867c6.027,2.576,27.078,14.598,34.023,19.713
		c6.93,5.097,50.109,29.965,78.727,50.352c0,0,0,0,7.945,31.041c5.699,22.349-13.813,38.428-28.82,53.736
		c-21.938,22.368-21.938,22.368-21.938,22.368c-23.578,25.099-70.508,59.891-104.289,77.354c0,0,0,0-23.907-23.829
		C585.193,703.471,585.193,703.471,585.193,703.471z"/>
</g>
</svg>
