<?xml version="1.0" encoding="utf-8"?>
<!-- Generator: Adobe Illustrator 16.0.0, SVG Export Plug-In . SVG Version: 6.00 Build 0)  -->
<!DOCTYPE svg PUBLIC "-//W3C//DTD SVG 1.1//EN" "http://www.w3.org/Graphics/SVG/1.1/DTD/svg11.dtd">
<svg version="1.1" id="Capa_1" xmlns="http://www.w3.org/2000/svg" xmlns:xlink="http://www.w3.org/1999/xlink" x="0px" y="0px"
	 width="1200px" height="1200px" viewBox="0 0 1200 1200" enable-background="new 0 0 1200 1200" xml:space="preserve">
<g>
	<g opacity="0.3">
		<path fill-rule="evenodd" clip-rule="evenodd" fill="#C1272D" d="M107.992,733.89c-1.186-5.893-2.307-11.233-2.494-11.869
			c0,0,0,0-0.186-0.589c-1.414-4.463-3.779-11.943-0.977-20.552c0.055-0.162,0.055-0.162,0.055-0.162
			c0.043-0.158-0.537-0.841-1.295-1.519c0,0,0,0-1.504-1.035c-6.102-4.194-11.068-10.393-13.641-17.005
			c-4.859-12.476-4.859-12.476-4.859-12.476c-5.174-13.954-9.439-25.461-9.484-25.582c-0.043-0.121-4.484-2.852-9.867-6.077
			c-5.381-3.224-13.4-26.854-13.721-28.663c-0.32-1.812,3.367-13.503,8.193-25.986c4.826-12.48,10.529-23.556,12.676-24.618
			c2.143-1.06,4.289-2.112,4.766-2.336c0,0,0,0,0.771-0.343c1.018-0.451,3.137-1.385,4.598-2.321c0.537-0.34,0.537-0.34,0.537-0.34
			c0.65-0.394,8.627-11.26,17.723-24.145c0,0,0,0,8.143-5.771c2.199-1.56,2.199-1.56,2.199-1.56c2.018-1.55,5.689-4.786,8.156-7.192
			c2.469-2.405,15.469-4.364,15.875-4.359c0,0,0,0,0.004,0c6.512,0,12.412-3.512,21.531-9.237c2.279-1.434,4.564-2.864,6.879-4.239
			c7.299-4.328,16.023-9.329,25.441-13.624c4.352-1.991,8.496-3.256,12.154-4.37c2.713-0.831,5.525-1.686,6.865-2.433
			c1.697-0.951,4.273-3.344,6.764-5.666c1.82-1.703,1.82-1.703,1.82-1.703c2.07-1.834,6.305-5.494,9.402-8.131
			c3.098-2.637,8.715-3.403,12.469-1.7c3.762,1.7,10.777,5.912,15.596,9.363c4.82,3.453,14.158,12.99,15.793,12.837c0,0,0,0,1.502,0
			c8.082,0,14.527,2.731,18.793,4.537c0.535,0.232,0.535,0.232,0.535,0.232c0.607,0.251,2.479,0.53,4.15,0.614c0,0,0,0,1.537,0.037
			c2.707,0.064,2.707,0.064,2.707,0.064c3.307,0.182,9.898,0.65,14.641,1.035c4.736,0.382,9.664,6.06,10.941,12.621
			c1.271,6.561,8.209,13.461,15.404,15.342c7.201,1.875,23.645,13.602,24.461,13.813c0,0,0,0,0.619,0.158
			c1.156,0.284,2.295,0.572,3.383,0.87c15.436,4.244,15.436,4.244,15.436,4.244c17.521,10.405,37.379,18.289,44.123,17.522
			c0,0,0,0,6.797,0c12.111,0,12.111,0,12.111,0c11.389,3.976,20.727,7.231,20.764,7.231c0,0,0,0,0.031,0
			c2.727,0,8.676-2.92,13.039-5.057c1.473-0.72,1.473-0.72,1.473-0.72c1.605-0.771,5.115-2.442,7.787-3.714
			c2.68-1.265,7.09-1.329,9.813-0.146c2.715,1.186,6.959,3.051,9.428,4.138c0,0,0,0,2.23,0.999
			c13.438,6.008,25.041,11.191,37.471,11.191c0.594,0,3.094-0.072,3.744-0.072c9.881,0,18.652,2.898,25.695,5.225
			c3.793,1.25,7.373,2.438,10.035,2.819c15.229,2.201,15.229,2.201,15.229,2.201c17.441,1.198,32.932,2.26,34.428,2.358
			c0,0,0,0,0.051,0c0.344,0,0.344,0,0.344,0c0.23-0.015,10.809-3.834,23.508-8.475c0,0,0,0,13.74,0c8.771,0,8.771,0,8.771,0
			c8.566,1.232,17.527,2.541,19.916,2.908c2.391,0.368,12.154,1.861,21.691,3.315c0,0,0,0,8.791,1.587
			c4.918,0.887,9.459,2.026,13.852,3.135c2.432,0.609,4.863,1.222,7.316,1.765c1.303,0.288,2.621,0.614,3.939,0.951
			c1.229,0.308,1.229,0.308,1.229,0.308c1.33,0.291,4.801,0.463,7.705,0.389c0,0,0,0,2.633,0c26.002,0,50.762,4.417,74.701,8.692
			c6.766,1.203,13.523,2.411,20.301,3.515c5.002,0.818,9.375,2.252,12.887,3.409c1.402,0.46,2.805,0.934,4.229,1.318
			c0.164,0.047,0.164,0.047,0.164,0.047c0.184,0.052,4.736-1.23,10.121-2.847c0,0,0,0,5.283,0c6.34,0,11.838,1.43,15.855,2.469
			c1.252,0.321,1.252,0.321,1.252,0.321c1.379,0.313,3.641,0.498,5.02,0.41c0,0,0,0,1.297,0c0.83,0,0.83,0,0.83,0
			c0.934,0.031,7.307-2.261,14.166-5.09c0,0,0,0,6.506,0c5.814,0,5.814,0,5.814,0c5.223,1.853,14.881,1.796,21.461-0.126
			c0,0,0,0,4.217,0c8.469,0,16.189,2.642,21.252,4.626c12.816,5.033,23.682,8.382,35.063,8.382c3.389,0,6.688-0.298,10.086-0.901
			c5.135-0.92,10.441-1.36,16.229-1.36c11.844,0,23.115,1.857,34.016,3.659c2.484,0.417,4.951,0.821,7.398,1.198
			c9.605,1.481,16.404,6.393,22.402,10.726c2.016,1.454,2.016,1.454,2.016,1.454c2.652,1.781,12.049,7.699,20.883,13.158
			c8.834,5.456,8.455,13.781-0.846,18.491c-9.297,4.717-34.807,15.29-56.688,23.499c0,0,0,0-22.242,0
			c-1.42,0-2.836-0.02-4.266-0.052c-15.682-0.404-31.365-0.919-47.037-1.435c-20.443-0.668-20.443-0.668-20.443-0.668
			c-23.02-0.608-44.104-0.729-46.844-0.271c0,0,0,0-3.041,0.734c-2.869,0.697-2.869,0.697-2.869,0.697
			c-3.441,0.737-8.393,1.75-11.02,2.255c-2.619,0.498-6.682-0.364-9.012-1.912c-2.342-1.551-12.473-0.72-22.521,1.849
			c0,0,0,0-10.127,0c-2.326,0-4.689-0.084-7.105-0.242c-0.561-0.037-1.131-0.052-1.693-0.052c-5.209,0-11.646,1.376-18.467,2.835
			c-3.803,0.815-3.803,0.815-3.803,0.815c-4.17,0.804-7.713,1.501-7.871,1.56c-0.158,0.052-1.865,0.642-3.797,1.307
			c-1.928,0.668-9.313,1.215-9.576,1.215c-0.26,0-0.803-0.022-1.201-0.049c-0.4-0.025-4.988-0.614-10.201-1.307c0,0,0,0-4.021-0.767
			c-3.734-0.715-7.26-1.388-9.645-1.388c-0.809,0-0.809,0-0.809,0c-0.178,0.047-0.395,0.121-0.479,0.168
			c-0.088,0.047-2.357,2.26-4.328,4.202c-1.969,1.939-5.896,3.426-8.732,3.287c-2.842-0.125-9.465-0.409-14.729-0.618
			c0,0,0,0-4.779-0.163c-12.018-0.411-24.443-0.835-36.992-2.163c-3.725-0.399-6.896-1.161-9.447-1.777
			c-0.311-0.071-0.311-0.071-0.311-0.071c-0.385-0.092-6.791,1.496-14.25,3.529c0,0,0,0-2.404,0c-1.539,0-3.162-0.079-4.779-0.18
			c-0.672-0.037-0.672-0.037-0.672-0.037c-0.721-0.032-5.873,0.264-11.441,0.652c0,0,0,0-5.178,0.378
			c-11.455,0.83-23.299,1.69-35.154,2.173c-0.525,0.022-1.045,0.032-1.574,0.032c-4.969,0-9.408-0.951-12.648-1.648
			c-0.029-0.005-0.029-0.005-0.029-0.005c-0.037-0.013-4.355,1.106-9.592,2.484c0,0,0,0-5.047,0c-6.395,0-11.859-1.346-15.854-2.327
			c-1.244-0.306-1.244-0.306-1.244-0.306c-1.359-0.293-4.137-0.33-6.17-0.088c0,0,0,0-1.826,0.241
			c-5.172,0.673-11.021,1.439-17.338,1.439c-4.48,0-4.48,0-4.48,0c-4.564-0.636-8.414-1.119-8.559-1.072
			c-0.135,0.047-2.346,0.904-4.916,1.907c0,0,0,0-2.719,1.186c-7.684,3.356-7.684,3.356-7.684,3.356
			c-11.461,2.295-21.094,4.176-21.41,4.17c-0.307-0.005-3.436-0.13-6.938-0.288c0,0,0,0-3.189-0.209
			c-3.307-0.222-6.432-0.427-9.311-0.427c-1.996,0-3.729,0.102-5.307,0.306c-3.238,0.419-6.584,0.629-10.225,0.629
			c-5.588,0-10.771-0.483-15.783-0.949c-2.709-0.254-2.709-0.254-2.709-0.254c-2.975-0.22-8.588-0.571-12.484-0.781
			c-3.891-0.209-12.596-0.692-19.34-1.067c-6.748-0.372-25.324-0.803-26.461-0.508c0,0,0,0-2.605,0.87
			c-7.582,2.526-14.133,4.713-21.592,4.713c-7.727,0-7.727,0-7.727,0c-6.58-3.157-14.389-4.082-17.357-2.065c0,0,0,0-2.189,1.917
			c-2.889,2.531-11.703,10.258-24.928,10.258c-5.703,0-11.445-1.412-17.541-4.315c-1.896-0.905-1.896-0.905-1.896-0.905
			c-1.486-0.468-16.762,1.439-33.945,4.229c0,0,0,0-13.666,0.047c-9.078,0.032-17.658,0.057-25.18,1.548
			c-6.99,1.383-14.521,2.056-23.025,2.056c-6.188,0-12.137-0.343-17.885-0.668c-5.309-0.306-10.324-0.589-15.139-0.589
			c-1.545,0-1.545,0-1.545,0c-1.703,0.054-12.76,4.995-24.572,10.984c-11.813,5.981-31.277,11.164-32.127,11.381
			c0,0,0,0-1.088,0.261c-1.658,0.399-1.658,0.399-1.658,0.399c-1.959,0.422-8.645,1.765-14.855,2.984
			C115.219,743.612,109.172,739.79,107.992,733.89z"/>
	</g>
	<g opacity="0.8">
		<path fill-rule="evenodd" clip-rule="evenodd" fill="#C1272D" d="M100.047,657.162c-6.535-18.693-15.322-35.943-19.531-38.326
			c-4.209-2.386-7.211-16.283-5.16-21.875c2.047-5.594,10.131-22.947,12.641-24.051c0,0,0,0,3.424-2.304
			c3.449-2.327,8.891-5.016,9.25-8.047c1.787-14.979,14.41-20.138,23.656-28.394c1.367-1.225,1.367-1.225,1.367-1.225
			c1.619-1.124,8.988-4.106,16.377-6.617c7.383-2.509,32.068-16.145,40.012-20.998c0,0,0,0,7.59-3.655
			c6.307-3.036,13.641-4.133,19.605-7.643c5.619-3.305,5.619-3.305,5.619-3.305c5.248-5.461,14.822-4.895,21.271,1.257
			c0,0,0,0,2.879,7.448c2.037,5.267,6.975,9.05,11.428,5.629c7.633-5.865,12.959-1.969,19.748,0.821
			c4.828,1.984,4.828,1.984,4.828,1.984c7.426-0.066,14.168,3.482,14.98,7.884c0.807,4.401,3.361,17.207,3.674,17.639
			c0.311,0.429,13.09,0.163,27.475-0.412c0,0,0,0,9.949,11.844c2.783,3.315,8.697,4.291,13.377,5.651
			c14.822,4.3,14.822,4.3,14.822,4.3c13.564,9.634,28.65,18.716,33.529,20.18c0,0,0,0,4.385-0.54
			c12.801-1.57,12.801-1.57,12.801-1.57c13.535,2.805,30.158,4.789,36.934,4.417c6.775-0.373,38.715,1.229,57.002,10.536
			c0,0,0,0,20.199-0.831c10.395-0.426,10.395-0.426,10.395-0.426c11.666,4.513,35.783,9.811,53.6,11.771c0,0,0,0,16.25,1.183
			c4.014,0.288,4.014,0.288,4.014,0.288c4.484-1.412,14.789-4.076,22.9-5.919c8.107-1.839,39.775,0.709,51.701,2.59
			c0,0,0,0,10.783,2.053c6.465,1.229,6.465,1.229,6.465,1.229c7.008,1.917,14.627,4.054,16.939,4.742
			c2.311,0.688,22.404,2.544,39.59,4.318c17.18,1.774,66.385,9.833,71.488,11.413c0,0,0,0,4.676,1.333
			c3.492,1.004,3.492,1.004,3.492,1.004c3.738,0.725,16.076,1.396,27.41,1.498c0,0,0,0,10.121-1.183
			c4.119-0.479,4.119-0.479,4.119-0.479c4.453-0.273,12.127-1.176,17.055-2.016c4.922-0.841,20.146,5.483,24.336,2.006
			c4.188-3.478,26.283,0.998,35.828,4.453c9.543,3.458,44.752,2.696,53.439,2.984c8.688,0.289,33.836,4.548,36.814,6.366
			c2.977,1.812,6.119,11.78-3.535,15.295c-9.654,3.517-50.115,5.383-69.141,4.7c-19.018-0.683-72.076-1.43-75.615-0.771
			c-3.543,0.66-15.932,1.843-17.654,0.633c-1.727-1.207-17.352-1.464-29.182,3.32c0,0,0,0-12.674-0.888
			c-11.77-0.823-11.77-0.823-11.77-0.823c-13.252,3.455-26.686,7.352-29.854,8.66c0,0,0,0-2.758-0.231
			c-14.004-1.171-14.004-1.171-14.004-1.171c-14.947,2.82-34.291,4.941-42.992,4.705c-8.703-0.236-34.766-3.423-38.768-4.946
			c-3.994-1.523-17.102,3.293-19.396,3.47c-2.293,0.181-15.568,1.193-24.266,1.894c-8.701,0.702-34.695,1.111-38.408,0.071
			c-3.707-1.04-19.953-0.34-30.783-1.37c0,0,0,0-9.238,1.003c-10.369,1.119-20.273,3.672-30.746,0.594
			c-2.586-0.752-2.586-0.752-2.586-0.752c-3.455,1.346-14.557,6.746-24.664,12.008c0,0,0,0-9.045-0.242
			c-8.764-0.227-8.764-0.227-8.764-0.227c-9.713-0.104-21.887-0.335-27.061-0.508c-5.174-0.167-33.432-1.723-51.262-2.826
			c0,0,0,0-16.23-0.516c-4.066-0.131-4.066-0.131-4.066-0.131c-4.5,1.514-11.846,3.98-16.322,5.489
			c-4.48,1.508-26.35-7.815-30.721-5.085c-4.363,2.726-16.99,12.728-19.537,14.356c-2.541,1.626-17.521-2.943-25.033-6.004
			c0,0,0,0-5.205,1.938c-21.615,8.073-21.615,8.073-21.615,8.073c-24.404-0.746-61.213-1.688-81.801-2.085c0,0,0,0-18.674,1.312
			c-3.949,0.278-9.875,1.267-11.297,3.877c-7.854,14.439-7.854,14.439-7.854,14.439c-15.111,1.878-29.094,3.716-31.07,4.096
			c-1.971,0.377-9.322-2.218-11.004-6.871c0,0,0,0,1.059-3.428c3.723-12.086,3.723-12.086,3.723-12.086
			c-7.842-7.922-16.23-16.36-18.643-18.761c0,0,0,0-0.986-2.669C100.047,657.162,100.047,657.162,100.047,657.162z"/>
	</g>
	<g>
		<path fill-rule="evenodd" clip-rule="evenodd" fill="#F15A24" d="M640.752,631.805c7.164,5.66,8.906,9.811,3.865,9.217
			c0,0,0,0-4.564-0.65c-3.572-0.505-3.572-0.505-3.572-0.505c-3.875-0.585-16.975,2.168-29.107,6.114c0,0,0,0-10.551-9.114
			c-1.334-1.15-1.334-1.15-1.334-1.15c-3.078,0.803-10.494,2.774-16.482,4.382c-5.99,1.611-36.154,5.192-53.566,6.659
			c-17.406,1.459-66.063,5.005-69.414,4.869c0,0,0,0-3.041-0.269c-13.967-1.22-13.967-1.22-13.967-1.22
			c-15.277,1.355-44.291,2.711-64.475,3.005c0,0,0,0-18.361,0.895c-13.318,0.65-26.547,3.083-39.846,4.426
			c-6.668,0.673-6.668,0.673-6.668,0.673c-7.342,0.01-21.504-0.419-31.461-0.956c-9.963-0.535-38.121,4.286-40.758,4.574
			c-2.637,0.283-16.166-0.32-24.203-1.124c0,0,0,0-7.322-0.173c-10.492-0.241-10.492-0.241-10.492-0.241
			c-9.932-4.917-27.598-12.584-39.254-17.037c0,0,0,0-10.908-3.589c-1.039-0.34-2.398,0.479-3.613,0.493
			c-18.361,0.19-19.305-18.124-28.266-27.667c-6.129-6.523-6.129-6.523-6.129-6.523c5.934-8.205,20.316-22.516,31.961-31.807
			c11.643-9.292,47.83-32.093,51.734-34.016c3.902-1.922,20.25-9.542,27.795-12.384c7.549-2.836,28.541,7.271,30.199,8.683
			s14.465,7.49,24.377,12.909c9.904,5.422,45.547,28.101,58.656,36.138c13.104,8.034,66.551,12.971,82.023,13.387
			c0,0,0,0,14.051,0.873c3.539,0.219,6.943,2.119,10.494,2.834c6.385,1.294,6.385,1.294,6.385,1.294
			c7.082,1.139,20.715,3.429,30.295,5.085c9.586,1.653,50.941,8.145,70.484,11.721C565.266,625.18,633.584,626.141,640.752,631.805z
			"/>
	</g>
	<g>
		<path fill-rule="evenodd" clip-rule="evenodd" fill="#FBB03B" d="M167.711,638.769c-9.1-6.802-18.027-11.314-19.844-10.018
			c-1.816,1.294-7.752,3.384-9.494,2.019c0,0,0,0-1.32-1.166c-0.439-0.39-0.777-0.983-0.965-1.55
			c-3.102-9.386-13.635-15.615-9.436-28.331c4.445-13.456,4.445-13.456,4.445-13.456c11.313-8.042,29.023-18.556,39.359-23.369
			c10.334-4.811,46.303-17.131,56.205-18.671c0,0,0,0,9.102-0.552c8.787-0.53,15.672,2.433,17.41,12.402
			c1.131,6.486,5.678,8.724,11.803,9.449c6.666,0.789,13.408,1.755,19.813,3.667c4.51,1.343,4.51,1.343,4.51,1.343
			c4.377,3.042,12.605,9.245,18.283,13.787c5.684,4.545,33.262,15.652,45.26,19.887c0,0,0,0,10.93,3.79
			c4.625,1.603,9.279,3.663,14.07,4.183c25.479,2.777,25.479,2.777,25.479,2.777c28.068,2.694,56.041,5.257,62.164,5.698
			c0,0,0,0,4.959,1.954c2.547,1.003,4.854,5.354,5.154,8.39c0.191,2.016-3.037,4.895-5.363,6.449c-1.871,1.25-1.871,1.25-1.871,1.25
			c-2.863,0.141-29.402,0.813-58.971,1.491c0,0-6.045,0.138-35.943,1.141c-17.115,0.572-17.115,0.572-17.115,0.572
			c-18.803,1.234-42.229,3.272-52.061,4.532c-9.832,1.259-42.502,0.971-50.186,1.244
			C246.398,647.954,176.813,645.568,167.711,638.769z"/>
	</g>
	<path fill-rule="evenodd" clip-rule="evenodd" fill="#FFF6A1" d="M167.145,631.551c0.457-0.399-3.314-3.88-8.385-7.736
		c-5.07-3.854-11.146-23.835-1.17-35.031c9.973-11.199,48.85-24.192,51.752-24.083c0,0,0,0,1.904-1.133
		c14.34-8.535,14.34-8.535,14.34-8.535c14.105,6.755,28.102,13.619,31.111,15.253c3.008,1.639,16.172,6.459,22.125,9.143
		c5.949,2.684,23.592,16.939,28.418,20.448c4.822,3.508,20.217,13.467,23.012,14.958c2.787,1.48,8.822,9.468,4.152,12.898
		c0,0,0,0-3.117,0.915c-19.051,5.567-19.051,5.567-19.051,5.567c-21.666,1.244-43.484,2.721-48.49,3.277
		c-4.998,0.558-26.648,0.262-37.021-0.315c-10.379-0.579-41.246-2.558-45.561-2.9C176.85,633.932,166.686,631.949,167.145,631.551z"
		/>
</g>
</svg>
