<?xml version="1.0" encoding="utf-8"?>
<!-- Generator: Adobe Illustrator 16.0.0, SVG Export Plug-In . SVG Version: 6.00 Build 0)  -->
<!DOCTYPE svg PUBLIC "-//W3C//DTD SVG 1.1//EN" "http://www.w3.org/Graphics/SVG/1.1/DTD/svg11.dtd">
<svg version="1.1" id="Capa_1" xmlns="http://www.w3.org/2000/svg" xmlns:xlink="http://www.w3.org/1999/xlink" x="0px" y="0px"
	 width="1200px" height="1200px" viewBox="0 0 1200 1200" enable-background="new 0 0 1200 1200" xml:space="preserve">
<g>
	<g opacity="0.3">
		<path fill-rule="evenodd" clip-rule="evenodd" fill="#C1272D" d="M298.797,838.926c-22.555,8.484-53.676,6.503-69.18-4.401
			c-15.5-10.908-53.367-61.088-64.148-72.612c0,0,0,0-4.797-13.368c-9.387-26.157-6.492-7.062-28.609-23.592
			c-29.934-22.371-56.684-38.746-65.461-79.361c-4.258-19.727-4.258-19.727-4.258-19.727c-18.113-20.303-16.051-61.211,4.602-90.904
			c0,0,0,0,27.867-27.428c9.621-9.471,21.641-16.263,34.652-20.02c22.637-6.528,9.898-10.691,21.914-28.842
			c9.266-14.017,18.977-35.504,33.539-44.688c27.766-17.509,40.852-51.89,75.18-56.922c39.605-5.811,54.555,10.471,54.555,10.471
			c29.402,32.036,64.5,60.269,77.996,62.743c0,0,0,0,12.043-5.503c10.848-4.964,31.699-20.1,43.605-19.933
			c52.965,0.742,51.16,80.188,109.895,67.271c31.879-7.006,49.227-1.213,49.227-1.213c41.25,13.777,78.586,27.826,82.969,31.218
			c4.391,3.395,28.352,18.693,42.563,17.053c14.215-1.642,64.711,1.075,94.656-13.818c0,0,0,0,29.988,17.813
			c6.523,3.873,30.02-3.768,37.941-3.768c21.301,0,42.016,5.456,62.012,12.228c59.215,19.994,160.238,55.552,160.238,55.552
			c41.02,14.434,43.156,42.924,4.746,63.306c0,0-39.777,21.106-78.629,30.896c-42.512,10.712-89.984,18.403-133.414,14.205
			c-10.68-1.033-52.465-2.348-52.465-2.348c-43.469-1.366-99.953,3.126-125.547,9.991c0,0,0,0-31.023,0
			c-14.449,0-37.434-10.404-48.793-3.361c-16.578,10.267-33.164,20.541-49.75,30.812c-4.656,2.888-25.012,19.64-28.785,14.379
			c-12.984-18.088-14.492-34.278-37.875-23.751c-28.207,12.734-37.43,29.073-61.617,45.571c-17.293,11.8-17.293,11.8-17.293,11.8
			c-18.586,0.612-34.039,6.115-34.344,12.234c0,0,0,0-6.559,1.84c-6.246,1.758-14.789,0.852-21.25,1.222
			c-27.367,1.568-27.367,1.568-27.367,1.568c-17.68-1.265-27.809-0.5-22.508,1.703C350.617,799.444,321.34,830.434,298.797,838.926z
			"/>
	</g>
	<g opacity="0.8">
		<path fill-rule="evenodd" clip-rule="evenodd" fill="#C1272D" d="M493.09,701.878c-8.883-3.909-13.168-0.199-9.523,8.242
			c0,0,0,0-9.512,6.257c-4.434,2.916-9.188,6.579-11.613,11.075c-9.617,17.896-9.617,17.896-9.617,17.896
			c-18.699,1.551-40.801,1.873-49.09,0.717c-8.301-1.148-27.785,8.641-39.047-1.011c-11.25-9.654-49.754-17.35-48.688-13.672
			c1.078,3.677,0.105,23.929-4.711,36.246c-4.82,12.317-32.586,37.623-28.461,39.354c4.121,1.735,10.961,8.329,7.07,11.228
			c-3.891,2.897-23.676,4.959-33.879-2.945c-10.188-7.909-38.68-35.392-42.063-42.431c0,0,0,0-3.715-6.087
			c-4.051-6.644-7.914-14.146-13.824-18.729c-9.434-7.321-9.434-7.321-9.434-7.321c0.281-10.521,1.629-24.676,3.004-31.45
			c1.363-6.771,3.066-26.516-0.332-25.001c-3.398,1.521-17.375,9.252-26.027,13.69c-8.656,4.445-39.074-21.864-54.93-23.498
			c0,0,0,0-8.34-22.831c-3.352-9.162-3.352-9.162-3.352-9.162C94.52,631.947,90,619.738,86.957,615.311
			c-3.043-4.427-8.719-30.769-4.066-46.597c0,0,0,0,17.254-5.546c0.941-0.305,0.941-0.305,0.941-0.305
			c0.477-2.021,12.332-23.896,26.359-48.614c0,0,0,0,30.582,1.271c8.805,0.365,8.805,0.365,8.805,0.365
			c8.695-4.611,12.215-13.958,7.82-20.77c-4.395-6.807,10.867-39.384,14.324-55.501c0,0,0,0,19.93-1.656
			c4.074-0.34,7.836-6.321,11.422-10.002c6.012-6.166,11.934-12.438,17.57-18.944c2.672-3.079,4.656-6.76,6.867-10.234
			c1.805-2.844,3.031-7.843,5.281-8.332c10.246-2.239,20.762-3.271,31.195-4.645c11.301-1.496,21.734-1.431,26.82,11.897
			c0.895,2.329,4.98,3.948,7.898,4.923c19.645,6.554,21.5,11.658,10.574,29.429c-4.168,6.771-8.051,13.712-11.941,20.643
			c-0.305,0.54-0.305,0.54-0.305,0.54c0.164-0.203,8.594,0.42,18.742,1.391c10.16,0.968,37.23,6.007,36.359,8.927
			c-0.867,2.924,8.066,6.424,22.215-0.13c14.152-6.558,58.422-15.024,67.828-4.67c9.402,10.354,36.176,39.188,41.219,39.774
			c0,0,0,0,4.449,0.322c9.637,0.703,9.637,0.703,9.637,0.703c4.652,7.927,9.957,15.821,11.797,17.546
			c1.84,1.724,18.148-2.214,28.445-15.51c0,0,0,0,13.941,0.489c10.316,0.362,10.316,0.362,10.316,0.362
			c10.77,6.231,29.156,10.825,40.867,10.213c0,0,0,0,10.367,1.778c9.992,1.725,9.992,1.725,9.992,1.725
			c12.559,5.268,26.055,14.781,30.004,21.128c3.949,6.354,20.324,26.36,25.945,27.683c5.625,1.314,21.398-10.833,27.02-13.821
			c5.617-2.985,23.297,6.34,31.223,10.694c7.918,4.354,32.926,5.213,33.555,1.098c0.617-4.115,7.129-19.437,11.918-25.131
			c4.797-5.692,31.492,9.998,46.727,19.537c0,0,0,0,19.789-4.438c22.809-5.119,22.809-5.119,22.809-5.119
			c25.172,7.564,54.684,17.668,65.566,22.454c0,0,0,0,10.355,2.068c12.637,2.529,12.637,2.529,12.637,2.529
			c9.586,8.597,27.488,21.827,39.785,29.399c0,0,0,0,11.898,6.093c9.945,5.094,9.945,5.094,9.945,5.094
			c12.383,5.583,3.582,21.835-19.563,36.109c0,0,0,0-22.332,4.01c-23.777,4.271-47.891,6.695-71.859,9.869
			c-3.559,0.471-7.379,1.554-10.711,0.793c-27.387-6.264-54.66,0.286-81.961,0.08c-16.941-0.127-34.504-1.269-50.59-6.011
			c-16.324-4.814-16.324-4.814-16.324-4.814c-11.918,8.492-22.645,16.14-23.832,16.991c-1.188,0.858-18.801,4.032-36.75,5.412
			c-17.941,1.384-67.57-11.317-80.73-3.058c-13.164,8.268-49.887,26.906-52.508,23.187c-2.645-3.718-26.254-8.941-49.352-7.177
			c0,0,0,0-18.605,6.851C493.09,701.878,493.09,701.878,493.09,701.878z"/>
	</g>
	<g>
		<path fill-rule="evenodd" clip-rule="evenodd" fill="#F15A24" d="M696.938,596.494c15.457,4.459,23.672,13.201,18.25,19.426
			c-5.426,6.228-58.441,16.208-101.699,20.584c0,0-23.234,2.352-74.195,7.329c-8.047,0.786-16.496,2.019-24.258,0.489
			c-29.582-5.818-29.582-5.818-29.582-5.818c-16.137,21.204-38.23,41.539-49.082,45.195c0,0,0,0-9.711,1.503
			c-7.637,1.188-17.938,2.761-23.207-1.102c-22.52-16.52-50.523-10.137-74.398-19.933c-3.984-1.634-9.273-0.155-13.195-1.865
			c-10.629-4.634-20.477-13.202-31.344-14.539c-10.246-1.261-21.375,4.725-32.121,7.485c-5.992,1.539-13.555,1.225-17.727,4.836
			c-11.086,9.626-20.738,7.757-31.672,0.424c-5.086-3.412-11.117-6.274-17.094-7.361c-15.977-2.909-15.977-2.909-15.977-2.909
			c-4.418-13.788-7.926-27.207-7.773-29.819c0.16-2.615,0.367-19.777,2.52-33.358c2.145-13.586,26.434-51.959,34.664-61.117
			c8.23-9.159,39.164-37.757,48.758-44.941c0,0,0,0,9.859-2.634c15.348-4.086,22.469,1.583,27.824,17.263
			c8.926,26.07,20.766,39.148,50.711,38.265c12.711-0.373,23.18,2.547,35.141,8.521c12.398,6.195,29.801,5.028,44.539,3.195
			c18.027-2.242,18.027-2.242,18.027-2.242c17.867,5.401,37.039,11.317,42.605,13.154c0,0,0,0,5.281,0.623
			c19.52,2.308,39.113,3.891,58.609,6.358c30.215,3.821,60.473,7.514,90.508,12.527c14.496,2.42,28.566,7.608,42.742,11.817
			c3.652,1.087,6.875,3.63,10.52,4.765C696.938,596.494,696.938,596.494,696.938,596.494z"/>
	</g>
	<g>
		<path fill-rule="evenodd" clip-rule="evenodd" fill="#FBB03B" d="M353.641,656.144c-4.32,0.286-11.637-11.539-16.246-26.276
			c0,0,0,0-25.504,2.953c-17.621,2.043-17.621,2.043-17.621,2.043c-18.68,5.651-41.629,10.64-50.996,11.078c0,0,0,0-8.355-1.851
			c-13.824-3.072-27.09-8.8-40.973-11.444c-18.773-3.583-18.773-3.583-18.773-3.583c-2.238-15.057-2.008-36.932,0.508-48.604
			c2.516-11.68,31.426-34.104,34.918-37.478c3.484-3.373,18.375-20.563,28.27-28.918c9.898-8.354,44.191,10.778,50.242,16.604
			c6.059,5.826,25.961,23.11,30.258,26.077c0,0,0,0,4.027,0.098c33.695,0.786,67.023,13.126,101.215,2.435
			c7.195-2.249,17.145-1.753,23.816,1.544c17.906,8.843,36.648,7.314,55.445,8.694c35.98,2.642,71.738,7.264,103.039,27.624
			c4.973,3.235,4.973,3.235,4.973,3.235c6.035,5.76,5.961,15.248-0.168,21.088c0,0,0,0-4.922,0.438
			c-26.379,2.341-51.441,14.042-79.637,6.225c-11.91-3.305-27.996,4.308-40.949,9.851c-16.168,6.916-32.207,11.411-49.648,9.237
			c-9.16-1.145-9.16-1.145-9.16-1.145c-6.453,5.674-16.73,14.173-22.828,18.882C398.469,669.66,357.973,655.864,353.641,656.144z"/>
	</g>
	<path fill-rule="evenodd" clip-rule="evenodd" fill="#FFF6A1" d="M261.902,536.812c11.223,1.681,24.367,11.524,29.215,21.867
		c4.855,10.347,25.234,37.308,34.359,36.608c0,0,0,0,7.23-4.887c9.586-6.499,18.688-9.597,30.105-3.623
		c5.18,2.71,5.18,2.71,5.18,2.71c7.074-0.17,33.527-2.771,58.785-5.778c0,0,0,0,22.867-1.729
		c13.941-1.058,28.723,2.036,42.309,6.028c7.359,2.167,7.359,2.167,7.359,2.167c8.719,9.035,2.914,20.378-12.891,25.204
		c0,0,0,0-11.578,3.938c-11.934,4.058-23.402,10.133-35.613,12.419c-9.293,1.732-19.453-0.844-29.184-1.931
		c-17.816-1.996-35.672-3.888-53.379-6.634c-13.188-2.039-26.578-4.158-39.141-8.419c-14.188-4.8-26.902-6.717-41.699-0.743
		c-22.129,8.924-45.598,10.271-68.738,2.663c-6.719-2.214-13.664-5.054-19.188-9.307c-8.035-6.188-8.035-6.188-8.035-6.188
		c4.559-9.198,22.801-26.229,40.531-37.847c0,0,0,0,9.762-18.4c2.688-5.068,14.324-6.854,22.055-7.42
		C261.902,536.812,261.902,536.812,261.902,536.812z"/>
</g>
</svg>
