<?xml version="1.0" encoding="utf-8"?>
<!-- Generator: Adobe Illustrator 16.0.0, SVG Export Plug-In . SVG Version: 6.00 Build 0)  -->
<!DOCTYPE svg PUBLIC "-//W3C//DTD SVG 1.1//EN" "http://www.w3.org/Graphics/SVG/1.1/DTD/svg11.dtd">
<svg version="1.1" id="Capa_1" xmlns="http://www.w3.org/2000/svg" xmlns:xlink="http://www.w3.org/1999/xlink" x="0px" y="0px"
	 width="1200px" height="1200px" viewBox="0 0 1200 1200" enable-background="new 0 0 1200 1200" xml:space="preserve">
<g>
	<g opacity="0.3">
		<path fill-rule="evenodd" clip-rule="evenodd" fill="#C1272D" d="M410.449,861.037c-14.098,1.331-36.746,0.096-50.344-2.757
			c-13.574-2.834-45.426-26.432-49.324-28.543c0,0,0,0-3.48-1.673c-6.91-3.347-14.773-7.149-22.695-12.55
			c-24.699-16.849-49.355-34.248-73.164-51.058c-10.418-7.358-20.828-14.699-31.25-22.021c-3.621-2.548-7.273-5.571-10.859-8.633
			c-0.293-0.266-0.293-0.266-0.293-0.266c-0.313-0.267-20.176-8.271-44.184-17.761c0,0,0,0-13.91-9.28
			c-7.035-4.696-13.691-9.146-19.07-11.219c-18.781-7.264-38.488-24.663-40.23-47.196C50,626.765,50,626.765,50,626.765
			c0.125-22.704,0.219-42.023,0.219-42.918c0.012-0.894,3.566-13.481,7.91-27.99c0,0,0,0,3.746-5.344
			c31.91-45.219,60.727-57.142,60.727-57.142c52.691-21.83,128.652-72.887,168.773-113.466c0,0,0.258-0.248,36.148-23.656
			c19.313-12.626,41.539-13.539,57.742-14.224c5.047-0.209,5.047-0.209,5.047-0.209c4.621-0.38,17.25-1.863,28.066-3.309
			c10.84-1.426,25.387,16.106,32.336,38.981c6.973,22.876,19.168,42.69,27.156,44.003c0,0,0,0,6.293,0
			c2.293,0,4.441-0.134,6.531-0.419c14.426-1.978,29.664-2.909,47.941-2.909c12.254,0,24.594,0.438,36.918,0.855
			c9.527,0.343,19.023,0.685,28.504,0.761c13.414,0.133,32.297,5.191,44.781,19.054c1.844,2.073,2.699,3.005,11.324,3.005
			c5.133,0,5.133,0,5.133,0c7.066-0.533,13.352-1.008,13.957-1.084c0.59-0.038,3.281-0.19,5.965-0.343c0,0,0,0,2.469,0
			c23.703,0,45.305,8.291,63.293,16.411c3.473,1.559,6.934,3.194,10.395,4.791c17.391,8.063,31.109,14.452,44.277,14.452
			c1.32,0,2.633-0.076,3.992-0.209c2.531-0.228,5.086-0.343,7.637-0.343c19.203,0,36.168,6.447,47.395,10.706
			c32.746,12.417,57.949,17.97,81.684,17.97c3.336,0,6.723-0.133,10.125-0.361c6.219-0.418,12.398-0.703,18.539-0.703
			c26.137,0,26.137,0,26.137,0c23.219,8.918,42.492,16.221,42.816,16.221c0,0,0,0,0.352,0c3.461,0,3.461,0,3.461,0
			c3.828-0.229,8.688-0.514,10.816-0.628c2.133-0.114,7.172-0.343,11.23-0.514c0,0,0,0,3.547,0c47.348,0,47.348,0,47.348,0
			c13.027,25.405,25.777,51.989,28.324,59.081c2.578,7.094-0.305,16.963-6.379,21.944c-6.059,4.982-32.707,22.933-59.188,39.896
			c0,0,0,0-28.609,5.533c-9.461,1.844-19.879,5.191-30.898,8.728c-18.93,6.085-40.391,12.969-64.234,14.357
			c-29.742,1.711-58.113,8.442-89.25,21.183c-7.75,3.176-11.316,5.914-12.465,6.941c-21.727,19.319-45.875,23.979-64.492,25.861
			c-15.344,1.578-15.344,1.578-15.344,1.578c-17.629,4.849-33.309,9.185-34.828,9.622c-1.539,0.437-25.918,7.511-54.168,15.726
			c0,0,0,0-30.328,0c-9.422,0-9.422,0-9.422,0c-10.156-1.293-23.238,1.103-29.094,5.286c0,0,0,0-5.574,4.431
			c-3.527,2.814-3.527,2.814-3.527,2.814c-3.906,3.043-9.941,7.683-13.414,10.269c-3.441,2.624-9.641,4.772-13.758,4.772
			s-10.336,0.229-13.777,0.514c0,0,0,0-2.633,0c-9.48,0-18.254-2.054-26.078-6.123c-2.027-1.084-3.301-1.255-4.926-1.255
			c-5.59,0-14.387,2.662-23.684,5.495c-1.578,0.476-1.578,0.476-1.578,0.476c-1.77,0.552-3.813,5.153-4.52,10.23
			c0,0,0,0-1.766,4.316c-16.41,39.8-53.852,56.856-80.578,66.212C410.449,861.037,410.449,861.037,410.449,861.037z"/>
	</g>
	<g opacity="0.8">
		<path fill-rule="evenodd" clip-rule="evenodd" fill="#C1272D" d="M176.836,511.74c30.082-11.334,68.055-37.309,84.371-57.731
			c16.305-20.423,74.18-65.186,82.547-66.688c8.367-1.465,35.008,5.933,38.762,19.414c3.766,13.502,22.715,51.229,33.773,53.947
			c11.086,2.738,58.5,1.18,76.348,0.856c17.836-0.343,68.324,0.476,72.477,1.35c0,0,0,0,1.969,2.377
			c17.629,21.316,40,18.788,64.332,16.772c14.004-1.16,14.004-1.16,14.004-1.16c15.961,7.264,50.211,24.91,76.102,39.21
			c0,0,0,0,29.16-2.947c9.828-0.97,9.828-0.97,9.828-0.97c11.324,4.602,35.578,13.634,53.922,20.08
			c18.309,6.428,87.508,8.538,109.09,8.006c0,0,0,0,18.617,12.322c9.164,6.084,24.578,4.05,37.043,3.441
			c14.773-0.703,14.773-0.703,14.773-0.703c11.078,9.944,13.168,23.123,4.66,29.283c-8.539,6.161-47.883,20.081-62.695,25.729
			s-83.867,16.98-119.91,23.066c0,0,0,0-30.578,13.634c-8.406,3.746-16.859,8.709-23.398,15.041
			C752,675.807,752,675.807,752,675.807c-13.633,2.567-32.582,6.218-42.09,8.081c-9.5,1.864-60.66,17.552-93.227,28.447
			c0,0,0,0-32.355-8.081c-6.645-1.654-6.645-1.654-6.645-1.654c-8.633,4.164-20.223,11.238-25.793,15.688
			c-5.555,4.45-21.965,16.715-24.094,17.095c-2.148,0.361-19.148-0.209-34.59,0.59c-15.441,0.779-65.242,11.409-77.098,17.894
			c0,0,0,0,11.02,14.757c1.262,1.673,1.262,1.673,1.262,1.673c0.059,2.7-13.129,20.347-29.281,39.229c0,0,0,0-20.508,7.815
			c-16.953,6.503-16.953,6.503-16.953,6.503c-18.863-9.336-45.734-24.055-59.738-32.688c0,0,0,0-12.035-8.957
			c-32.051-23.826-32.051-23.826-32.051-23.826c-34.773-26.888-66.488-52.312-70.473-56.514
			c-3.996-4.165-25.234-14.528-37.301-21.754c-12.074-7.227-48.063-24.759-51.172-26.851c-3.109-2.073-6.246-17.494-6.605-28.999
			c-0.352-11.485-0.039-43.336,0.59-45.162C93.488,577.249,146.742,523.054,176.836,511.74z"/>
	</g>
	<g>
		<path fill-rule="evenodd" clip-rule="evenodd" fill="#F15A24" d="M400.27,713.686c-29.57,9.622-59.148,15.003-65.758,11.999
			c-6.605-2.985-47.215-35.826-78.457-62.961c0,0,0,0-27.145-26.032c-21.547-20.632-21.547-20.632-21.547-20.632
			c12.609-17.476,29.16-37.537,36.777-44.592c0,0,0,0,6.305-6.979c9.336-10.363,16.551-22.705,34.445-19.7
			c5.695,0.95,13.863-4.126,18.723-8.747c16.227-15.402,36.938-19.32,57.16-25.596c48.262-14.983,91.863-3.897,136.391,16.563
			c27.105,12.474,58.082,16.771,87.547,23.769c10.086,2.396,21.516-0.019,31.27,3.081c26.156,8.348,26.156,8.348,26.156,8.348
			c29.418-0.38,59.063-0.437,65.852-0.151c6.809,0.285,15.461,20.441,15.336,27.687c-0.094,7.264-45,29.531-81.273,43.013
			c0,0,0,0-33.855,8.994c-23.703,6.295-23.703,6.295-23.703,6.295c-27.336,2.225-85.145,13.367-128.453,24.758
			c0,0,0,0-34.578,25.348C400.27,713.686,400.27,713.686,400.27,713.686z"/>
	</g>
	<g>
		<path fill-rule="evenodd" clip-rule="evenodd" fill="#FBB03B" d="M572.922,577.153c6.883,12.722-1.16,32.346-17.914,43.622
			c-16.762,11.276-73.836,19.795-80.18,21.602c0,0,0,0-4.441,3.499c-19.672,15.479-19.672,15.479-19.672,15.479
			c-25.754,2.719-56.492,6.541-68.32,8.481c0,0,0,0-7.617,5.971c-10.496,8.195-10.496,8.195-10.496,8.195
			c-12.91,2.833-39.172,1.56-58.34-2.795c0,0,0,0-11.02-16.011c-8.652-12.57-8.652-12.57-8.652-12.57
			c-9.223-14.052-18.484-34.57-20.613-45.599c0,0,0,0,10.355-6.675c3.898-2.51,3.898-2.51,3.898-2.51
			c4.98-1.712,18.328-8.082,29.699-14.167c11.391-6.085,53.207-30.806,69.219-39.115c16.02-8.29,89.031,5.705,119.629,15.897
			c0,0,0,0,28.086,8.404c10.027,3.005,20.848,3.404,31.223,5.382C572.922,577.153,572.922,577.153,572.922,577.153z"/>
	</g>
	<path fill-rule="evenodd" clip-rule="evenodd" fill="#FFF6A1" d="M414.063,635.778c-9.223,4.488-23.465,5.135-31.668,1.465
		c-8.207-3.689-17.484-24.892-15.945-30.806c1.559-5.895,27.23-20.271,42.871-26.489c0,0,0,0,14.652-3.992
		c12.414-3.385,12.414-3.385,12.414-3.385c9.223,8.937,16.375,21.278,15.891,27.439C451.789,606.171,423.277,631.31,414.063,635.778
		z"/>
</g>
</svg>
