<?xml version="1.0" encoding="utf-8"?>
<!-- Generator: Adobe Illustrator 16.0.0, SVG Export Plug-In . SVG Version: 6.00 Build 0)  -->
<!DOCTYPE svg PUBLIC "-//W3C//DTD SVG 1.1//EN" "http://www.w3.org/Graphics/SVG/1.1/DTD/svg11.dtd">
<svg version="1.1" id="Capa_1" xmlns="http://www.w3.org/2000/svg" xmlns:xlink="http://www.w3.org/1999/xlink" x="0px" y="0px"
	 width="1200px" height="1200px" viewBox="0 0 1200 1200" enable-background="new 0 0 1200 1200" xml:space="preserve">
<g>
	<path opacity="0.3" fill-rule="evenodd" clip-rule="evenodd" fill="#C1272D" d="M1045.289,555.036
		c-9.169-5.61-42.271-22.335-54.911-25.649c-12.646-3.339-23.416-6.059-23.951-6.059c-0.521-0.027-9.433-0.146-19.797-0.291
		c0,0,0,0-8.611-0.818c-3.389-0.316-6.818-0.502-10.258-0.673c-4.199-0.225-4.199-0.225-4.199-0.225
		c-4.335-0.555-10.6-3.354-13.9-6.205c-3.313-2.838-9.707-4.541-14.215-3.762c-4.503,0.766-9.117,1.519-10.238,1.65c0,0,0,0-1.137,0
		c-5.437,0-12.664-1.98-20.328-4.079c-10.039-2.746-21.424-5.875-34.528-6.469c-10.757-0.476-21.529-3.814-34.003-7.683
		c-4.299-1.32-8.621-2.654-12.998-3.908c-2.454-0.699-4.918-1.425-7.385-2.164c-15.207-4.502-32.44-9.624-52.044-9.624
		c-12.026,0-12.026,0-12.026,0c-12.457,3.261-23.947,5.545-25.539,5.096c0,0,0,0-1.194-0.356c-2.216-0.66-2.216-0.66-2.216-0.66
		c-2.363-0.66-4.589-1.359-4.931-1.558c0,0,0,0-0.319-0.185c-4.824-2.693-4.824-2.693-4.824-2.693
		c-11.549-2.759-21.668-5.017-22.485-5.003c-0.827,0.013-1.981,0.093-2.583,0.158c-0.593,0.079-1.675,0.198-2.402,0.264
		c0,0,0,0-0.635,0c-5.846,0-12.686-3.894-23.239-10.31c-6.203-3.749-17.735-10.759-33.88-10.759c-5.215,0-5.215,0-5.215,0
		c-5.736,1.228-14.586,1.769-19.436,1.228c-4.841-0.527-53.922-6.151-71.275-8.29c-17.346-2.138-32.875-4.633-34.53-5.558
		c0,0,0,0-1.421-0.831c-3.088-1.809-3.088-1.809-3.088-1.809c-3.465-1.835-9.169-4.727-12.68-6.429
		c-3.52-1.703-16.457,0.185-28.746,4.211c-12.297,4.013-24.38,0.687-26.883-7.406c0,0,0,0,0.699-11.735
		c0.125-2.046,0.773-4.858,1.52-8.092c2.277-9.821,5.707-24.646-1.156-42.15c-2.798-7.155-4.176-15.947-5.623-25.24
		c-2.324-14.904-2.324-14.904-2.324-14.904c-6.402-18.217-13.32-49.899-15.372-70.413c0,0,8.171-63.285,3.78-79.073
		c-3.158-11.326-6.145-22.032-6.373-31.814c-0.244-9.835-2.318-18.812-4.145-26.719c-2.96-12.752-2.96-12.752-2.96-12.752
		c0.96-6.046,5.729-18.095,10.603-26.781c4.875-8.686,0.27-17.848-10.232-20.369c-10.508-2.508-26.44-6.164-35.403-8.145
		c0,0,0,0-7.201,0c-19.075,0-29.948,9.491-38.283,16.778c-24.679,21.518-33.346,48.787-38.566,72.641
		c-6.396,29.267-6.396,29.267-6.396,29.267c-14.528,19.867-38.112,102.268-42.428,105.726c-4.309,3.473-4.812,14.481-1.095,24.476
		c3.694,10.006,4.216,20.012,1.14,22.229c-3.082,2.218-5.101,7.63-4.486,12c0.619,4.383,1.459,56.474-4.702,68.711
		c-6.165,12.236-16.686,27.682-23.365,34.309c-6.686,6.64-5.479,16.29,2.686,21.425c8.173,5.136,17.188,11.881,20.042,14.983
		c0,0,0,0,0.711,12.977c0.29,5.544,0.29,5.544,0.29,5.544c0.992,6.455,2.409,14.257,3.169,17.333
		c0.754,3.076,24.409,19.616,52.579,36.738c28.164,17.135,55.464,29.174,60.672,26.759c3.906-1.809,6.342,17.596,8.757,33.094
		c-5.14-3.684-11.542-8.33-18.38-13.333c0,0,0,0-7.32-1.096c-3.339-0.501-6.608-0.766-9.703-0.766c-9.887,0-9.887,0-9.887,0
		c-16.779,14.126-50.032,37.623-73.906,52.224c0,0,0,0-5.133,14.64c-5.137,14.613-6.741,28.87-8.287,42.652
		c-0.573,5.134-0.573,5.134-0.573,5.134c-0.744,5.624-1.974,14.152-2.731,18.943c-0.748,4.806,1.14,10.297,4.19,12.211
		c3.063,1.915,5.504,3.815,5.433,4.225c0,0,0,0-0.062,0.317c-0.725,3.974-1.629,8.924-1.629,14.401
		c0,15.881,0.721,31.59,9.227,49.188c4.457,9.201,6.979,20.039,6.911,29.74c-0.087,13.519,2.315,24.369,4.924,34.059
		c4.416,16.409,5.9,34.19,7.472,53.028c0.329,3.907,0.654,7.802,1.001,11.67c0.815,8.95,13.604,77.978,15.897,84.855
		c2.013,6.06,4.09,12.316,2.976,14.587c-4.634,9.465-5.955,24.131,13.994,40.328c1.542,1.268,2.673,2.178,3.121,8.448
		c1.333,18.297,13.616,33.003,21.749,42.731c8.032,9.637,19.004,13.387,26.25,15.868c1.491,0.515,1.491,0.515,1.491,0.515
		c1.697,0.634,10.924,4.581,20.516,8.792c9.59,4.197,19.768,0.105,22.604-9.096c2.86-9.215,6.799-21.874,8.76-28.158
		c0,0,0,0,1.71-5.385c3.855-12.198,7.504-23.723,10.744-35.445c0.722-2.561,1.479-5.121,2.238-7.695
		c3.372-11.354,7.195-24.237,7.391-38.217c0.558-38.969,3.598-137.605,16.426-173.736c3.965-11.168,5.826-22.39,7.472-32.29
		c0.824-4.977,1.63-9.939,2.743-14.838c2.654-11.617,1.498-22.111,0.59-30.547c-1.143-10.455-1.301-14.508,1.372-19.036
		c14.817-25.028,5.835-51.299-3.044-71.958c0.529,0.186,1.089,0.37,1.611,0.542c0,0,0,0,18.23,6.27
		c1.643,0.556,4.223,1.757,6.725,2.918c8.357,3.881,8.357,3.881,8.357,3.881c14.02,2.918,26.541,5.294,27.832,5.28
		c0,0,0,0,1.17-0.079c6.508-0.423,12.527-1.346,17.835-2.138c5.208-0.806,10.132-1.559,13.849-1.559c2.73,0,4.07,0.396,5.076,0.819
		c4.592,1.927,9.549,2.903,14.698,2.903c10.335,0,20.593-3.934,31.364-11.986c8.838-6.626,8.838-6.626,8.838-6.626
		c9.068-7.142,21.535-12.291,27.723-11.433c0,0,0,0,6.145,0c8.667,0,16.554-1.584,23.452-4.686
		c12.315-5.532,27.179-6.786,44.399-8.238c16.582-1.386,16.582-1.386,16.582-1.386c20.435-4.185,39.178-7.34,41.654-7.049
		c0,0,0,0,2.719,0.039c2.042,0.026,4.106,0.132,6.174,0.237c3.536,0.159,7.076,0.317,10.58,0.317c6.341,0,11.98-0.488,17.213-1.506
		c5.704-1.095,12.238-1.702,19.146-2.336c17.514-1.623,17.514-1.623,17.514-1.623c23.127-7.394,43.826-13.307,45.996-13.123
		c0,0,0,0,2.252,0.225c5.148,0.528,9.504,0.767,13.716,0.767c17.259,0,32.125-4.383,45.452-13.359c7.59-5.122,7.59-5.122,7.59-5.122
		c4.21-1.082,29.536-3.71,56.273-5.809c0,0,0,0,20.048-8.039c0.122-0.04,0.605-0.132,1.624-0.132c2.66,0,6.521,0.567,10.604,1.174
		c6.146,0.898,13.108,1.914,20.981,1.914c6.346,0,12.213-0.659,17.98-2.032c10.31-2.455,10.31-2.455,10.31-2.455
		c4.167-4.463,7.724-8.265,7.909-8.448c0.165-0.186,6.091-5.849,13.153-12.568C1056.165,570.771,1054.448,560.66,1045.289,555.036z"
		/>
	<g opacity="0.8">
		<path fill-rule="evenodd" clip-rule="evenodd" fill="#C1272D" d="M369.226,489.322c1.433-0.858,2.869-4.29,3.207-7.644
			c0.322-3.34,5.288-13.769,10.264-15.59c4.982-1.822,20.139-4.159,23.749-1.545c3.61,2.601,44.124,9.967,81.429,15.049
			c0,0,0,0,33.967,4.225c3.926,0.502,8.348,0.555,11.959-0.766c8.086-2.983,8.086-2.983,8.086-2.983
			c6.686,4.185,17.881,11.472,24.883,16.211c7.004,4.739,32.08,7.445,34.785,8.871c2.705,1.425,18.898,7.418,29.478,11.537
			c0,0,0,0,6.315-3.115c24.477-12.053,46.963-2.218,68.805,4.739c16.334,5.201,31.609,12.026,49.332,12.924
			c19.8,1.003,19.8,1.003,19.8,1.003c21.439,4.845,49.86,12.62,63.152,17.293c0,0,0,0,12.76,1.347c9.54,1.004,9.54,1.004,9.54,1.004
			c10.598,0.145,25.654,2.322,33.436,4.845c7.797,2.521,26.344,13.967,25.697,14.784c-0.648,0.806-16.813-1.465-35.15-5.253
			c0,0,0,0-16.781,7.511c-15.742,7.036-32.158,9.294-49.703,9.346c-10.422,0.027-10.422,0.027-10.422,0.027
			c-11.27,7.075-29.723,16.619-41.014,21.187c0,0,0,0-11.778-1.333c-6.988-0.792-16.118-1.914-21.046,1.624
			c-19.578,14.059-42.728,11.062-64.177,15.695c-7.62,1.637-15.874,0.436-23.835,0.304c-4.045-0.066-8.747-2.164-12.02-0.739
			c-30.415,13.254-65.232,5.175-95.603,20.448c-7.906,3.974-7.906,3.974-7.906,3.974c-13.681-2.957-33.979,2.707-45.107,12.62
			c0,0,0,0-11.69,9.795c-2.988,2.509-8.229,6.125-10.492,5.056c-16.094-7.472-31.353-0.885-47.127,0.265
			c-8.715,0.62-8.715,0.62-8.715,0.62c-10.058-5.94-28.75-14.771-41.542-19.643c-12.786-4.858-49.548-31.841-53.133-49.107
			c-3.578-17.254,8.109-63.444,5.259-64.579c0,0,0,0-1.829,0.198c-2.315,0.237-2.315,0.237-2.315,0.237
			c-3.114,1.452-6.982,0.516-8.593-2.059c-1.616-2.601-11.081-7.763-16.866-4.766c-5.774,2.996-28.612,3.353-40.315-4.607
			c-11.704-7.961-45.964-40.276-45.194-50.771c0.773-10.481-13.99-49.636-6.554-68.486c7.439-18.852,10.772-73.12,13.117-75.008
			c2.341-1.874,6.982-12.62,4.744-19.379c-2.231-6.745,6.206-47.84,23.98-75.588c0,0,0,0,6.039-30.851
			c4.052-20.713,9.948-41.597,26.322-57.569c9.578-9.347,9.578-9.347,9.578-9.347c9.96,1.849,18.679,22.548,19.384,45.979
			c0,0,0,0,0.464,21.372c0.641,29.478,0.641,29.478,0.641,29.478c6.599,31.643,11.938,58.321,11.868,59.312
			c-0.087,0.977,5.326,26.006,11.107,54.044c0,0,0,0,8.474,24.211c5.208,14.864-1.221,26.31-1.907,39.207
			c-1.445,27.272,5.051,50.137,28.502,66.532c2.938,2.06,2.938,2.06,2.938,2.06C362.868,488.411,367.786,490.167,369.226,489.322z"
			/>
	</g>
	<g opacity="0.8">
		<path fill-rule="evenodd" clip-rule="evenodd" fill="#C1272D" d="M288.331,1018.453c-5.546,19.326-16.351,33.095-23.993,30.587
			c0,0,0,0-3.243-4.33c-6.103-8.185-13.166-17.913-13.781-27.379c-0.757-11.748-3.862-20.355-12.171-27.906
			c-2.328-2.112-6.119-6.02-5.484-7.459c7.968-18.229-4.026-34.837-5.42-52.064c-1.861-22.93-2.895-46.717-8.283-69.093
			c-2.264-9.438-3.655-17.425-3.604-27.181c0.074-13.848-3.037-28.593-8.547-41.345c-5.472-12.66-5.881-24.62-5.881-37.755
			c0-11.986,0-11.986,0-11.986c-3.385-13.148-4.905-40.276-3.378-60.302c0,0,0,0,5.32-16.95c5.346-17.042,5.346-17.042,5.346-17.042
			c18.93-4.699,33.838-19.207,33.146-32.237c0,0,0,0,17.397,2.944c3.118,0.527,8.376,1.359,8.76,2.971
			c3.942,16.541,24.654,15.511,30.635,29.807c1.113,2.654,4.691,4.384,7.326,6.271c8.241,5.875,20.354,4.687,25.053,17.505
			c7.861,21.412,20.785,45.794,10.66,64.922c-11.008,20.831-0.719,38.665-4.516,57.318c-2.994,14.68-3.867,29.979-8.367,44.144
			c-12.515,39.471-24.627,78.757-25.162,120.842c-0.17,13.16-4.547,26.361-7.768,39.351
			C288.331,1018.453,288.331,1018.453,288.331,1018.453z"/>
	</g>
	<g>
		<path fill-rule="evenodd" clip-rule="evenodd" fill="#F15A24" d="M383.044,611.392c-12.598-6.76-23.516-19.683-24.26-28.713
			c0,0,0,0,0.447-5.649c0.454-5.624,1.327-11.538,3.553-16.66c6.579-15.22,6.579-15.22,6.579-15.22
			c32.271-12.476,68.386-22.284,80.276-21.782c11.887,0.515,53.567,8.66,68.146,10.601c14.576,1.954,61.182,7.842,71.029,10.389
			c9.852,2.549,29.311,23.92,24.519,28.713c0,0,0,0-3.233-0.37c-19.43-2.244-19.43-2.244-19.43-2.244
			c-18.576,8.713-41.201,18.864-50.275,22.534c-9.082,3.669-44.39,14.072-57.504,17.135c-13.102,3.063-50.85,10.613-54.592,10.561
			c0,0,0,0-2.74-1.413c-9.711-5.042-20.264-4-30.396-5.769C383.044,611.392,383.044,611.392,383.044,611.392z"/>
	</g>
	<g>
		<path fill-rule="evenodd" clip-rule="evenodd" fill="#F15A24" d="M297.88,420.941c-0.297,6.455-1.756,25.662-3.24,42.652
			c0,0,0,0-9.526,13.544c-4.123,5.848-12.416,11.366-19.353,12.132c-17.198,1.888-43.072-27.142-40.801-44.303
			c4.38-32.976,8.039-66.136,14.348-98.769c2.866-14.838,10.132-29.254,17.636-42.626c6.193-10.996,16.992-9.663,22.686,1.65
			c2.528,5.003,4.029,10.785,4.828,16.369c4.486,31.484,8.711,62.994,12.805,94.519C297.88,420.941,297.88,420.941,297.88,420.941z"
			/>
	</g>
	<g>
		<path fill-rule="evenodd" clip-rule="evenodd" fill="#F15A24" d="M239.868,695.256c15.691-6.283,41.749,0.858,57.913,15.868
			c0,0,0,0-0.48,20.487c-0.363,15.551-1.671,31.074-2.627,46.626c-0.357,5.703-2.674,11.96-1.07,17.028
			c7.188,22.667,0.603,43.404-6.17,64.685c-3.974,12.488-8.824,21.333-23.835,18.997c-0.718-0.105-0.718-0.105-0.718-0.105
			c-1.108,1.979-7.114-11.974-13.346-31.01c0,0,0,0-2.325-18.745c-2.599-20.937-7.575-41.411-6.673-62.889
			c0.721-17.043-1.694-34.19-1.214-51.247C239.868,695.256,239.868,695.256,239.868,695.256z"/>
	</g>
	<g>
		<path fill-rule="evenodd" clip-rule="evenodd" fill="#FBB03B" d="M416.444,540.384c13.682-1.757,41.523-0.858,61.839,1.979
			c0,0,0,0,17.182,4.727c9.716,2.679,18.29,6.086,28.376,2.23c9.424-3.591,18.367-2.904,21.951,8.488
			c3.302,10.508-5.188,23.365-16.93,25.57c-12.883,2.429-26.039,3.419-38.908,5.888c-15.269,2.93-30.653,5.834-45.465,10.401
			c-18.27,5.637-34.363-0.845-49.432-8.541c-5.449-2.784-9.18-13.385-9.602-20.659c-0.721-12.462,6.639-22.612,18.58-26.27
			C416.444,540.384,416.444,540.384,416.444,540.384z"/>
	</g>
	<g>
		<path fill-rule="evenodd" clip-rule="evenodd" fill="#FBB03B" d="M249.05,395.49c9.25-6.112,26.573,8.673,38.515,32.844
			c0,0,0,0-10.634,25.412c-3.333,7.946-7.069,15.695-17.314,13.808c-10.045-1.861-15.417-8.171-14.492-19.246
			c1.208-14.508,1.101-29.148,2.818-43.577C249.05,395.49,249.05,395.49,249.05,395.49z"/>
	</g>
	<path fill-rule="evenodd" clip-rule="evenodd" fill="#FFF6A1" d="M434.013,562.72c7.975,6.956,8.029,17.134,0.113,22.613
		c0,0,0,0-5.327,0.712c-8.222,1.109-18.097-9.096-14.817-14.626c2.715-4.594,9.783-9.663,14.415-9.228
		C434.013,562.72,434.013,562.72,434.013,562.72z"/>
</g>
</svg>
